<?xml version="1.0" standalone="no"?>
<!DOCTYPE svg PUBLIC "-//W3C//DTD SVG 1.1//EN" "http://www.w3.org/Graphics/SVG/1.1/DTD/svg11.dtd" >
<svg>
<metadata>
Created by FontForge 20090914 at Tue Aug 11 14:23:22 2020
 By www-data
Copyright (c) Gophmann A.L., 2007. All rights reserved.
</metadata>
<defs>
<font id="AugustaTwo" horiz-adv-x="933" >
  <font-face 
    font-family="Augusta Two"
    font-weight="400"
    font-stretch="normal"
    units-per-em="2048"
    panose-1="2 0 0 0 0 0 0 0 0 0"
    ascent="1638"
    descent="-410"
    x-height="1124"
    cap-height="1495"
    bbox="0 -394.999 1817 1851"
    underline-thickness="102"
    underline-position="-153"
    unicode-range="U+000D-U+25FC"
  />
<missing-glyph horiz-adv-x="748" 
d="M68 0v1365h544v-1365h-544zM136 68h408v1229h-408v-1229z" />
    <glyph glyph-name=".notdef" horiz-adv-x="748" 
d="M68 0v1365h544v-1365h-544zM136 68h408v1229h-408v-1229z" />
    <glyph glyph-name="glyph1" horiz-adv-x="2048" 
 />
    <glyph glyph-name="glyph1" horiz-adv-x="2048" 
 />
    <glyph glyph-name="uni000D" unicode="&#xd;" horiz-adv-x="2048" 
 />
    <glyph glyph-name="space" unicode=" " horiz-adv-x="458" 
 />
    <glyph glyph-name="exclam" unicode="!" horiz-adv-x="409" 
d="M20 1460l18.9971 -39.001l51 29c10.667 -102.667 21 -257 31 -463c12 -207.333 18 -380 18 -518l23 -6c10.667 24.667 29 56 55 94c12 19.333 23.167 35.833 33.5 49.5l25.5 34.5c0 69.333 1.83301 147.5 5.5 234.5s8.83398 184.333 15.501 292
s13.167 200.834 19.5 279.501s12.833 143.667 19.5 195l-33 19c-26 -23.333 -50.167 -43.833 -72.5 -61.5s-44.166 -34 -65.499 -49s-43.666 -29.667 -66.999 -44zM26.9971 181.999l67 -92c35.333 -30 64 -67.667 86 -113c34 12 65.333 31.5 94 58.5s63 62.833 103 107.5
l-178 197z" />
    <glyph glyph-name="quotedbl" unicode="&#x22;" horiz-adv-x="569" 
d="M59 946l136 86v426l-136 -86v-426zM373 946l135 86v426l-135 -86v-426z" />
    <glyph glyph-name="numbersign" unicode="#" horiz-adv-x="854" 
d="M31 319l20.0059 -14c8 15.333 15.5 24.666 22.5 27.999s18.833 5 35.5 5h110v-115c0 -13.333 -2 -24.5 -6 -33.5s-13 -16.167 -27 -21.5l15 -23c101.333 52 151.666 89.667 150.999 113v82h123v-117c0 -13.333 -2 -24.5 -6 -33.5s-13 -16.167 -27 -21.5l15 -23
c101.333 52 151.666 89.667 150.999 113v84h123c13.333 0 27.666 15.667 42.999 47s31.666 67 48.999 107l-20 14c-8 -16.667 -17.167 -27 -27.5 -31s-33.166 -6 -68.499 -6h-37h-62v125h123c15.333 0 29.166 13 41.499 39s29.166 63.667 50.499 113l-20 16
c-8 -16.667 -17.167 -27 -27.5 -31s-33.166 -6 -68.499 -6h-37h-60v55c0 54.667 1.33301 89 4 103c4 10.667 15 21 33 31l-14 20l-69 -31.5c-22.667 -10.333 -44.667 -21.166 -66 -32.499c-12 -8 -18.333 -16.667 -19 -26l-2 -121h-123v57c0 54.667 1.33301 89 4 103
c4 10.667 15 21 33 31l-14 20l-69 -31.5c-22.667 -10.333 -44.667 -21.166 -66 -32.499c-12 -8 -18.333 -16.667 -19 -26v-123h-80c-26 0 -63.333 -50 -112 -150l20 -14c8 15.333 15.5 24.666 22.5 27.999s18.833 5 35.5 5h114l-2 -123h-78
c-20.667 0 -39.834 -15.333 -57.501 -46s-35.834 -66 -54.501 -106zM354.006 471v123l123 2v-125h-123z" />
    <glyph glyph-name="dollar" unicode="$" horiz-adv-x="460" 
d="M37 1217c0 -28.667 3.33008 -56.665 9.99707 -83.998s13.834 -54.333 21.501 -81s14.834 -54 21.501 -82s10 -57.667 10 -89v-963c0 -4 1.83301 -11.5 5.5 -22.5s8.16699 -22.667 13.5 -35s11.833 -22.833 19.5 -31.5s15.5 -13 23.5 -13h188c0 16.667 -2.33301 32 -7 46
s-9.83398 28.167 -15.501 42.5s-10.834 29 -15.501 44s-7 32.167 -7 51.5v1106c0 9.33301 -7.5 19.166 -22.5 29.499l-50 36c-18.333 13.667 -35 29.667 -50 48s-22.5 41.833 -22.5 70.5c0 19.333 4.33301 37.833 13 55.5s25.334 26.5 50.001 26.5
c13.333 0 24.833 -4.33301 34.5 -13s18.667 -18.167 27 -28.5s17.333 -20 27 -29s21.167 -13.5 34.5 -13.5c15.333 0 28.333 8.5 39 25.5s19.834 36.833 27.501 59.5s13.5 45.667 17.5 69s6 41 6 53h-233c-1.33301 0 -6.16602 -3.66699 -14.499 -11s-18 -16.5 -29 -27.5
l-32.5 -34l-27 -29.5c-42 -50.667 -63 -109.334 -63 -176.001z" />
    <glyph glyph-name="percent" unicode="%" horiz-adv-x="874" 
d="M53 1128c0 -24.667 1.67383 -45.3369 5.00684 -62.0039s12.666 -37.334 27.999 -62.001v-922c0 -1.33301 3.83301 -7.16602 11.5 -17.499s14.167 -18.166 19.5 -23.499c5.33301 -6.66699 13.166 -15.167 23.499 -25.5s16.166 -15.5 17.499 -15.5h188
c0 2.66699 -0.666992 6.33398 -2 11.001s-2 7.66699 -2 9c-1.33301 5.33301 -4.33301 15 -9 29l-15.5 44.5c-5.66699 15.667 -11.167 30 -16.5 43s-8.66602 22.167 -9.99902 27.5v901c-34 19.333 -55.167 38.5 -63.5 57.5s-12.5 43.5 -12.5 73.5c0 12 1.66699 24.5 5 37.5
s8.5 25.333 15.5 37s16 21.334 27 29.001s23.833 11.5 38.5 11.5h287c1.33301 0 4.66602 -2.83301 9.99902 -8.5s8.66602 -9.83398 9.99902 -12.501v-10v-10c-1.33301 -2.66699 -4.33301 -9.5 -9 -20.5s-8.33398 -17.833 -11.001 -20.5l-36 -49l-55.5 -74l-56 -74l-37.5 -49
v-31h93v-891c0 -1.33301 3.66699 -7 11 -17s13.666 -18 18.999 -24l21 -20h209c0 12 -2.5 23.5 -7.5 34.5l-15.5 34c-5.33301 11.667 -10.333 23.334 -15 35.001s-7 24.834 -7 39.501v799c36.667 4 66.334 13.5 89.001 28.5s34 43.167 34 84.5
c0 13.333 -5.5 22.5 -16.5 27.5s-23.333 6.66699 -37 5s-26.667 -3.83398 -39 -6.50098s-19.833 -4 -22.5 -4c0 56 5.83301 109.333 17.5 160s17.5 103.334 17.5 158.001c0 19.333 -9.33301 34 -28 44s-37.334 15 -56.001 15h-348c-24.667 0 -52.334 -12.667 -83.001 -38
s-60 -55.333 -88 -90s-51.333 -70.5 -70 -107.5s-28 -67.167 -28 -90.5z" />
    <glyph glyph-name="ampersand" unicode="&#x26;" horiz-adv-x="1202" 
d="M29 289c0 -87.333 30 -161 90 -221c58.667 -58.667 128.334 -88 209.001 -88c53.333 0 112.333 16.667 177 50s136.667 86.666 216 159.999c35.333 -35.333 74.5 -70.666 117.5 -105.999s89.167 -70 138.5 -104l197 180l-23 24l-45 -43
c-40.667 24.667 -87 58.334 -139 101.001l-66 56.5c-19.333 17 -35.666 32.833 -48.999 47.5c74 86 128 163.167 162 231.5s51 125.833 51 172.5c0 26 -3 47.5 -9 64.5s-15.333 32.167 -28 45.5l-168 -164c32.667 -20.667 49 -54 49 -100c0 -27.333 -7.5 -61.5 -22.5 -102.5
s-36.833 -79.833 -65.5 -116.5c-160 152.667 -263 309.667 -309 471c125.333 121.333 201.666 199.666 228.999 234.999c27.333 38 41 76.333 41 115c0 40.667 -8.83301 75 -26.5 103s-46.167 55.667 -85.5 83l-230 -178c-28.667 -23.333 -52.834 -44.5 -72.501 -63.5
s-35 -38 -46 -57s-18.833 -38.167 -23.5 -57.5s-7 -40.333 -7 -63c0 -52 14.333 -123.667 43 -215c-118.667 -108 -199.167 -195.5 -241.5 -262.5s-63.5 -133.167 -63.5 -198.5zM184 416c0 49.333 12.667 96.5 38 141.5s68.666 94.167 129.999 147.5
c22 -48 44.333 -92.833 67 -134.5s45.334 -80.167 68.001 -115.5c24.667 -35.333 53.5 -72.166 86.5 -110.499s70.5 -78.833 112.5 -121.5c-74 -65.333 -143 -98 -207 -98c-82 0 -151.667 30.667 -209 92s-86 127.666 -86 198.999zM471 1079c0 26 5.5 53.6689 16.5 83.002
s25.833 53 44.5 71c31.333 -24.667 52.833 -48 64.5 -70s17.5 -48 17.5 -78c0 -32.667 -8 -61.834 -24 -87.501s-47.333 -60.5 -94 -104.5c-9.33301 26 -15.833 51.667 -19.5 77s-5.5 61.666 -5.5 108.999z" />
    <glyph glyph-name="quotesingle" unicode="'" horiz-adv-x="241" 
d="M51 946l135 86v426l-135 -86v-426z" />
    <glyph glyph-name="parenleft" unicode="(" horiz-adv-x="632" 
d="M27 639c0 -168 33.502 -321.999 100.502 -461.999s162.5 -255 286.5 -345l196 148l-24 20l-58 -41c-106.667 78 -188.834 175.667 -246.501 293s-86.5 254.666 -86.5 411.999c0 196.667 31.667 357 95 481s153.666 223.667 270.999 299l-18 29l-187 -99
c-72.667 -39.333 -145.667 -127.333 -219 -264c-74 -138 -110.667 -295 -110 -471z" />
    <glyph glyph-name="parenright" unicode=")" horiz-adv-x="632" 
d="M23 1325l21.999 -21.998l57 43c106.667 -78 189 -176.167 247 -294.5s87 -255.833 87 -412.5c0 -196.667 -31.667 -356.834 -95 -480.501s-153.666 -222.834 -270.999 -297.501l18 -29l186 98c74 39.333 147.333 127 220 263c74 136.667 110.667 293.667 110 471
c0 168 -33.5 322.333 -100.5 463s-162.5 256 -286.5 346z" />
    <glyph glyph-name="asterisk" unicode="*" horiz-adv-x="589" 
d="M31 1466c0 -52 32.666 -84.6641 97.999 -97.9971c66.667 -12 107 -26.333 121 -43c-69.333 -23.333 -124.166 -43.5 -164.499 -60.5s-57.833 -32.833 -52.5 -47.5c0 -8 3.66699 -18 11 -30s14.666 -22.667 21.999 -32c4 -1.33301 10.667 -2 20 -2
c32.667 0 66 23.333 100 70c34 45.333 61.333 73.333 82 84c5.33301 -10.667 8 -23.667 8 -39s-7.33301 -43.333 -22 -84c-13.333 -36.667 -20.333 -66.667 -21 -90c0 -19.333 3.83301 -34.5 11.5 -45.5s23.834 -16.5 48.501 -16.5c12 0 20 0.666992 24 2
c23.333 19.333 35 44 35 74c0 16.667 -6.16699 43.334 -18.5 80.001s-18.5 65.334 -18.5 86.001c0 12 0.666992 20 2 24c9.33301 -2.66699 36 -29 80 -79c42.667 -50.667 81.667 -76 117 -76c32.667 13.333 49 40.666 49 81.999c-2.66699 9.33301 -11.167 17.833 -25.5 25.5
l-33.5 17.5c-5.33301 5.33301 -33.333 12 -84 20c-48 8 -76 22.333 -84 43c18 9.33301 53.333 19.666 106 30.999c53.333 9.33301 87.5 21.166 102.5 35.499s22.5 27.166 22.5 38.499c0 24.667 -8.66699 41.667 -26 51c-18 6.66699 -31 10 -39 10
c-30 0 -67.667 -24 -113 -72c-45.333 -49.333 -69.333 -74.333 -72 -75c-1.33301 8 -2.33301 14.667 -3 20s-1 9.33301 -1 12c0 22 6.33301 55 19 99c12 42 18 74 18 96c-10.667 27.333 -32.334 41 -65.001 41c-20.667 0 -37 -7 -49 -21c-1.33301 -4 -2.33301 -12 -3 -24
c0 -24.667 7 -57.334 21 -98.001c13.333 -39.333 20 -69 20 -89c0 -12 -2 -24 -6 -36c-19.333 8 -48.666 33.667 -87.999 77c-39.333 45.333 -70 68 -92 68c-19.333 0 -38.333 -9.66699 -57 -29z" />
    <glyph glyph-name="plus" unicode="+" horiz-adv-x="899" 
d="M12 518l27.0029 -18c9.33301 19.333 18.166 31 26.499 35s22.833 6 43.5 6h243v-246c-1.33301 -19.333 -4.33301 -33.666 -9 -42.999s-16 -18.333 -34 -27l19 -26c125.333 64 188 111 188 141v203h258c16.667 4 55 68.667 115 194l-27 19
c-10.667 -20.667 -22.834 -33.334 -36.501 -38.001s-37.5 -7 -71.5 -7h-58h-178v172c0 34 0.666992 61.5 2 82.5s3.33301 35.167 6 42.5c4 18 17 31.667 39 41l-18 26c-126.667 -61.333 -190.334 -99.333 -191.001 -114v-252h-202c-26 0 -48.333 -16.5 -67 -49.5
s-43.667 -80.167 -75 -141.5z" />
    <glyph glyph-name="comma" unicode="," horiz-adv-x="370" 
d="M25 147l147.001 -135.001c8 -8 12 -16.667 12 -26c0 -12 -1.66699 -24 -5 -36s-9.5 -25.5 -18.5 -40.5s-21.333 -32.333 -37 -52s-35.834 -43.167 -60.501 -70.5l31 -29c74 74 135.667 148 185 222c50.667 70.667 75.667 126.334 75 167.001c0 12 -7.33301 25.667 -22 41
l-152 129z" />
    <glyph glyph-name="hyphen" unicode="-" 
d="M29 518l26 -17.999c9.33301 19.333 18.166 31 26.499 35s22.833 6 43.5 6h174v2h492c16.667 4 54.667 68.667 114 194l-26 19c-10.667 -20.667 -23 -33.334 -37 -38.001s-38 -7 -72 -7h-397v-2h-203c-26 0 -48.167 -16.5 -66.5 -49.5s-43.166 -80.167 -74.499 -141.5z
" />
    <glyph glyph-name="period" unicode="." horiz-adv-x="397" 
d="M23 182l63 -88c38 -31.333 68.667 -70.333 92 -117c34 12 65.333 31.5 94 58.5s63 62.833 103 107.5l-178 197z" />
    <glyph glyph-name="slash" unicode="/" horiz-adv-x="688" 
d="M4 -6l21 -14l135 69l465 1280c5.33301 16.667 13.833 39 25.5 67s22.834 48.667 33.501 62l-20 15l-136 -72l-465 -1280c-5.33301 -16.667 -13.833 -39 -25.5 -67s-22.834 -48 -33.501 -60z" />
    <glyph glyph-name="zero" unicode="0" horiz-adv-x="1026" 
d="M80 778c0 -20.667 0.333008 -41.167 1 -61.5s1 -38.5 1 -54.5v-27c1.33301 -44 1.66602 -90.167 0.999023 -138.5s1 -96 5 -143s11.5 -92 22.5 -135s28.167 -81 51.5 -114s54.333 -59 93 -78s88 -28.5 148 -28.5c58.667 0 115.334 10.833 170.001 32.5
s104.167 51 148.5 88s82.333 80.5 114 130.5s53.5 103.667 65.5 161v637c0 60 -4.83301 117.167 -14.5 171.5s-27.667 102 -54 143s-63.5 73.833 -111.5 98.5s-111 37 -189 37c-90 0 -164 -21.5 -222 -64.5s-104 -97.333 -138 -163s-57.833 -138.167 -71.5 -217.5
s-20.5 -154.333 -20.5 -225v-49zM328 369l0.000976562 880c0 8 4.83301 19 14.5 33s18.5 23.667 26.5 29h92h8c61.333 0 107.666 -13 138.999 -39s47 -74.667 47 -146v-901c0 -8 -4.66699 -18.833 -14 -32.5s-18.333 -23.167 -27 -28.5h-71c-66.667 0 -119.167 16 -157.5 48
s-57.5 84.333 -57.5 157z" />
    <glyph glyph-name="one" unicode="1" horiz-adv-x="538" 
d="M20 1300c0 -18 8.66699 -30.999 26 -38.999s36.5 -15.667 57.5 -23s40 -15.833 57 -25.5s25.5 -24.834 25.5 -45.501v-1044c-13.333 -12 -28.5 -29.667 -45.5 -53s-25.5 -46.666 -25.5 -69.999h383c0 22 -9.33301 43.833 -28 65.5l-48 57.5v1352h-113
c-1.33301 0 -12.166 -5.5 -32.499 -16.5l-73.5 -39l-87 -47l-73 -41.5c-2.66699 -1.33301 -6.33398 -4.33301 -11.001 -9s-7.66699 -8.33398 -9 -11.001l-1 -4c-1.33301 -2.66699 -2 -5 -2 -7z" />
    <glyph glyph-name="two" unicode="2" horiz-adv-x="911" 
d="M47 1010c0 -27.333 5.16211 -53.9961 15.4951 -79.9961s24 -49 41 -69s37.833 -35.667 62.5 -47s51.334 -17 80.001 -17c15.333 0 25 0.666992 29 2s10.667 8 20 20c8 9.33301 17.833 22.333 29.5 39l34 47.5c11 15 20.167 28.5 27.5 40.5l11 17v34
c-52 0 -92.667 10 -122 30s-44 56.667 -44 110c0 57.333 20.5 100.666 61.5 129.999s89.5 44 145.5 44c38 0 72.167 -7.5 102.5 -22.5s50.833 -41.833 61.5 -80.5v-28c0 -12 0.333008 -26 1 -42s1 -30.667 1 -44v-29c0 -84.667 -13.333 -155.334 -40 -212.001
s-60.167 -107.5 -100.5 -152.5s-83.666 -88 -129.999 -129s-89.666 -87.167 -129.999 -138.5s-73.833 -111 -100.5 -179s-40 -152.667 -40 -254h785v348c0 10.667 -5.16699 17.167 -15.5 19.5s-18.833 3.5 -25.5 3.5c-22 0 -39.5 -8.16699 -52.5 -24.5
s-25.667 -35.5 -38 -57.5s-25.666 -42.833 -39.999 -62.5s-32.166 -33.834 -53.499 -42.501h-29c-12 0 -26 -0.333008 -42 -1s-30.667 -1 -44 -1h-29c-18 0 -39.833 -1 -65.5 -3s-50.5 -1.33301 -74.5 2s-44.5 11.166 -61.5 23.499s-25.5 32.833 -25.5 61.5
c0 50.667 14.667 94.167 44 130.5s66.166 70.166 110.499 101.499s92.5 63.333 144.5 96s100.167 71.5 144.5 116.5s81.166 99 110.499 162s44 140.833 44 233.5c0 26 -1.33301 59.833 -4 101.5s-10.167 82.334 -22.5 122.001s-31.166 73.834 -56.499 102.501
s-59.666 43 -102.999 43h-308l-12 -9l-28.5 -23l-34 -27.5l-27.5 -22.5c-27.333 -23.333 -53.333 -49.333 -78 -78s-46.5 -59.334 -65.5 -92.001s-34.333 -67.167 -46 -103.5s-17.5 -72.833 -17.5 -109.5z" />
    <glyph glyph-name="three" unicode="3" horiz-adv-x="919" 
d="M59 20l90.9951 -11.001c26.667 -3.33301 52.334 -5.66602 77.001 -6.99902s49.334 -2.33301 74.001 -3s52 -1 82 -1c76.667 0 145.334 18 206.001 54s112.5 82.833 155.5 140.5s76.167 121.5 99.5 191.5s35 140 35 210c0 52 -7.5 102.167 -22.5 150.5
s-36.5 92.333 -64.5 132s-62.5 74.167 -103.5 103.5s-86.833 50.666 -137.5 63.999l246 328c9.33301 13.333 15.333 23.5 18 30.5s4 17.5 4 31.5c0 6.66699 -1 15.167 -3 25.5s-8.33301 15.5 -19 15.5h-697c-13.333 0 -20.333 -6.5 -21 -19.5s-1 -23.167 -1 -30.5
c0 -24.667 2 -46.5 6 -65.5s9.33301 -42.167 16 -69.5c2.66699 -9.33301 6.16699 -20.833 10.5 -34.5s8.83301 -27 13.5 -40l12 -33.5l5 -15h41c4 5.33301 11.833 13.833 23.5 25.5l37 37l37 37c11.667 11.667 20.167 19.5 25.5 23.5c19.333 16.667 40.5 24.667 63.5 24
s46.167 -1 69.5 -1h19c8 0 17.167 -0.333008 27.5 -1s19.5 -1 27.5 -1h18c2.66699 -1.33301 6.5 -4.5 11.5 -9.5s8.16699 -8.83301 9.5 -11.5v-10v-10c-1.33301 -2.66699 -4.33301 -9.5 -9 -20.5s-8.66699 -17.833 -12 -20.5c-10.667 -12 -29.667 -34.833 -57 -68.5
l-86 -106l-86 -104.5l-57 -69c-16.667 -20.667 -29 -37.834 -37 -51.501s-12 -33.5 -12 -59.5c22 0 41.833 2.66699 59.5 8s35 11.5 52 18.5s34.333 13.167 52 18.5s37.5 8 59.5 8c45.333 0 82.166 -9.5 110.499 -28.5s50.333 -43.833 66 -74.5
s26.334 -65.167 32.001 -103.5s8.5 -76.5 8.5 -114.5c0 -45.333 -2.83301 -88.5 -8.5 -129.5s-16.667 -77.167 -33 -108.5s-40.166 -56.166 -71.499 -74.499s-73 -27.5 -125 -27.5c-45.333 0 -81.5 11.833 -108.5 35.5s-50.167 49.834 -69.5 78.501l-52.5 79
c-15.667 24 -34.167 36 -55.5 36c-1.33301 0 -3.66602 -0.333008 -6.99902 -1l-4 -1c-6.66699 -4 -15.167 -11.167 -25.5 -21.5s-15.5 -16.833 -15.5 -19.5v-328z" />
    <glyph glyph-name="four" unicode="4" horiz-adv-x="931" 
d="M16 358c0 -20.667 9.99902 -36.999 29.999 -48.999s45.667 -21.167 77 -27.5s65.833 -10.166 103.5 -11.499s74.834 -2 111.501 -2h100h41c12 0 22.333 -0.666992 31 -2l4 -82c0 -20.667 -2.66699 -38.334 -8 -53.001s-11.5 -28.834 -18.5 -42.501
s-13.167 -27.334 -18.5 -41.001s-8 -29.5 -8 -47.5h321c0 16.667 -2.66699 30.334 -8 41.001l-17 32.5c-6 11 -11.5 24.333 -16.5 40s-7.5 35.834 -7.5 60.501v19c0 8 0.333008 17.167 1 27.5s1.33398 19.5 2.00098 27.5s1 14 1 18c35.333 4 68.166 16 98.499 36
s45.5 52.333 45.5 97v11c-9.33301 18 -26.666 26.667 -51.999 26c-16.667 0 -33.334 -2.33301 -50.001 -7s-30.667 -7 -42 -7v622c1.33301 4 3 10.833 5 20.5l6.5 31l6.5 31c2 9.66699 3 16.5 3 20.5v12v8c-1.33301 2.66699 -4.5 6.5 -9.5 11.5s-8.83301 8.16699 -11.5 9.5
l-4 1c-2.66699 0.666992 -4.66699 1 -6 1s-3 -0.333008 -5 -1s-3.66699 -1 -5 -1c-6.66699 -5.33301 -16.5 -14.5 -29.5 -27.5l-43 -43l-44 -44l-29.5 -29.5c-15.333 -13.333 -28 -23.333 -38 -30s-18.333 -13.167 -25 -19.5s-11.834 -13.166 -15.501 -20.499
s-5.5 -17.333 -5.5 -30c0 -15.333 2.16699 -29.333 6.5 -42s9.83301 -26.667 16.5 -42v-409h-307c-1.33301 0 -4.83301 2.66699 -10.5 8s-9.16699 9.33301 -10.5 12l-1 4c-0.666992 2.66699 -1 4.66699 -1 6l2 11l110.5 250.5c38.333 85 80.666 168.5 126.999 250.5
s96.833 160.5 151.5 235.5s116.334 143.5 185.001 205.5v41h-434c0 -31.333 4.33301 -59 13 -83s13 -53 13 -87c0 -36.667 -3.66699 -73.167 -11 -109.5s-17.166 -72.333 -29.499 -108s-26 -70.5 -41 -104.5l-43.5 -102l-205 -492c0 -2.66699 -0.333008 -7.83398 -1 -15.501
s-1 -12.834 -1 -15.501z" />
    <glyph glyph-name="five" unicode="5" horiz-adv-x="903" 
d="M53 266c0 -22 4.16699 -48.332 12.5 -78.999s20.333 -59.667 36 -87s35.167 -50.833 58.5 -70.5s50 -29.5 80 -29.5h348c39.333 0 73.333 9.83301 102 29.5s53 45.334 73 77.001s35.667 67.167 47 106.5s20.5 78.833 27.5 118.5s11.5 77.334 13.5 113.001
s3 64.834 3 87.501c0 58.667 -3.33301 119.5 -10 182.5s-21.334 120.833 -44.001 173.5s-55.834 95.667 -99.501 129s-101.834 50 -174.501 50c-34 0 -63.667 -2.66699 -89 -8s-48.833 -13.5 -70.5 -24.5s-42.834 -26 -63.501 -45s-41.667 -41.5 -63 -67.5v368h266l123 -123
l3 -1c2 -0.666992 4.33301 -1 7 -1c16.667 0 31.834 11 45.501 33s25.5 47.667 35.5 77s18.167 58.666 24.5 87.999s9.5 50.666 9.5 63.999s-1.5 24.666 -4.5 33.999s-15.833 14 -38.5 14h-615v-799c0 -4 2.83301 -7.83301 8.5 -11.5s11.834 -6.16699 18.501 -7.5
s13.5 -2.33301 20.5 -3s12.5 -1 16.5 -1c24.667 0 44.5 13 59.5 39l48 86c17 31.333 37.5 60 61.5 86s57.667 39 101 39c49.333 0 86.666 -12.667 111.999 -38s43 -56.333 53 -93s15 -77 15 -121v-116c0 -40.667 0.666992 -85.334 2 -134.001s-3 -93.834 -13 -135.501
s-28.333 -76.167 -55 -103.5s-68.667 -41 -126 -41c-35.333 0 -63 8.83301 -83 26.5s-35.167 39.834 -45.5 66.501s-17.166 55.667 -20.499 87l-9 88h-10h-10c-6.66699 -1.33301 -18 -4 -34 -8l-51.5 -13.5c-18.333 -5 -36.666 -10.833 -54.999 -17.5
s-33.166 -14 -44.499 -22c0 -4 -0.333008 -14 -1 -30s-1 -26.667 -1 -32z" />
    <glyph glyph-name="six" unicode="6" horiz-adv-x="905" 
d="M55 225c0 -46.667 12.3301 -84.5029 36.9971 -113.503s55.167 -52.167 91.5 -69.5s75.166 -29 116.499 -35s79.333 -9 114 -9h22c10.667 0 21.834 0.333008 33.501 1s23.167 1 34.5 1h22c34 12 68.833 30.333 104.5 55s68.167 53 97.5 85s55.333 65.833 78 101.5
s38.667 71.167 48 106.5v43c0 22 0.333008 45 1 69s1 46.667 1 68v45c0 61.333 -1 122.5 -3 183.5s-12.167 116 -30.5 165s-47.666 88.833 -87.999 119.5s-98.166 46 -173.499 46c-32.667 0 -61.667 -2.33301 -87 -7s-48.833 -12.834 -70.5 -24.501s-42.5 -26.667 -62.5 -45
s-40 -41.166 -60 -68.499v287c0 2.66699 2.66699 8.83398 8 18.501s9.33301 17.167 12 22.5c2.66699 2.66699 6.33398 6.66699 11.001 12s8 8 10 8c28.667 9.33301 60.334 15.833 95.001 19.5s70.167 5.83398 106.5 6.50098s70.833 0.333984 103.5 -0.999023
s60.667 -2.66602 84 -3.99902c10.667 8 20.167 18.5 28.5 31.5s15.166 27 20.499 42s9.33301 30.833 12 47.5s4 31 4 43h-414c-16.667 0 -41.5 -14 -74.5 -42s-67 -61.5 -102 -100.5s-65.5 -79.333 -91.5 -121s-39 -76.834 -39 -105.501v-881zM278.997 542.997
l0.000976562 37.002c0 19.333 0.333008 39.5 1 60.5s1 40.167 1 57.5v39c5.33301 23.333 13 46.333 23 69s22.667 42.5 38 59.5s33.166 31 53.499 42s43.5 16.5 69.5 16.5c42 0 72.667 -11.333 92 -34s36.333 -53 51 -91c5.33301 -69.333 10.166 -135.5 14.499 -198.5
s6.5 -127.833 6.5 -194.5c0 -28.667 -0.666992 -58.834 -2 -90.501s-6.16602 -60.5 -14.499 -86.5s-22.333 -47.167 -42 -63.5s-48.167 -24.5 -85.5 -24.5c-56 0 -98 13.667 -126 41s-48 61.166 -60 101.499s-18.333 83.833 -19 130.5s-1 89.667 -1 129z" />
    <glyph glyph-name="seven" unicode="7" horiz-adv-x="843" 
d="M39 1413l15.5 -47.001l24.5 -74l24.5 -74.5c7.66699 -23.667 13.5 -40.5 17.5 -50.5c2.66699 -9.33301 8.5 -22.166 17.5 -38.499s20.167 -24.5 33.5 -24.5c1.33301 0 3.33301 0.333008 6 1l4 1c9.33301 6.66699 19.833 18.834 31.5 36.501l36 55.5
c12.333 19.333 25 36.166 38 50.499s25.833 21.5 38.5 21.5h286v-82l-389 -1065c-4 -12 -10 -22.5 -18 -31.5l-24.5 -27c-8.33301 -9 -15.166 -18.667 -20.499 -29s-8 -22.166 -8 -35.499h383c0 31.333 -4.5 61 -13.5 89s-13.5 59 -13.5 93c0 38 1 72.167 3 102.5
s8.33301 65.166 19 104.499l287 1024v10v11c-4 6.66699 -11.167 15.167 -21.5 25.5s-16.833 15.5 -19.5 15.5h-717c-1.33301 0 -4.33301 -5.16699 -9 -15.5s-8.33398 -18.833 -11.001 -25.5v-11v-10z" />
    <glyph glyph-name="eight" unicode="8" horiz-adv-x="903" 
d="M49 369c0 -28.667 2.82617 -63.834 8.49316 -105.501s16.334 -82 32.001 -121s36.834 -72.5 63.501 -100.5s61 -42 103 -42h389c38 0 70 18.167 96 54.5s47.167 78.333 63.5 126s28.333 95.334 36 143.001s11.5 83.167 11.5 106.5c0 49.333 -2 90.333 -6 123
s-12.167 62.667 -24.5 90s-29.5 54.333 -51.5 81s-50 58.334 -84 95.001c0 1.33301 -0.333008 3 -1 5s-1 3.66699 -1 5c0 2.66699 7.5 13.334 22.5 32.001s31.667 42.667 50 72s35.333 62.333 51 99s23.5 75 23.5 115c0 65.333 -13.167 124.333 -39.5 177
s-68.166 96 -125.499 130c-31.333 4 -59.666 7.33301 -84.999 10l-73 7.5c-23.333 2.33301 -46.666 3.83301 -69.999 4.5s-48.666 1 -75.999 1c-53.333 0 -97.333 -13 -132 -39s-62.167 -58.5 -82.5 -97.5s-35 -82.333 -44 -130s-13.5 -92.834 -13.5 -135.501v-26
c0 -12 0.333008 -25.333 1 -40s1 -28 1 -40v-27c15.333 -36.667 35.5 -70 60.5 -100s52.833 -58 83.5 -84c-35.333 -28.667 -65 -57 -89 -85s-43.167 -57.333 -57.5 -88s-24.666 -63.334 -30.999 -98.001s-9.5 -74 -9.5 -118zM212.993 410c0 18 2.00098 42.833 6.00098 74.5
s11.167 63.667 21.5 96s24 60 41 83s39.167 34.5 66.5 34.5c34 0 70.833 -10.5 110.5 -31.5s76.667 -47.167 111 -78.5s62.666 -66.5 84.999 -105.5s33.5 -75.5 33.5 -109.5c0 -78 -19.5 -132.667 -58.5 -164s-95.167 -47 -168.5 -47c-165.333 0 -248 82.667 -248 248z
M253.994 1147c0 35.333 4.49707 64.333 13.4971 87s32.5 41.334 70.5 56.001c4 0 10.833 0.333008 20.5 1s19.834 1 30.501 1s20.834 0.333008 30.501 1s16.5 1 20.5 1c78 0 135.167 -14.667 171.5 -44s54.5 -85 54.5 -167c0 -10.667 -2.5 -27.334 -7.5 -50.001
s-11.833 -45.5 -20.5 -68.5s-20.167 -43 -34.5 -60s-31.166 -25.5 -50.499 -25.5c-30 0 -62.5 7.83301 -97.5 23.5s-67.5 36.5 -97.5 62.5s-54.833 54.667 -74.5 86s-29.5 63.333 -29.5 96z" />
    <glyph glyph-name="nine" unicode="9" horiz-adv-x="907" 
d="M51 614c0 -40.667 8.49902 -75.667 25.499 -105s39.167 -52.833 66.5 -70.5s58.166 -30.667 92.499 -39s68.5 -12.5 102.5 -12.5c28.667 0 59 3.5 91 10.5s61.333 18 88 33s48.5 35 65.5 60s25.5 55.5 25.5 91.5c-16.667 0 -31 -2.83301 -43 -8.5l-36.5 -17.5
c-12.333 -6 -25 -11.833 -38 -17.5s-28.5 -8.5 -46.5 -8.5c-16.667 0 -33.667 1.16699 -51 3.5s-33.166 6.83301 -47.499 13.5s-26 16.834 -35 30.501s-13.5 32.834 -13.5 57.501v614c0 8 4.83301 19 14.5 33s18.5 23.667 26.5 29h18c8 0 17.167 0.333008 27.5 1
s19.833 1 28.5 1h18c40.667 0 73.667 -4.83301 99 -14.5s44.833 -24.334 58.5 -44.001s23 -45.334 28 -77.001s8.16699 -69.167 9.5 -112.5v-35c0 -18 0.333008 -40.5 1 -67.5s1 -57.167 1 -90.5c0 -31.333 0.333008 -62.666 1 -93.999s1 -61.333 1 -90v-67
c0 -19.333 -0.333008 -45.666 -1 -78.999s-1 -66.666 -1 -99.999c0 -32.667 -0.333008 -62.334 -1 -89.001s-1 -42 -1 -46l-21 -123c-1.33301 -6.66699 -8.5 -11.667 -21.5 -15s-27.667 -5.33301 -44 -6s-31.166 -1 -44.499 -1h-23c-38 0 -71 3 -99 9s-54 15.5 -78 28.5
s-46.833 30.167 -68.5 51.5s-45.5 47 -71.5 77c-1.33301 0 -3.16602 0.333008 -5.49902 1s-4.16602 1 -5.49902 1c-10.667 0 -21.834 -8.16699 -33.501 -24.5s-17.5 -29.5 -17.5 -39.5v-225l21 -21l31 -3c20 -2 44.333 -4 73 -6l88 -6l74 -5h12
c6.66699 0 14.5 -0.333008 23.5 -1s17.5 -1 25.5 -1h19c39.333 0 75 7.5 107 22.5s62 34.167 90 57.5s54.333 50 79 80l74 88l11 17c4.66699 7.33301 9.16699 15.5 13.5 24.5s8.16602 17.333 11.499 25s5 12.834 5 15.501v942c0 48 -14.667 86.667 -44 116
s-64.5 52.166 -105.5 68.499s-84 27.166 -129 32.499s-82.5 8 -112.5 8c-42 0 -87 -13.333 -135 -40s-92.167 -60.5 -132.5 -101.5s-73.833 -85.333 -100.5 -133s-40 -92.834 -40 -135.501v-471z" />
    <glyph glyph-name="colon" unicode=":" horiz-adv-x="411" 
d="M23 180l79 -76l18.5 -18l18.5 -18l2 -2l27 -25l-4 -4c5.33301 -6.66699 10 -14.167 14 -22.5l12 -24.5l197 166l-178 184zM33 872l108 -122l-2 -2c22 -24.667 39 -50.667 51 -78l197 168l-178 184z" />
    <glyph glyph-name="semicolon" unicode=";" horiz-adv-x="409" 
d="M20 854c54.667 -38 94.168 -70.333 118.501 -97s43.166 -55.667 56.499 -87l196 168l-178 184zM45.001 147l148.001 -135.001c8 -8 12 -16.667 12 -26c0 -12 -1.66699 -24 -5 -36s-9.5 -25.5 -18.5 -40.5s-21.333 -32.333 -37 -52s-35.834 -43.167 -60.501 -70.5l31 -29
c74 74 135.333 148 184 222c50.667 70.667 76 126.334 76 167.001c0 12 -7.66699 25.667 -23 41l-151 129z" />
    <glyph glyph-name="less" unicode="&#x3c;" horiz-adv-x="1163" 
d="M39 205l184 -185.002c4 -4 16 -7.33301 36 -10s42.167 -5 66.5 -7s48.166 -3.66699 71.499 -5s40.666 -2 51.999 -2v45l-62 55.5c-23.333 20.333 -45.5 42.833 -66.5 67.5s-39 51 -54 79s-22.5 56.333 -22.5 85v614c0 12 6.83301 18.833 20.5 20.5s23.834 2.5 30.501 2.5
c10.667 0 20.5 -2.5 29.5 -7.5s17.5 -10.167 25.5 -15.5s16.167 -10.333 24.5 -15s16.5 -7 24.5 -7c1.33301 0 3 0.333008 5 1l4 1c2.66699 4 6.33398 10.667 11.001 20l15 30.5l15.5 31c5 9.66699 8.16699 16.5 9.5 20.5v-922c0 -24.667 10.167 -43.667 30.5 -57
s43.833 -23.5 70.5 -30.5s53.334 -11.167 80.001 -12.5s45.334 -2 56.001 -2s19.834 2 27.501 6s11.5 12.333 11.5 25c0 18 -3 34.333 -9 49s-13.167 29.5 -21.5 44.5s-15.5 30.5 -21.5 46.5s-9 34 -9 54v533c0 23.333 1.66699 46.166 5 68.499s9.16602 42 17.499 59
s20.333 31 36 42s35.834 16.5 60.501 16.5c6.66699 0 15.667 -0.333008 27 -1l18 -1c2.66699 -1.33301 5.66699 -5.33301 9 -12s6.66602 -14.5 9.99902 -23.5s6 -18 8 -27s3 -15.5 3 -19.5v-799c0 -1.33301 3.83301 -7 11.5 -17s14.167 -18 19.5 -24l21 -20h184
c2.66699 0 6 2.66699 10 8s7.33301 9.33301 10 12v11v10l-20 41c-2.66699 8 -6.83398 19.5 -12.501 34.5s-8.5 23.833 -8.5 26.5v861c0 4 -2.33301 10.333 -7 19s-10.334 17.834 -17.001 27.501s-13.5 17.834 -20.5 24.501s-12.5 10 -16.5 10h-287
c-1.33301 0 -4.33301 -2.66699 -9 -8s-8.33398 -9.33301 -11.001 -12l-20.5 -29.5c-11 -15.667 -17.833 -26.167 -20.5 -31.5v372c4 6.66699 11.167 20.334 21.5 41.001s16.833 34.334 19.5 41.001c1.33301 2.66699 2.33301 6.16699 3 10.5s1 7.83301 1 10.5h-260v-353
c-2.66699 0 -12.167 -0.333008 -28.5 -1s-35.166 -2.33398 -56.499 -5.00098s-42.5 -6.66699 -63.5 -12s-36.5 -13 -46.5 -23c-8 -6.66699 -21.833 -19.5 -41.5 -38.5l-62.5 -61.5l-61.5 -62.5l-39.5 -41.5c-2.66699 -2.66699 -6.66699 -9.5 -12 -20.5s-8 -17.833 -8 -20.5
v-635z" />
    <glyph glyph-name="equal" unicode="=" horiz-adv-x="825" 
d="M37 276c24.667 -4 38.3291 7.66895 40.9961 35.002c61.333 9.33301 115.833 16.166 163.5 20.499s89.5 6.5 125.5 6.5c35.333 1.33301 69.333 2 102 2h98l69 52.5c24 18.333 46.5 36.666 67.5 54.999s40 37 57 56s29.833 38.833 38.5 59.5c-8 9.33301 -15 14.333 -21 15
l-20 -16.5c-6.66699 -5.66699 -13.667 -11.167 -21 -16.5c-57.333 -26 -106.5 -43.5 -147.5 -52.5s-85.167 -13.5 -132.5 -13.5c-13.333 0 -31.666 0.666992 -54.999 2s-52.166 3.5 -86.499 6.5s-65.166 5.16699 -92.499 6.5s-51.666 2 -72.999 2l-40 -53.5l-40 -55.5
c-27.333 -36.667 -38.333 -73.667 -33 -111zM36.9951 584.002c24.667 -4 38.3301 7.33691 40.9971 34.0039c61.333 9.33301 115.833 16.166 163.5 20.499s89.5 6.5 125.5 6.5c35.333 1.33301 69.333 2 102 2h98l69 52.5c24 18.333 46.5 36.666 67.5 54.999
s40 37.166 57 56.499s29.833 39 38.5 59c-8 9.33301 -15 14.333 -21 15l-20 -16.5c-6.66699 -5.66699 -13.667 -11.167 -21 -16.5c-57.333 -26 -106.5 -43.5 -147.5 -52.5s-85.167 -13.5 -132.5 -13.5c-13.333 0 -31.666 0.833008 -54.999 2.5l-86.5 6.5
c-34.333 2.66699 -65.166 4.66699 -92.499 6s-51.666 2 -72.999 2l-40 -53.5l-40 -55.5c-27.333 -36.667 -38.333 -73.334 -33 -110.001z" />
    <glyph glyph-name="greater" unicode="&#x3e;" horiz-adv-x="1185" 
d="M41 266c0 -4 0.667969 -9.66797 2.00098 -17.001s3 -15.5 5 -24.5s4.33301 -17.333 7 -25s4.66699 -12.834 6 -15.501c24.667 -45.333 49.667 -80.833 75 -106.5s53 -44.667 83 -57s63.833 -20.166 101.5 -23.499s81.167 -5 130.5 -5v28l-58 53
c-23.333 22 -45.833 46 -67.5 72s-40.334 53 -56.001 81s-23.5 55 -23.5 81v615c0 6.66699 2.66699 11.667 8 15s11.833 5.33301 19.5 6s14.167 1 19.5 1h14c19.333 0 35.5 -3.66699 48.5 -11s27.5 -11 43.5 -11c5.33301 0 11.5 2.66699 18.5 8s13.167 11.333 18.5 18
s10.166 13.5 14.499 20.5s7.83301 11.833 10.5 14.5v-901c0 -1.33301 3.66699 -7.16602 11 -17.499s14 -18.166 20 -23.499c5.33301 -6.66699 13 -15.167 23 -25.5s15.667 -15.5 17 -15.5h211c0 18 -3.33301 34.833 -10 50.5s-14.5 31 -23.5 46s-16.833 31 -23.5 48
s-10 37.167 -10 60.5v553c0 16.667 3 35.5 9 56.5s14.833 41.333 26.5 61s25.667 36.334 42 50.001s34.833 20.5 55.5 20.5c16.667 0 30.667 -2.66699 42 -8s21.333 -17.666 30 -36.999c0 -5.33301 0.333008 -17.166 1 -35.499s1 -30.5 1 -36.5c0 -60 -12.667 -108 -38 -144
s-68 -66.333 -128 -91c0 -1.33301 -0.333008 -3 -1 -5s-1 -3.66699 -1 -5c0 -12 5 -21.5 15 -28.5s22.167 -13.667 36.5 -20l42 -18.5c13.667 -6 24.167 -14.333 31.5 -25c20.667 -32.667 32.667 -68.167 36 -106.5s4.33301 -77 3 -116s-1.66602 -78 -0.999023 -117
s8.33398 -76.167 23.001 -111.5c2.66699 -6.66699 6.5 -15.167 11.5 -25.5s8.16699 -15.5 9.5 -15.5h229c0 13.333 -3 27.666 -9 42.999s-13.167 30.833 -21.5 46.5s-16 31.667 -23 48s-11.167 31.833 -12.5 46.5c-5.33301 53.333 -8.33301 101.833 -9 145.5s-4 84 -10 121
s-17.833 71.833 -35.5 104.5s-47.167 66 -88.5 100c5.33301 4 13.833 11.833 25.5 23.5l37 37l37 37c11.667 11.667 19.5 20.167 23.5 25.5c16.667 19.333 24.5 40.666 23.5 63.999s-1.5 46.333 -1.5 69c0 39.333 -2.33301 72.166 -7 98.499s-23.334 51.5 -56.001 75.5h-18
c-8 0 -17.167 0.333008 -27.5 1s-19.833 1 -28.5 1h-18c-27.333 0 -53 -0.666992 -77 -2s-46.5 -5 -67.5 -11s-40.833 -16.167 -59.5 -30.5s-36 -34.5 -52 -60.5v348c0 18 8.5 33.5 25.5 46.5s28.833 24.833 35.5 35.5l1 4c0.666992 2.66699 1 4.66699 1 6
s-0.333008 3.66602 -1 6.99902l-1 4c-2.66699 2.66699 -6 6.66699 -10 12s-7.33301 8 -10 8h-256v-348c-48 -2.66699 -90.333 -9.5 -127 -20.5s-70.834 -26.667 -102.501 -47s-61.167 -45.5 -88.5 -75.5s-54.666 -64.333 -81.999 -103
c-2.66699 -4 -6.66699 -11.167 -12 -21.5s-8 -16.833 -8 -19.5v-553z" />
    <glyph glyph-name="question" unicode="?" horiz-adv-x="708" 
d="M14 1335l41.001 -34.998l164 152c9.33301 8 21 12 35 12c46.667 0 98.667 -49 156 -147c58.667 -96.667 88 -166.334 88 -209.001c0 -50.667 -54 -134 -162 -250s-162 -200 -162 -252c0 -19.333 10.667 -41.833 32 -67.5l77 -92.5l67 54
c-20.667 28.667 -36.334 52.5 -47.001 71.5s-16 36.167 -16 51.5c0 35.333 48.333 115.666 145 240.999l122 160l77 104c35.333 54.667 53 117 53 187c0 56 -26 107.667 -78 155c-52.667 49.333 -133 113 -241 191zM176.001 180.002l82 -100.001
c30 -29.333 54.667 -63.666 74 -102.999c34 12 65.333 31.5 94 58.5s62.667 62.833 102 107.5l-178 197z" />
    <glyph glyph-name="at" unicode="@" horiz-adv-x="1843" 
d="M43 526c0 -122.667 23.165 -238.002 69.498 -346.002s109.833 -201.833 190.5 -281.5s174.5 -142.667 281.5 -189s222.167 -69.5 345.5 -69.5v45c-116 0 -225.167 22.167 -327.5 66.5s-191.5 104.333 -267.5 180s-136.167 164.667 -180.5 267s-66.5 211.5 -66.5 327.5
s22.167 225.333 66.5 328s104.5 191.834 180.5 267.501s165.167 135.667 267.5 180s211.5 66.5 327.5 66.5s225.167 -22.167 327.5 -66.5s191.333 -104.333 267 -180s135.834 -164.834 180.501 -267.501s67 -212 67 -328c0 -23.333 -2.16699 -50.333 -6.5 -81
s-9.83301 -62 -16.5 -94s-14.167 -63.667 -22.5 -95s-16.5 -59.333 -24.5 -84h-535v746c4 5.33301 6.33301 12.666 7 21.999c0 15.333 -5.83301 29.333 -17.5 42s-26.5 19 -44.5 19h-240c-24.667 0 -49.834 -10.167 -75.501 -30.5s-49.5 -44.833 -71.5 -73.5
s-40.167 -59 -54.5 -91s-21.5 -59 -21.5 -81c0 -20.667 1.66699 -38.5 5 -53.5s8.83301 -28.333 16.5 -40s17.334 -23.167 29.001 -34.5s26.167 -24 43.5 -38c-45.333 -39.333 -81.5 -82.333 -108.5 -129s-40.5 -100.667 -40.5 -162c0 -31.333 2.66699 -63.666 8 -96.999
s15.166 -63.666 29.499 -90.999s33.833 -49.833 58.5 -67.5s56 -26.5 94 -26.5c46.667 0 84 5.33301 112 16s57 36.667 87 78c1.33301 -5.33301 4 -17.666 8 -36.999s7.33301 -31.666 10 -36.999c1.33301 -2.66699 4.16602 -6.33398 8.49902 -11.001s7.83301 -7 10.5 -7h168
l-14 135h532c2.66699 0 6.33398 1.66699 11.001 5s7.66699 6.33301 9 9l31 89c11.333 33.333 21.333 67.833 30 103.5s15.834 70.5 21.501 104.5s8.5 64.667 8.5 92c0 122.667 -23.333 237.667 -70 345s-110.167 201.333 -190.5 282s-174.166 144.167 -281.499 190.5
s-222.333 69.5 -345 69.5s-237.667 -23.167 -345 -69.5s-201.333 -109.833 -282 -190.5s-144.167 -174.5 -190.5 -281.5s-69.5 -222.167 -69.5 -345.5zM777.998 808.998c0 10.667 1.66797 23.8369 5.00098 39.5039s14.666 23.5 33.999 23.5h166v-571
c0 -16.667 -1 -35.834 -3 -57.501s-6.16699 -42 -12.5 -61s-15.833 -35 -28.5 -48s-29.334 -19.5 -50.001 -19.5c-49.333 -0.666992 -80.666 24.333 -93.999 75v170c0 23.333 1.33301 47.666 4 72.999s8.66699 42.666 18 51.999l148 148l1 3c0.666992 2 1 3.66699 1 5
c0 13.333 -10 23.166 -30 29.499s-41.5 14.333 -64.5 24s-44.5 22.667 -64.5 39s-30 41.5 -30 75.5z" />
    <glyph glyph-name="A" unicode="A" horiz-adv-x="1034" 
d="M55 1444c0 -13.333 3.1709 -33.0059 9.50391 -59.0059s15.333 -52.333 27 -79s25 -50 40 -70s31.167 -30 48.5 -30c2.66699 0 6.5 0.333008 11.5 1s8.16699 1 9.5 1c30 50.667 63.333 83.834 100 99.501s81.667 23.5 135 23.5c26 0 53.333 -1.33301 82 -4
s54.334 -8.83398 77.001 -18.501s41.5 -23.667 56.5 -42s22.5 -43.166 22.5 -74.499c0 -8 -0.333008 -20.667 -1 -38s-1 -26.666 -1 -27.999c0 -2.66699 -2.83301 -6.66699 -8.5 -12s-9.83398 -8 -12.501 -8h-262c0 19.333 3.5 35.5 10.5 48.5s14.833 25.5 23.5 37.5
s16.5 24.167 23.5 36.5s10.5 26.833 10.5 43.5c-32.667 0 -67.167 -8.5 -103.5 -25.5s-69.5 -39.5 -99.5 -67.5s-54.833 -59.167 -74.5 -93.5s-29.5 -68.5 -29.5 -102.5v-840c0 -13.333 -2.83301 -24.5 -8.5 -33.5s-11.834 -16.833 -18.501 -23.5s-14.5 -13.5 -23.5 -20.5
s-16.167 -15.167 -21.5 -24.5l-1 -4c-0.666992 -2.66699 -1 -4.66699 -1 -6s0.333008 -3.66602 1 -6.99902l1 -4c1.33301 -2.66699 4.66602 -6.66699 9.99902 -12s8.66602 -8 9.99902 -8h226c1.33301 0 4.66602 2.66699 9.99902 8s8.66602 9.33301 9.99902 12
c1.33301 4 4 10.5 8 19.5s7.5 18 10.5 27s5.83301 16.833 8.5 23.5s4 10.667 4 12v861h297v-799c0 -15.333 -3.5 -29.833 -10.5 -43.5s-14.5 -27 -22.5 -40s-15.5 -25.833 -22.5 -38.5s-10.5 -26.667 -10.5 -42h381c0 18 -4 34.5 -12 49.5s-17.167 29.333 -27.5 43
s-19.666 27.667 -27.999 42s-12.5 30.833 -12.5 49.5v1024c0 28.667 -4.66699 59.834 -14 93.501s-23 64.834 -41 93.501s-40.667 52.5 -68 71.5s-58 28.5 -92 28.5h-614c-12 0 -18.833 -7.16699 -20.5 -21.5s-2.5 -24.166 -2.5 -29.499z" />
    <glyph glyph-name="B" unicode="B" horiz-adv-x="993" 
d="M57 1495c0 -19.333 2.17285 -45.0088 6.50586 -77.0088s11.5 -63.667 21.5 -95s23.333 -58.666 40 -81.999s37 -35 61 -35c2.66699 0 6.5 0.333008 11.5 1s8.16699 1 9.5 1c18 28.667 36.833 51.667 56.5 69s40.667 30 63 38s46.5 13 72.5 15s54 3 84 3
c28.667 0 56 -1.66699 82 -5s49 -10.5 69 -21.5s35.667 -26.667 47 -47s17 -47.5 17 -81.5c0 -15.333 -3 -32.833 -9 -52.5s-16.667 -33.167 -32 -40.5l-286 -143c0 6.66699 -0.333008 20.334 -1 41.001s-1 34.334 -1 41.001c0 28.667 3.66699 53.167 11 73.5
s15.833 39.166 25.5 56.499s18.167 33.833 25.5 49.5s11 32.834 11 51.501c-24.667 0 -54.334 -8.16699 -89.001 -24.5s-68.334 -36.666 -101.001 -60.999s-60.334 -51.666 -83.001 -81.999s-34 -58.166 -34 -83.499v-820l-14 -27.5l-21.5 -43l-21.5 -44
c-6.66699 -13.667 -11.667 -23.167 -15 -28.5l-1 -4c-0.666992 -2.66699 -1 -4.66699 -1 -6s0.333008 -3.66602 1 -6.99902l1 -4l11.5 -12c5 -5.33301 8.16699 -8 9.5 -8h512c16.667 0 36.5 9.16699 59.5 27.5s47.167 42.5 72.5 72.5s50.666 62.833 75.999 98.5
s48.166 71.167 68.499 106.5s37 67.666 50 96.999s20.167 52.333 21.5 69v16c0 10.667 0.333008 23.334 1 38.001s1 29.334 1 44.001v35c0 45.333 -2.66699 86 -8 122s-14.833 69.667 -28.5 101s-32.834 61 -57.501 89s-55.334 57.333 -92.001 88
c40.667 35.333 75 71 103 107s42 82 42 138c0 16.667 -2 38.667 -6 66s-10.833 54.333 -20.5 81s-22.667 49.834 -39 69.501s-36.166 29.5 -59.499 29.5h-723zM260.006 157.991c0 2.66699 1 7.33496 3 14.002s3.66699 10.667 5 12l14.5 14.5l26 27
c9 9.66699 17.5 18.167 25.5 25.5s13.333 12.333 16 15l18.5 23.5c8.33301 10.333 12.5 16.166 12.5 17.499v512c0 8 5.5 14.833 16.5 20.5s23.667 10.167 38 13.5s28.333 5.66602 42 6.99902s22.5 2 26.5 2c45.333 0 83 -12.667 113 -38s54.167 -56.333 72.5 -93
s31.5 -76.5 39.5 -119.5s12 -82.833 12 -119.5c0 -87.333 -10.833 -154 -32.5 -200s-53 -78.833 -94 -98.5s-91.167 -30.5 -150.5 -32.5s-127.333 -3 -204 -3z" />
    <glyph glyph-name="C" unicode="C" horiz-adv-x="854" 
d="M53 307c0 -56 11.998 -103.834 35.998 -143.501s55.167 -71.667 93.5 -96s81.333 -42 129 -53s94.834 -16.5 141.501 -16.5c48 0 92.333 5.5 133 16.5s76.334 28.333 107.001 52s55 53.667 73 90s27 80.5 27 132.5c0 6 0.333008 13.667 1 23v9c0 6 -0.333008 12 -1 18
c-1.33301 8.66699 -4.5 16.167 -9.5 22.5s-12.833 9.5 -23.5 9.5c-16.667 0 -28.667 -11 -36 -33s-16.5 -46 -27.5 -72s-27.5 -49.833 -49.5 -71.5s-56 -32.5 -102 -32.5c-28.667 0 -57.667 4.33301 -87 13s-55.666 21.667 -78.999 39s-42.5 38.833 -57.5 64.5
s-22.5 55.834 -22.5 90.501v921c0 8 3.83301 14.833 11.5 20.5s16.5 10.167 26.5 13.5s20.167 5.66602 30.5 6.99902s18.166 2 23.499 2c19.333 0 40.5 -2.33301 63.5 -7s39.5 -16.667 49.5 -36c0 -6.66699 0.333008 -20.167 1 -40.5s1 -34.166 1 -41.499
c0 -31.333 -4.5 -61.666 -13.5 -90.999s-19 -58.333 -30 -87s-20.833 -57 -29.5 -85s-13 -56.333 -13 -85c0 -6.66699 1.33301 -18.5 4 -35.5s8.66699 -25.5 18 -25.5h236c0 4 -1 10.833 -3 20.5s-4.66699 19.834 -8 30.501s-6.83301 20.834 -10.5 30.501
s-6.83398 16.5 -9.50098 20.5c-1.33301 1.33301 -6 3 -14 5s-16.833 3.66699 -26.5 5s-18.667 3.16602 -27 5.49902s-13.166 4.16602 -14.499 5.49902l-1 10c-0.666992 6.66699 -1 12 -1 16c0 19.333 4.16699 38.833 12.5 58.5s18 39.5 29 59.5s22.5 38.5 34.5 55.5
s21.667 32.167 29 45.5l34.5 68l40 80l34 67.5c9.66699 19 14.5 29.167 14.5 30.5v82h-410c-2.66699 0 -9.5 -2.66699 -20.5 -8s-17.833 -9.33301 -20.5 -12l-91 -84.5c-33.333 -31.667 -64.333 -65.834 -93 -102.501s-53 -75.5 -73 -116.5s-30 -83.5 -30 -127.5v-737z" />
    <glyph glyph-name="D" unicode="D" horiz-adv-x="1011" 
d="M53 31c0 -1.33301 0.337891 -3.6709 1.00488 -7.00391l1 -4l11.5 -12c5 -5.33301 8.16699 -8 9.5 -8h512c15.333 0 35.166 7.5 59.499 22.5s50.166 34.5 77.499 58.5s54.666 51 81.999 81s52.166 60 74.499 90s40.333 59 54 87s20.5 51.667 20.5 71v798
c0 35.333 -6.83301 70.5 -20.5 105.5s-32.334 65.833 -56.001 92.5s-52 48.167 -85 64.5s-67.833 24.5 -104.5 24.5h-618c0 -23.333 1.33301 -44.166 4 -62.499s9.33398 -38.5 20.001 -60.5c5.33301 -12 12.5 -27.333 21.5 -46l27 -54.5l23.5 -45.5l10 -18h41
c31.333 52 66.5 85.833 105.5 101.5s85.833 23.5 140.5 23.5c78 0 138.5 -15.333 181.5 -46s71.167 -84.334 84.5 -161.001v-677c0 -19.333 -0.666992 -43.666 -2 -72.999s-5 -58.666 -11 -87.999s-15.833 -55.333 -29.5 -78s-33.5 -35.334 -59.5 -38.001
c-10.667 -1.33301 -30.834 -2.33301 -60.501 -3s-60.834 -1.33398 -93.501 -2.00098s-63.334 -1.33398 -92.001 -2.00098s-49 -1 -61 -1h-62c2.66699 4 8.16699 10.833 16.5 20.5s16.5 19.834 24.5 30.501s16.167 20.834 24.5 30.501s13.833 16.5 16.5 20.5
c8 10.667 18.5 26.334 31.5 47.001s19.5 32.334 19.5 35.001v799c18 19.333 32.5 39.5 43.5 60.5s16.5 45.167 16.5 72.5c-45.333 0 -85.333 -12 -120 -36s-64 -54 -88 -90s-43.167 -74.833 -57.5 -116.5s-24.166 -80.167 -29.499 -115.5c0 -22 0.333008 -60 1 -114
s1 -111.667 1 -173s-0.333008 -119 -1 -173s-1 -92 -1 -114c0 -26 -0.333008 -48.167 -1 -66.5s-2.5 -34.666 -5.5 -48.999s-7.16699 -28.333 -12.5 -42s-12.666 -29.5 -21.999 -47.5l-62 -102l-1 -4c-0.666992 -2.66699 -1 -4.66699 -1 -6z" />
    <glyph glyph-name="E" unicode="E" horiz-adv-x="843" 
d="M53 266c0 -52 12.3311 -95.332 36.998 -129.999s55.5 -62.167 92.5 -82.5s77.667 -34.666 122 -42.999s86.833 -12.5 127.5 -12.5c48 0 93.833 4.83301 137.5 14.5s81.834 25.667 114.501 48s59 52 79 89s30 83.5 30 139.5c0 19.333 -2.5 34.333 -7.5 45
s-17.5 16 -37.5 16c-12 0 -21.5 -9.83301 -28.5 -29.5s-17 -41.167 -30 -64.5s-31.833 -44.833 -56.5 -64.5s-61 -29.5 -109 -29.5c-22 0 -46.167 1.66699 -72.5 5s-50.833 10.5 -73.5 21.5s-41.5 25.667 -56.5 44s-22.5 43.166 -22.5 74.499v410h287
c16.667 0 28.667 -7.16699 36 -21.5s14 -30.333 20 -48s13.5 -33.667 22.5 -48s23.833 -21.5 44.5 -21.5v462c-18 0 -31.167 -4.66699 -39.5 -14s-15.166 -20.833 -20.499 -34.5l-16 -40c-5.33301 -13 -14.333 -22.833 -27 -29.5
c-20.667 -10.667 -41.5 -17.834 -62.5 -21.501s-42.5 -5.5 -64.5 -5.5h-200v375l40 41h226c2.66699 0 9.5 -2.83301 20.5 -8.5s17.833 -9.83398 20.5 -12.501c5.33301 -4 13.833 -11.833 25.5 -23.5l37 -37l36.5 -36.5c11.333 -11.333 19.333 -20 24 -26h41v328h-390
c-13.333 0 -30.166 -7.5 -50.499 -22.5s-41.833 -34.833 -64.5 -59.5s-45.334 -51.667 -68.001 -81s-43.167 -58.333 -61.5 -87s-33.333 -55.667 -45 -81s-17.5 -44.666 -17.5 -57.999v-840z" />
    <glyph glyph-name="F" unicode="F" horiz-adv-x="911" 
d="M45 1444c0 -1.33301 0.332031 -3.33594 0.999023 -6.00293l1 -4c1.33301 -4 4.83301 -13.667 10.5 -29l18.5 -49.5l19 -50c6 -15.667 10.667 -27.5 14 -35.5c6.66699 -18 11.334 -29.667 14.001 -35s11.667 -8 27 -8c19.333 0 36.333 5.5 51 16.5
s29.167 23.167 43.5 36.5s29.333 25.5 45 36.5s33.834 16.5 54.501 16.5c2.66699 0 7.83398 -0.333008 15.501 -1s12.834 -1 15.501 -1c-52 -45.333 -92.667 -89.333 -122 -132s-44 -97.667 -44 -165c0 -23.333 0.333008 -45.833 1 -67.5s7.66699 -43.5 21 -65.5l32 -58
l47.5 -90.5l55 -106.5l55 -106.5l46 -91c13.667 -27 24.167 -46.833 31.5 -59.5c9.33301 -20.667 18.166 -38.167 26.499 -52.5s15.166 -27.5 20.499 -39.5s9.33301 -24.167 12 -36.5s4 -26.833 4 -43.5c0 -64 -29.333 -96 -88 -96c-26 0 -48.5 7.83301 -67.5 23.5
s-36 34.834 -51 57.501s-28.667 47.5 -41 74.5s-24.333 51.833 -36 74.5s-23.667 41.834 -36 57.501s-25.833 23.5 -40.5 23.5c-1.33301 0 -3.66602 -0.333008 -6.99902 -1l-4 -1c-2.66699 -1.33301 -6.66699 -4.66602 -12 -9.99902s-8 -8.66602 -8 -9.99902v-369l20 -41
c1.33301 0 6.83301 -0.333008 16.5 -1s21 -1.33398 34 -2.00098s25.833 -1 38.5 -1h32c49.333 0 100.666 2.66699 153.999 8s102.5 18.333 147.5 39s81.833 50.834 110.5 90.501s43 92.834 43 159.501c0 38 -7.16699 77.5 -21.5 118.5s-31 81 -50 120
s-39.5 76.167 -61.5 111.5s-39.667 66.666 -53 93.999v19c2.66699 0 9.33398 0.333008 20.001 1s17.667 1 21 1l31.5 -5c13 -2 26 -4.16699 39 -6.5s24.5 -4.5 34.5 -6.5s15.667 -3 17 -3c20.667 -8 32.667 -15 36 -21s5 -11.333 5 -16c0 -4 1.83301 -7.33301 5.5 -10
s15.5 -4 35.5 -4v256c0 2.66699 -2.66699 6 -8 10s-9.33301 7.66699 -12 11l-4 1c-2.66699 0.666992 -4.66699 1 -6 1s-3.66602 -0.333008 -6.99902 -1l-4 -1c-4 -2.66699 -11 -11.334 -21 -26.001s-16.667 -24 -20 -28c-6.66699 -1.33301 -18.5 -2.33301 -35.5 -3
s-35.333 -1.33398 -55 -2.00098l-56.5 -2c-18 -0.666992 -30.333 -1 -37 -1h-24c-24.667 0 -44.834 9.16699 -60.501 27.5s-28 40.5 -37 66.5s-15.167 52.667 -18.5 80s-5 50 -5 68c0 22 1.33301 44.167 4 66.5s8.83398 42.666 18.501 60.999s23 33.333 40 45
s39.167 17.5 66.5 17.5c31.333 0 58.166 -4.66699 80.499 -14s43.166 -22.666 62.499 -39.999s38.166 -37.166 56.499 -59.499s39.166 -46.5 62.499 -72.5c1.33301 0 4.33301 -0.333008 9 -1s8.33398 -1 11.001 -1c19.333 0 31 5.5 35 16.5s6 25.167 6 42.5v45l-5 63
l-6 73.5c-2 23.667 -4 44.5 -6 62.5l-3 27l-21 20h-737c-2.66699 0 -9.16699 -5.16699 -19.5 -15.5s-17.5 -18.833 -21.5 -25.5l-1 -3c-0.666992 -2 -1 -4.33301 -1 -7z" />
    <glyph glyph-name="G" unicode="G" horiz-adv-x="931" 
d="M66 440c0 -61.333 3.99902 -119.002 11.999 -173.002s25.333 -100.667 52 -140s64.5 -70.666 113.5 -93.999s114.5 -35 196.5 -35c46.667 0 94.834 10.833 144.501 32.5s95.334 51 137.001 88s75.834 79 102.501 126s40 95.167 40 144.5v655c0 4 -2.66699 9.5 -8 16.5
s-11.833 14 -19.5 21s-15.167 12.833 -22.5 17.5s-13 7 -17 7h-389c-8 0 -17.667 -7.83301 -29 -23.5s-22 -33.167 -32 -52.5s-19.167 -37.833 -27.5 -55.5s-13.166 -28.5 -14.499 -32.5v328c0 16.667 8.16699 29.334 24.5 38.001s35.166 15 56.499 19s42.333 6 63 6h40
c31.333 0 57 -2 77 -6s38.167 -10.833 54.5 -20.5s33 -22.667 50 -39l64.5 -59.5h62v287h-410c-18 0 -37.5 -7.83301 -58.5 -23.5s-42.833 -36.167 -65.5 -61.5s-45.167 -54 -67.5 -86s-42.333 -64 -60 -96s-32.334 -62.333 -44.001 -91s-18.834 -52.667 -21.501 -72
l-2 -307v-279c-2 -5.33301 -3 -10.333 -3 -15zM302.999 503.998l-0.000976562 28c0 42 1.33301 88.5 4 139.5s10.834 98 24.501 141s35.167 79.167 64.5 108.5s70.666 44 123.999 44h86c6.66699 -2.66699 11.334 -4.33398 14.001 -5.00098l5 -2
c2.66699 -1.33301 5 -5.66602 7 -12.999s3 -13.666 3 -18.999v-680c0 -23.333 -4.5 -41.833 -13.5 -55.5s-20.667 -23.834 -35 -30.501s-30 -11.5 -47 -14.5s-33.833 -4.5 -50.5 -4.5c-46.667 0 -82.5 12.333 -107.5 37s-43.333 55.5 -55 92.5s-18.5 76.667 -20.5 119
s-3 80.5 -3 114.5z" />
    <glyph glyph-name="H" unicode="H" horiz-adv-x="1048" 
d="M47 1116l1 -28.001c0.666992 -18 2.33398 -32.667 5.00098 -44c4 -23.333 10.5 -38.333 19.5 -45s20.167 -10 33.5 -10l50 2v-827c0 -15.333 -2.5 -29.5 -7.5 -42.5s-10.5 -26 -16.5 -39s-11.333 -25.833 -16 -38.5s-7 -27.334 -7 -44.001h344
c0 20.667 -3.5 39.834 -10.5 57.501s-14.833 35.334 -23.5 53.001s-16.5 35.834 -23.5 54.501s-10.5 38.667 -10.5 60v758h293v-840l3 -10c2 -6.66699 4.66699 -14.5 8 -23.5s6.83301 -17.833 10.5 -26.5l9.5 -22c0 -1.33301 2 -6.33301 6 -15s9.33301 -18.5 16 -29.5
s13 -16.5 19 -16.5h231c0 18 -4.16699 34.5 -12.5 49.5l-25.5 44l-25.5 44c-8.33301 15 -12.5 30.5 -12.5 46.5v1188c10.667 15.333 22.667 34.166 36 56.499s20 44.5 20 66.5h-338c0 -2.66699 0.666992 -6 2 -10s2 -7.33301 2 -10c1.33301 -2.66699 4 -9.16699 8 -19.5
l13 -32l13.5 -32c4.33301 -10.333 6.5 -16.833 6.5 -19.5v-248h-150h-82c-26 0 -43 0.666992 -51 2v267c0 2.66699 -5.16699 14.167 -15.5 34.5s-18.833 36.166 -25.5 47.499c-2.66699 2.66699 -6.33398 6.66699 -11.001 12s-7.66699 8 -9 8h-236c0 -18 3 -34.5 9 -49.5
s13.167 -29.667 21.5 -44s16.333 -29 24 -44s12.167 -30.5 13.5 -46.5v-29c0 -20.667 -0.666992 -44.667 -2 -72s-2.83301 -49.166 -4.5 -65.499s-2.5 -25.833 -2.5 -28.5h-100z" />
    <glyph glyph-name="I" unicode="I" horiz-adv-x="571" 
d="M27 1456c1.33301 -6.66699 5.00195 -18.5029 11.002 -35.5029s12.167 -35.5 18.5 -55.5l18.5 -56.5c6 -17.667 10.333 -29.834 13 -36.501c6.66699 -18 11.334 -30 14.001 -36s11.667 -9 27 -9c18 0 33.833 5.83301 47.5 17.5s27 23.834 40 36.501s27 24.834 42 36.501
s33.167 17.5 54.5 17.5c2.66699 0 6.16699 -0.333008 10.5 -1s7.83301 -1 10.5 -1c-9.33301 -10.667 -20.5 -26.334 -33.5 -47.001s-25.333 -42.167 -37 -64.5s-21.667 -44.166 -30 -65.499s-12.5 -37.333 -12.5 -48v-1006c-2.66699 -2.66699 -6.33398 -8 -11.001 -16
s-9.83398 -16.167 -15.501 -24.5s-10.834 -16.5 -15.501 -24.5s-7.66699 -13.667 -9 -17c-1.33301 -1.33301 -2.33301 -4.33301 -3 -9s-1 -8.33398 -1 -11.001h336c0 2.66699 -0.333008 6.33398 -1 11.001s-1.66699 7.66699 -3 9
c-2.66699 6.66699 -9.16699 20.334 -19.5 41.001s-17.5 34.334 -21.5 41.001v1170l20 46c8 18.667 15.833 38.167 23.5 58.5s13.834 41 18.501 62s7 40.5 7 58.5h-479c-1.33301 0 -4.33301 -2.66699 -9 -8s-8.33398 -9.33301 -11.001 -12v-11v-10z" />
    <glyph glyph-name="J" unicode="J" horiz-adv-x="794" 
d="M57 1454c2.66699 -8 8.16504 -23.333 16.498 -46l26 -72l25.5 -71.5c8 -22.333 14 -37.5 18 -45.5c2.66699 -1.33301 9.83398 -2.5 21.501 -3.5s18.834 -1.5 21.501 -1.5c23.333 0 41.5 5.83301 54.5 17.5s26.667 24.667 41 39s32.833 27.666 55.5 39.999
s55 18.5 97 18.5c4 0 10.5 -0.333008 19.5 -1s18.167 -1 27.5 -1c10.667 0 20.5 -0.333008 29.5 -1s15.5 -1 19.5 -1c-4 -4 -12.167 -13.5 -24.5 -28.5s-24.5 -31.667 -36.5 -50s-22.833 -36.166 -32.5 -53.499s-14.5 -30.666 -14.5 -39.999v-895
c0 -12 -0.333008 -25.5 -1 -40.5s-3 -29 -7 -42s-10.5 -24.333 -19.5 -34s-21.167 -14.5 -36.5 -14.5c-24.667 0 -44.834 7.5 -60.501 22.5s-29.167 33.833 -40.5 56.5s-21.833 47.167 -31.5 73.5s-19.667 50.833 -30 73.5s-23 41.5 -38 56.5s-33.5 22.5 -55.5 22.5
c-18 0 -29.667 -4.33301 -35 -13s-8 -21.334 -8 -38.001v-37c1.33301 -23.333 2.33301 -53 3 -89s1 -72 1 -108c0 -34 0.5 -63.167 1.5 -87.5s1.5 -37.5 1.5 -39.5l22 -20c1.33301 0 7.83301 -0.333008 19.5 -1s24.334 -1.33398 38.001 -2.00098l40 -2
c13 -0.666992 22.833 -1 29.5 -1c52 0 105 5.16699 159 15.5s103.167 28 147.5 53s80.5 58.333 108.5 100s42 94.834 42 159.501v960c8 12 16.833 27 26.5 45s18.5 36.5 26.5 55.5s15.167 38.333 21.5 58s9.5 38.5 9.5 56.5h-678c-1.33301 0 -4.5 -2.66699 -9.5 -8
l-11.5 -12v-11v-12z" />
    <glyph glyph-name="K" unicode="K" horiz-adv-x="1026" 
d="M53 1464c0 -1.33301 0.332031 -3.33691 0.999023 -6.00391l1 -4c1.33301 -5.33301 6.16602 -14.166 14.499 -26.499l26 -40c9 -14.333 16.833 -28.666 23.5 -42.999s10 -25.5 10 -33.5v-1188c-1.33301 -2.66699 -4.66602 -8.16699 -9.99902 -16.5
s-10.833 -16.5 -16.5 -24.5s-11.167 -16.167 -16.5 -24.5s-8.66602 -13.833 -9.99902 -16.5l-1 -4c-0.666992 -2.66699 -1 -4.66699 -1 -6s0.333008 -3.66602 1 -6.99902l1 -4c1.33301 -2.66699 4.66602 -6.66699 9.99902 -12s8.66602 -8 9.99902 -8h334
c0 22 -5.16699 44.167 -15.5 66.5s-20.833 41.166 -31.5 56.499v553c0 16.667 5.83301 35.834 17.5 57.501s26 41.667 43 60s35.667 34 56 47s39.5 19.5 57.5 19.5c22 0 38.833 -11.5 50.5 -34.5s20.5 -49.667 26.5 -80s10 -60.166 12 -89.499s3 -50 3 -62
c0 -19.333 1 -52.166 3 -98.499l6.5 -147.5l6.5 -148.5c2 -47 3.66699 -79.5 5 -97.5l41 -82c2.66699 -2.66699 6.33398 -6.66699 11.001 -12s7.66699 -8 9 -8h225c2.66699 0 6.16699 2.66699 10.5 8s7.83301 9.33301 10.5 12l1 4c0.666992 3.33301 1 5.66602 1 6.99902
c0 13.333 -5.16699 28.833 -15.5 46.5l-34 55.5c-12.333 19.333 -23.5 38.833 -33.5 58.5s-15.667 37.834 -17 54.501c-1.33301 12 -2.5 29.667 -3.5 53s-1.5 50 -1.5 80v98v103v198c-6.66699 57.333 -25.667 109.333 -57 156s-66.666 90.334 -105.999 131.001v20l68.5 80
c26.333 30 51.5 62.167 75.5 96.5s44.167 69.5 60.5 105.5s24.5 72 24.5 108h-360c0 -20.667 3.66699 -39.5 11 -56.5s15.5 -33.833 24.5 -50.5s17.167 -33.834 24.5 -51.501s11 -36.5 11 -56.5c0 -30 -11.833 -64.833 -35.5 -104.5s-51.667 -79 -84 -118
s-64.5 -74.5 -96.5 -106.5s-56.333 -55.667 -73 -71v553c0 22 -7.5 38.833 -22.5 50.5s-32.667 20.167 -53 25.5s-40.833 8 -61.5 8h-47h-20c-9.33301 0 -19.5 -0.333008 -30.5 -1s-21.5 -1 -31.5 -1h-20c-2.66699 -1.33301 -6.5 -4.33301 -11.5 -9
s-8.16699 -8.33398 -9.5 -11.001l-1 -5c-0.666992 -2.66699 -1 -4.66699 -1 -6z" />
    <glyph glyph-name="L" unicode="L" horiz-adv-x="894" 
d="M49 31c0 -1.33301 0.335938 -3.66211 1.00293 -6.99512l1 -4l11.5 -12c5 -5.33301 8.16699 -8 9.5 -8h676c13.333 0 26.166 9.5 38.499 28.5s23.666 41.5 33.999 67.5s18.5 53 24.5 81s9 50.333 9 67c0 39.333 -9.83301 74.666 -29.5 105.999
s-41.167 60.666 -64.5 87.999s-44.833 54.333 -64.5 81s-29.5 55 -29.5 85c0 12 5 20.833 15 26.5s21.167 9.5 33.5 11.5s24.333 2.66699 36 2s19.5 -1 23.5 -1c0 15.333 -2.66699 35.166 -8 59.499s-13.333 48.5 -24 72.5s-23 44.5 -37 61.5s-30 25.5 -48 25.5
c-36.667 0 -69 -12.667 -97 -38s-42 -57 -42 -95c0 -35.333 6.83301 -69 20.5 -101s28.334 -63.5 44.001 -94.5s30.334 -62.5 44.001 -94.5s20.5 -65.667 20.5 -101c0 -42 -6.5 -75 -19.5 -99s-31 -41.5 -54 -52.5s-50.333 -17.833 -82 -20.5s-65.834 -4 -102.501 -4h-133
l23.5 22.5c11.667 11 23.667 23.333 36 37s24 28 35 43s17.833 29.167 20.5 42.5c0 26 -0.333008 68.667 -1 128s-1.33398 125.166 -2.00098 197.499s-1 145.5 -1 219.5v197v118c0 9.33301 1.33301 25 4 47s6 45 10 69l11 66.5
c3.33301 20.333 5.66602 34.166 6.99902 41.499c0 1.33301 2.16699 6 6.5 14s8.83301 16.833 13.5 26.5s9 18.167 13 25.5s6.66699 12.5 8 15.5s2.33301 6.5 3 10.5s1 7.33301 1 10h-376c0 -2.66699 0.333008 -6 1 -10s1.66699 -7.33301 3 -10l41 -62l12 -23.5
c5.33301 -10.333 8 -16.166 8 -17.499v-1165c0 -12 -3.66699 -26.333 -11 -43s-15.833 -32.834 -25.5 -48.501l-28 -44c-9 -13.667 -14.833 -23.167 -17.5 -28.5l-1 -4c-0.666992 -2.66699 -1 -4.66699 -1 -6z" />
    <glyph glyph-name="M" unicode="M" horiz-adv-x="1519" 
d="M55 1493c0 -19.333 5.49609 -39.5029 16.4961 -60.5029s23.667 -42.167 38 -63.5l41 -63.5c13 -21 21.5 -40.5 25.5 -58.5c1.33301 -19.333 2 -48.666 2 -87.999v-131v-555v-39c0 -45.333 -1.33301 -91.166 -4 -137.499s-13.667 -90.5 -33 -132.5
c-4 -9.33301 -9.66699 -20.5 -17 -33.5l-23.5 -41c-8.33301 -14.333 -15.166 -29.5 -20.499 -45.5s-8 -30.667 -8 -44h233c10.667 0 22.5 9.16699 35.5 27.5s25.333 39.166 37 62.499s21.334 46.333 29.001 69s11.5 38 11.5 46v1022c0 16.667 4.33301 31.334 13 44.001
s19.5 23.5 32.5 32.5s27.333 15.833 43 20.5s30.5 7 44.5 7c36.667 0 59.5 -11.833 68.5 -35.5s13.5 -53.5 13.5 -89.5v-1083c-10.667 -15.333 -21.167 -34.166 -31.5 -56.499s-15.5 -44.5 -15.5 -66.5h358c0 2.66699 -0.333008 6.33398 -1 11.001s-1.66699 7.66699 -3 9
c-1.33301 2.66699 -3.66602 8.16699 -6.99902 16.5s-7.5 16.666 -12.5 24.999s-9.5 16.5 -13.5 24.5l-8 16c-10.667 86 -17 172.5 -19 259.5s-3 172.5 -3 256.5v541c0 34 6.33301 62 19 84s30 39.5 52 52.5s46.667 22.167 74 27.5s55.333 8 84 8h8
c27.333 0 50.166 -2.66699 68.499 -8s27.5 -24.333 27.5 -57c0 -34 -7.83301 -60.667 -23.5 -80s-43.167 -40 -82.5 -62v-899c0 -12 3 -30.667 9 -56s13.833 -50.333 23.5 -75s20.667 -46.5 33 -65.5s24.5 -28.5 36.5 -28.5h254c0 22 -6.16699 42.833 -18.5 62.5
s-26.333 39.5 -42 59.5l-45 59.5c-14.333 19.667 -22.833 41.167 -25.5 64.5c-4 28.667 -6 56.667 -6 84v753c5.33301 26 15.5 50.667 30.5 74l44 67.5c14.333 21.667 27.333 43.5 39 65.5s17.5 45.333 17.5 70c0 12 -2.66699 25.833 -8 41.5s-12.5 30 -21.5 43
s-20 24.333 -33 34s-26.833 14.5 -41.5 14.5h-369c-5.33301 0 -13.166 -5.5 -23.499 -16.5s-21 -23.667 -32 -38s-20.833 -28.333 -29.5 -42l-17 -26.5l-1 1c-0.666992 0.666992 -1 1.66699 -1 3c-2.66699 8 -7.16699 18.833 -13.5 32.5s-13.666 26.667 -21.999 39
s-17.833 23.333 -28.5 33s-23 14.5 -37 14.5h-266c-9.33301 0 -19.833 -6.5 -31.5 -19.5s-22.334 -27.667 -32.001 -44s-18.167 -32.333 -25.5 -48s-11.666 -26.167 -12.999 -31.5c-10.667 5.33301 -19.5 15.833 -26.5 31.5l-21 48c-7 16.333 -14.5 31 -22.5 44
s-19 19.5 -33 19.5h-250z" />
    <glyph glyph-name="N" unicode="N" horiz-adv-x="1030" 
d="M61 1495l70.001 -225.003v-1164c-13.333 -13.333 -24.833 -28.833 -34.5 -46.5s-14.5 -36.167 -14.5 -55.5h369c0 1.33301 -0.333008 4.83301 -1 10.5s-2 9.16699 -4 10.5l-15 23.5l-24.5 37.5l-25.5 37.5l-16 23.5v1000c0 32.667 9.5 60 28.5 82s42.167 39 69.5 51
s56.333 20.5 87 25.5s57.667 7.5 81 7.5h102c12 -4 18.833 -11.5 20.5 -22.5s2.5 -21.167 2.5 -30.5c0 -22 -6.83301 -39.167 -20.5 -51.5s-29 -24 -46 -35s-32.333 -23 -46 -36s-20.5 -30.5 -20.5 -52.5v-839c0 -36.667 7.5 -76.667 22.5 -120
s34.833 -78.666 59.5 -105.999c5.33301 -1.33301 15.166 -3 29.499 -5s29.666 -4 45.999 -6s31.333 -4 45 -6s23.834 -3 30.501 -3h10h11c6.66699 1.33301 20.167 4.33301 40.5 9s33.833 8.33398 40.5 11.001c0 1.33301 0.5 4.5 1.5 9.5s1.5 8.83301 1.5 11.5
c0 18 -5.83301 35.167 -17.5 51.5s-24 32.333 -37 48s-25.333 32 -37 49s-17.5 35.833 -17.5 56.5v901c10.667 9.33301 23.167 21.5 37.5 36.5s28.333 31 42 48s25 34.833 34 53.5s13.5 37.334 13.5 56.001c0 12 -2.66699 25.667 -8 41s-12.5 29.833 -21.5 43.5
s-20 25.334 -33 35.001s-26.167 14.5 -39.5 14.5h-390c-1.33301 0 -4.33301 -2.83301 -9 -8.5s-8.33398 -9.83398 -11.001 -12.501c-4 -6.66699 -10.833 -17.5 -20.5 -32.5l-31 -49l-30.5 -50.5c-9.33301 -16 -16 -26.667 -20 -32c-1.33301 5.33301 -4.16602 19 -8.49902 41
s-10.166 45.333 -17.499 70s-15.833 46.5 -25.5 65.5s-19.834 28.5 -30.501 28.5h-222z" />
    <glyph glyph-name="O" unicode="O" 
d="M55 659c0 -40.667 1.00195 -84.8379 3.00195 -132.505s5.83301 -96.167 11.5 -145.5s13.667 -96.833 24 -142.5s24 -86.334 41 -122.001s37.667 -64 62 -85s53.833 -31.5 88.5 -31.5h286c19.333 0 44 13 74 39s60.667 56.667 92 92s60 71.5 86 108.5s44.667 66.5 56 88.5
v716c0 32.667 -1.83301 74.334 -5.5 125.001s-12.667 100.334 -27 149.001s-36.5 90.334 -66.5 125.001s-72.333 52 -127 52h-471c-12 0 -24.5 -10.167 -37.5 -30.5s-25 -44.5 -36 -72.5s-20.167 -56.333 -27.5 -85s-11 -51.334 -11 -68.001c30 0 58.667 4.83301 86 14.5
s54.166 20.667 80.499 33s53.166 23.166 80.499 32.499s57.666 14 90.999 14c66.667 0 122.834 -12.667 168.501 -38s71.834 -74.666 78.501 -147.999c2.66699 -27.333 4 -52.666 4 -75.999v-70v-489c-1.33301 -5.33301 -2 -11.333 -2 -18v-21v-115
c0 -27.333 -1.66699 -53.833 -5 -79.5s-10.166 -48.834 -20.499 -69.501s-24 -37.5 -41 -50.5s-39.833 -19.5 -68.5 -19.5c-35.333 0 -67 6.83301 -95 20.5s-51.833 31.834 -71.5 54.501s-35.334 49.334 -47.001 80.001s-18.167 62.334 -19.5 95.001v629
c0 26 3.33301 50.167 10 72.5s14.167 43.833 22.5 64.5s15.833 40.5 22.5 59.5s10 38.167 10 57.5c-61.333 0 -111.5 -15 -150.5 -45s-69.333 -67.5 -91 -112.5s-36.334 -94.167 -44.001 -147.5s-11.5 -103.333 -11.5 -150v-35c0 -15.333 -0.333008 -33.166 -1 -53.499
s-1 -43.5 -1 -69.5z" />
    <glyph glyph-name="P" unicode="P" horiz-adv-x="944" 
d="M49 1489l682.007 -0.000976562c22 0 43.167 -6.5 63.5 -19.5s38.333 -28.667 54 -47s29 -38.5 40 -60.5s18.5 -41 22.5 -57v-627c0 -9.33301 -2 -21.166 -6 -35.499s-9 -29.5 -15 -45.5s-12.5 -30.333 -19.5 -43s-12.5 -22 -16.5 -28
c-1.33301 -2.66699 -11.833 -15.167 -31.5 -37.5l-68.5 -80l-80 -93.5l-66 -75l-20 -21h-164c-16.667 0 -27.667 -7.33301 -33 -22c-2.66699 -6.66699 -4.33398 -15.167 -5.00098 -25.5s-1 -16.166 -1 -17.499v-146c0 -22 0.666992 -42.833 2 -62.5
s3.33301 -36.834 6 -51.501l72 -84c1.33301 -2.66699 2.66602 -9.5 3.99902 -20.5s2 -17.833 2 -20.5h-360c0 22 6.5 44.167 19.5 66.5s24.833 40.833 35.5 55.5v359h-111v51l113 123v655c0 20.667 10.833 42.334 32.5 65.001s48 43.167 79 61.5s62.5 33.666 94.5 45.999
s57.667 18.5 77 18.5c0 -13.333 -3.16699 -24.166 -9.5 -32.499s-13.5 -16.333 -21.5 -24s-15.167 -15.167 -21.5 -22.5s-9.5 -17.333 -9.5 -30v-717c0 -2.66699 9.16699 -6.33398 27.5 -11.001s32.5 -7.66699 42.5 -9c2.66699 0 15.167 -0.333008 37.5 -1
s39.166 -1 50.499 -1c6.66699 0 20.167 0.333008 40.5 1s34.166 1 41.499 1c8 2.66699 14.667 9.16699 20 19.5s9.5 21 12.5 32s5.16699 21.5 6.5 31.5s2 16.333 2 19v676c0 30 -7.5 54.667 -22.5 74s-33.833 34 -56.5 44s-47.334 16.833 -74.001 20.5s-51 5.5 -73 5.5
c-27.333 0 -52.833 -1.5 -76.5 -4.5s-45.834 -8.5 -66.501 -16.5s-39.5 -20.167 -56.5 -36.5s-32.167 -38.166 -45.5 -65.499c-1.33301 0 -4.5 -0.333008 -9.5 -1s-8.83301 -1 -11.5 -1c-20.667 0 -39.167 11.167 -55.5 33.5s-29.833 48.5 -40.5 78.5
s-18.834 59.667 -24.501 89s-8.5 51.666 -8.5 66.999z" />
    <glyph glyph-name="Q" unicode="Q" horiz-adv-x="921" 
d="M43 332c0 -53.333 8.5 -100.495 25.5 -141.495s40.833 -75.5 71.5 -103.5s67.167 -49.167 109.5 -63.5s88.166 -21.5 137.499 -21.5h23c9.33301 0 18.5 0.333008 27.5 1s16.833 1 23.5 1h12c2.66699 0 9.16699 2 19.5 6s21 8.83301 32 14.5s21.5 10.5 31.5 14.5
s16.333 6 19 6c13.333 1.33301 24.333 -1 33 -7s15.334 -14.167 20.001 -24.5s7.66699 -21 9 -32s2 -20.5 2 -28.5c0 -23.333 -4.5 -39.5 -13.5 -48.5s-19.167 -15.833 -30.5 -20.5s-21.5 -9.83398 -30.5 -15.501s-13.5 -15.167 -13.5 -28.5
c0 -16.667 5.16699 -29.334 15.5 -38.001s22.666 -15 36.999 -19s29.333 -6.33301 45 -7s28.834 -1 39.501 -1c52 0 94.333 13.333 127 40s49 68.667 49 126c0 24.667 -7.83301 49.167 -23.5 73.5s-32.667 46.166 -51 65.499s-35 35.833 -50 49.5s-22.5 22.5 -22.5 26.5
c0 2.66699 0.333008 5.33398 1 8.00098l1 4c5.33301 18 14.833 35.5 28.5 52.5l42 50c14.333 16.333 26.666 32.666 36.999 48.999s15.5 34.166 15.5 53.499v901c0 24.667 -5.83301 50.334 -17.5 77.001s-26.667 50.834 -45 72.501s-40.166 39.667 -65.499 54
s-51 21.5 -77 21.5h-492c-2.66699 0 -7.33398 -6.16699 -14.001 -18.5l-23.5 -45c-9 -17.667 -17.5 -35.667 -25.5 -54s-14.333 -33.833 -19 -46.5c-2.66699 -6.66699 -5.33398 -21.667 -8.00098 -45s-4 -38.333 -4 -45c18 0 35.5 3.5 52.5 10.5s33.333 15.167 49 24.5
s31.334 19.166 47.001 29.499s31.834 18.833 48.501 25.5h22c12 0 25 0.333008 39 1s26.333 1 37 1h25c30 0 60 -1 90 -3s56.167 -8.5 78.5 -19.5s40.666 -27.667 54.999 -50s21.5 -53.5 21.5 -93.5v-839c0 -22 -4.66699 -45.333 -14 -70s-25 -42.334 -47 -53.001
c-10.667 5.33301 -18.5 14.166 -23.5 26.499s-9.5 24.333 -13.5 36s-9 21.834 -15 30.501s-16 13 -30 13c-19.333 0 -31.333 -8.83301 -36 -26.5s-7 -33.834 -7 -48.501c0 -19.333 1.33301 -34.833 4 -46.5s9 -27.167 19 -46.5c-1.33301 0 -4.5 -0.333008 -9.5 -1
s-8.83301 -1 -11.5 -1c-36.667 0 -65.667 11.667 -87 35s-37.666 51.333 -48.999 84s-18.833 66.834 -22.5 102.501s-5.5 65.167 -5.5 88.5v43c0 26 -0.333008 55.667 -1 89s-1 67 -1 101v84v318c4 19.333 11.167 37.666 21.5 54.999l32 52c11 17.333 20.5 34.5 28.5 51.5
s12 33.5 12 49.5c-39.333 0 -77.833 -7.5 -115.5 -22.5s-71.5 -35.667 -101.5 -62s-54.167 -57 -72.5 -92s-27.5 -72.833 -27.5 -113.5v-676z" />
    <glyph glyph-name="R" unicode="R" horiz-adv-x="1046" 
d="M53 1495c0 -31.333 4.83203 -58.9951 14.499 -82.9951s21.167 -51 34.5 -81c4 -9.33301 9.5 -20.833 16.5 -34.5s13.5 -27 19.5 -40s12 -24.5 18 -34.5l8 -14h41c23.333 31.333 44.833 55.666 64.5 72.999s39.667 29.666 60 36.999s43.5 11.666 69.5 12.999s57 2 93 2h8
c4 0 9.66699 0.333008 17 1s16 1 26 1c16.667 0 35.167 -0.666992 55.5 -2s39 -4.33301 56 -9s31.667 -11.5 44 -20.5s18.5 -20.167 18.5 -33.5v-144c0 -1.33301 -5.5 -7.66602 -16.5 -18.999l-39 -41c-15 -16 -30.667 -31.5 -47 -46.5s-30.166 -27.167 -41.499 -36.5
l-35.5 -28.5l-55 -44c-19.667 -15.667 -38.5 -30 -56.5 -43s-30.333 -22.167 -37 -27.5v194c0 23.333 0.666992 46 2 68s6.33301 43.667 15 65c8 20.667 15 34.5 21 41.5s11.5 12.167 16.5 15.5s8.83301 8 11.5 14s4 18.667 4 38c-34 0 -67.5 -7.83301 -100.5 -23.5
s-63.167 -36.5 -90.5 -62.5s-49.833 -55.333 -67.5 -88s-27.834 -65.334 -30.501 -98.001v-676c0 -32.667 -2.66699 -62.667 -8 -90s-11.5 -54 -18.5 -80s-13.167 -51.667 -18.5 -77s-8 -52.333 -8 -81h340c0 22 -5.16699 44.167 -15.5 66.5s-20.833 41.166 -31.5 56.499
v553c0 9.33301 5.66699 21.166 17 35.499s26 28 44 41s36.167 24.333 54.5 34s34.833 14.5 49.5 14.5c12 0 24.333 -3.5 37 -10.5s24.167 -15.833 34.5 -26.5s19.166 -22.167 26.499 -34.5s11 -23.5 11 -33.5v-594c4 -4 8.5 -11.5 13.5 -22.5s10.5 -22.5 16.5 -34.5
s12.667 -22.5 20 -31.5s15.333 -13.5 24 -13.5h231c0 24.667 -4 48.5 -12 71.5s-17.5 46.5 -28.5 70.5s-21.333 48 -31 72s-15.167 48.333 -16.5 73v430c0 2.66699 -0.666992 7.66699 -2 15s-3 15.5 -5 24.5s-4.33301 17.333 -7 25l-6 17.5
c-2.66699 6.66699 -9.5 18.5 -20.5 35.5l-35 54.5l-34 53.5c-10.333 16.333 -15.5 26.5 -15.5 30.5c0 1.33301 0.333008 3 1 5s1 3.66699 1 5c54.667 35.333 99.5 74.833 134.5 118.5s52.5 99.834 52.5 168.501c0 28.667 -4.83301 56.667 -14.5 84
s-23.667 51.166 -42 71.499s-40.166 37 -65.499 50s-53.666 19.5 -84.999 19.5h-705z" />
    <glyph glyph-name="S" unicode="S" 
d="M47 0l594.005 -0.000976562c2.66699 0 9.16699 5.16699 19.5 15.5s17.5 18.833 21.5 25.5c57.333 82 106.166 164.333 146.499 247s60.5 174.334 60.5 275.001v113c-10.667 45.333 -34.167 81.5 -70.5 108.5s-78 49.833 -125 68.5s-96.833 34.834 -149.5 48.501
s-100.5 30 -143.5 49s-78.833 42.833 -107.5 71.5s-43 67 -43 115c0 57.333 16.667 104.333 50 141s78.666 55 135.999 55c38 0 68 -8.83301 90 -26.5s40.833 -37 56.5 -58l45 -58.5c14.333 -18 33.166 -27 56.499 -27c13.333 0 27.666 12 42.999 36
s28.666 51.667 39.999 83s20.833 62.666 28.5 93.999s11.5 54.666 11.5 69.999c0 5.33301 -0.666992 14.833 -2 28.5s-8.33301 20.5 -21 20.5h-430c-2.66699 0 -9.5 -2.66699 -20.5 -8s-17.833 -9.33301 -20.5 -12c-31.333 -31.333 -61.666 -64.166 -90.999 -98.499
s-55.5 -70.333 -78.5 -108s-41.667 -77.334 -56 -119.001s-21.5 -85.5 -21.5 -131.5c0 -66.667 18.333 -121.667 55 -165s82.334 -79.666 137.001 -108.999s113 -53.833 175 -73.5s117.667 -38.5 167 -56.5c42 -31.333 70 -62 84 -92s21 -68.667 21 -116
c0 -31.333 -5.16699 -61.5 -15.5 -90.5s-24.833 -55 -43.5 -78s-40.834 -41.333 -66.501 -55s-54.834 -20.5 -87.501 -20.5c-44 0 -79 9.83301 -105 29.5s-48.5 41.167 -67.5 64.5l-54 64.5c-17 19.667 -38.5 29.5 -64.5 29.5c-10.667 0 -20.5 -0.666992 -29.5 -2
s-16.167 -8 -21.5 -20l-103 -267v-61z" />
    <glyph glyph-name="T" unicode="T" horiz-adv-x="970" 
d="M33 1444c0 -23.333 4.33594 -46.3369 13.0029 -69.0039s18.5 -45.167 29.5 -67.5s21 -44.166 30 -65.499s13.5 -42.666 13.5 -63.999c0 -8 -2.5 -14.5 -7.5 -19.5s-10.167 -9.83301 -15.5 -14.5s-10.333 -9.83398 -15 -15.501s-7 -13.167 -7 -22.5
c0 -19.333 4.66699 -31.333 14 -36s23 -7 41 -7c26 0 45.833 7.16699 59.5 21.5s23.5 32.333 29.5 54s10 44.834 12 69.501s5.5 48 10.5 70s12.667 40.167 23 54.5s26.166 21.5 47.499 21.5h15c6.66699 0 13.667 -0.666992 21 -2s14.166 -3.83301 20.499 -7.5
s9.5 -8.16699 9.5 -13.5v-1208c-4 -6.66699 -11.167 -20.334 -21.5 -41.001s-16.833 -34.334 -19.5 -41.001l-1 -4c-0.666992 -2.66699 -1 -4.66699 -1 -6s0.333008 -3.66602 1 -6.99902l1 -4c1.33301 -2.66699 1.33301 -6.66699 0 -12v-8h309
c1.33301 0 4.83301 2.66699 10.5 8s9.16699 9.33301 10.5 12v11v10c-2.66699 6.66699 -9.16699 20.334 -19.5 41.001s-17.5 34.334 -21.5 41.001v1208c0 12 7.83301 18.833 23.5 20.5s26.167 2.5 31.5 2.5c9.33301 0 19.5 -0.666992 30.5 -2s17.833 -8.33301 20.5 -21
c1.33301 -9.33301 2.33301 -28.666 3 -57.999s3.83398 -59.333 9.50098 -90s15 -58.334 28 -83.001s32.167 -37 57.5 -37c19.333 0 35.5 1.66699 48.5 5s19.5 16 19.5 38c0 9.33301 -2.33301 16.833 -7 22.5s-9.83398 10.834 -15.501 15.501s-10.834 9.33398 -15.501 14.001
s-7 11.334 -7 20.001c0 20.667 4.5 41.167 13.5 61.5s18.833 40.666 29.5 60.999s20.5 41.5 29.5 63.5s13.5 45.333 13.5 70c0 5.33301 -0.333008 13.166 -1 23.499s-1 16.166 -1 17.499l-41 20h-840c-12 0 -18.667 -7.16699 -20 -21.5s-2 -24.166 -2 -29.499z" />
    <glyph glyph-name="U" unicode="U" horiz-adv-x="1026" 
d="M59 1260c19.333 0 37.1719 3.67285 53.5049 11.0059s32.333 15.833 48 25.5s32.5 18.167 50.5 25.5s38.333 11 61 11l62 -2c-57.333 -50.667 -103.833 -102.834 -139.5 -156.501s-60.834 -117.5 -75.501 -191.5v-317v-252c0 -53.333 3.33301 -105.333 10 -156
s20 -95.834 40 -135.501s48.333 -71.667 85 -96s85 -36.5 145 -36.5c24.667 0 50 2 76 6s50 11.167 72 21.5s41.5 25 58.5 44s28.833 43.5 35.5 73.5c1.33301 -4 5.16602 -11.833 11.499 -23.5s12.5 -24.334 18.5 -38.001s12 -26.334 18 -38.001s10.333 -19.5 13 -23.5
l11.5 -12c5 -5.33301 8.16699 -8 9.5 -8h225c2.66699 0 6.16699 2.66699 10.5 8s7.83301 9.33301 10.5 12l1 4c0.666992 2.66699 1 5 1 7c0 20.667 -4.5 40.167 -13.5 58.5s-18.667 36.666 -29 54.999s-19.833 37.333 -28.5 57s-13 41.167 -13 64.5v1114
c10.667 15.333 21.167 34.166 31.5 56.499s15.5 44.5 15.5 66.5h-361c0 -10.667 3.16699 -21.5 9.5 -32.5s13.5 -22 21.5 -33s16.5 -21.333 25.5 -31s16.167 -18.5 21.5 -26.5c1.33301 -10.667 2 -26.334 2 -47.001v-70v-936c-4 -15.333 -10 -32.333 -18 -51
s-17.833 -36.667 -29.5 -54s-25.334 -31.666 -41.001 -42.999s-33.834 -17 -54.501 -17c-18 0 -36.167 4 -54.5 12s-35.333 18.5 -51 31.5s-28.334 28.333 -38.001 46s-14.5 36.167 -14.5 55.5v786c0 38 9.33301 75.167 28 111.5s38.5 72 59.5 107l59 100.5
c18.333 32 27.5 62.333 27.5 91h-376c-10.667 0 -21.667 -9.5 -33 -28.5s-21 -41.5 -29 -67.5s-14.833 -52.333 -20.5 -79s-8.5 -46.667 -8.5 -60z" />
    <glyph glyph-name="V" unicode="V" horiz-adv-x="972" 
d="M35 1464c0 -18 3.99805 -36.5029 11.998 -55.5029s17.167 -38.333 27.5 -58s20 -39.667 29 -60s14.167 -40.833 15.5 -61.5c0 -6.66699 2.66699 -19 8 -37s8 -38.667 8 -62v-249v-80v-119v-139c0 -49.333 0.333008 -96.166 1 -140.499s1 -84.166 1 -119.499
c0 -34 0.666992 -60 2 -78c5.33301 -19.333 13.166 -41 23.499 -65s23.333 -46.167 39 -66.5s33.834 -37.666 54.501 -51.999s43.334 -21.5 68.001 -21.5h245c31.333 -0 62.833 11.333 94.5 34s61.167 50 88.5 82s51.5 65.667 72.5 101s36.833 65.333 47.5 90
c4 70.667 6.33301 143.667 7 219v744c5.33301 28.667 13.5 57.667 24.5 87s16.5 59 16.5 89c0 5.33301 -0.833008 14.833 -2.5 28.5s-8.5 20.5 -20.5 20.5h-410c-16.667 0 -32 -7.5 -46 -22.5s-26.167 -32.333 -36.5 -52s-19.166 -38.5 -26.499 -56.5
s-11.666 -29 -12.999 -33l-82 164h-226c-1.33301 0 -4.33301 -2.66699 -9 -8s-8.33398 -9.33301 -11.001 -12l-1 -5c-0.666992 -2.66699 -1 -4.66699 -1 -6zM361.998 681.997l0.00292969 86.001v338c1.33301 9.33301 4.83301 25.333 10.5 48s13.334 45.5 23.001 68.5
s20.167 43.5 31.5 61.5s24.666 27 39.999 27h266l-71 -123v-983c0 -12 -4.83301 -22.167 -14.5 -30.5s-21.334 -15 -35.001 -20s-27.334 -8.5 -41.001 -10.5s-24.5 -3 -32.5 -3c-39.333 0 -70.333 10.333 -93 31s-39.834 46.667 -51.501 78s-19.5 64.666 -23.5 99.999
s-6 69 -6 101v41c0 26 -0.5 55.667 -1.5 89s-1.5 67 -1.5 101z" />
    <glyph glyph-name="W" unicode="W" horiz-adv-x="1527" 
d="M57 51c0 -1.33301 0.329102 -3.33398 0.996094 -6.00098l1 -4c4 -6.66699 11.167 -15.167 21.5 -25.5s16.833 -15.5 19.5 -15.5h430c10.667 0 23.667 7.5 39 22.5s29.833 32.667 43.5 53s26.334 40.833 38.001 61.5s19.5 36.334 23.5 47.001
c4 -10.667 10.833 -26.334 20.5 -47.001s20.5 -41.167 32.5 -61.5s26 -38 42 -53s32 -22.5 48 -22.5h287c12 0 27.667 6.5 47 19.5s39.833 30 61.5 51s43.834 44.833 66.501 71.5s42.834 53 60.501 79s32.334 50.333 44.001 73s17.5 40.667 17.5 54v922l48.5 89
c17 32 25.5 63.667 25.5 95c0 6.66699 -1.16699 15.167 -3.5 25.5s-8.83301 15.5 -19.5 15.5h-430c-2.66699 0 -9.5 -2.66699 -20.5 -8s-17.833 -9.33301 -20.5 -12c-4 -4 -9.83301 -11.833 -17.5 -23.5l-24.5 -37l-24.5 -37
c-7.66699 -11.667 -12.834 -20.167 -15.501 -25.5c-2.66699 10.667 -6.66699 24.167 -12 40.5s-12.166 32 -20.499 47s-18 28 -29 39s-24.5 16.5 -40.5 16.5h-287c-2.66699 0 -9.16699 -5.16699 -19.5 -15.5s-17.5 -18.833 -21.5 -25.5l-13.5 -20.5
c-6.33301 -9.66699 -12.5 -20 -18.5 -31s-12 -21.167 -18 -30.5s-9.66699 -16 -11 -20c-1.33301 5.33301 -4.5 15.833 -9.5 31.5s-11.167 31.667 -18.5 48s-15.5 31 -24.5 44s-18.833 19.5 -29.5 19.5h-232c0 -19.333 4.5 -37.166 13.5 -53.499s19 -32.333 30 -48
s20.833 -32 29.5 -49s13 -35.167 13 -54.5v-1003c0 -27.333 -6.5 -52 -19.5 -74s-27 -42.833 -42 -62.5l-42 -54.5c-13 -16.667 -19.5 -31.667 -19.5 -45zM304.996 183.999l113 144v880c0 2.66699 2.66699 9.5 8 20.5s11.5 22.667 18.5 35s14.5 23.333 22.5 33
s15.333 14.5 22 14.5h185v-922c0 -9.33301 -3.16699 -25.333 -9.5 -48s-14.833 -45.5 -25.5 -68.5s-23.5 -43.5 -38.5 -61.5s-31.5 -27 -49.5 -27h-246zM898.996 327.999l0.00195312 859.998c0 8 3.83301 18.833 11.5 32.5s16.5 27.334 26.5 41.001
s20.833 25.334 32.5 35.001s22.167 14.5 31.5 14.5h252c0 -2.66699 -0.666992 -6.16699 -2 -10.5s-2.66602 -7.83301 -3.99902 -10.5c-2.66699 -4 -7.33398 -9.66699 -14.001 -17l-21.5 -24.5l-21.5 -25c-6.66699 -7.66699 -11.334 -12.834 -14.001 -15.501v-983
c0 -12 -4.83301 -23.167 -14.5 -33.5s-21.334 -19.166 -35.001 -26.499s-27.667 -13.166 -42 -17.499s-26.166 -6.5 -35.499 -6.5c-23.333 0 -43.833 6.16699 -61.5 18.5s-33.334 28.166 -47.001 47.499s-24 39.5 -31 60.5s-10.5 41.167 -10.5 60.5z" />
    <glyph glyph-name="X" unicode="X" horiz-adv-x="1015" 
d="M51 1497c0 -2.66699 0.671875 -6 2.00488 -10s2.66602 -7.33301 3.99902 -10l81 -130.5c24 -40.333 46.333 -81 67 -122s40.5 -84 59.5 -129s38.833 -95.5 59.5 -151.5c-36.667 -4 -67.334 -20 -92.001 -48s-37 -59.667 -37 -95h184l-219 -656l-103 -122l-1 4
c-0.666992 2.66699 -1 3.33398 -1 2.00098s0.333008 -3.66602 1 -6.99902l1 -4l11.5 -12c5 -5.33301 8.16699 -8 9.5 -8h338c0 19.333 -4.16699 35.5 -12.5 48.5s-16.833 25.167 -25.5 36.5s-17.167 23.833 -25.5 37.5s-12.5 31.5 -12.5 53.5
c0 36.667 2.66699 70.834 8 102.501s12.5 63.5 21.5 95.5s20 64.333 33 97l43.5 106c2.66699 -2.66699 6.5 -9.33398 11.5 -20.001l9.5 -20.001l143 -390c1.33301 -5.33301 5.83301 -15.833 13.5 -31.5s16.667 -31.667 27 -48s20.833 -31 31.5 -44s21 -19.5 31 -19.5h256
c0 2.66699 -1 9.5 -3 20.5s-4.66699 17.833 -8 20.5c-19.333 34 -36 60.667 -50 80s-26.833 37.833 -38.5 55.5s-23.334 37.334 -35.001 59.001s-24.834 52.5 -39.501 92.5l-46 123.5l-54.5 147.5l-45 125c-12.333 34.667 -18.5 52.667 -18.5 54v21h164
c2.66699 0 6.66699 2.66699 12 8s8 9.33301 8 12c0 4 0.666992 11.5 2 22.5s2.33301 22.333 3 34l2 34c0.666992 11 1 18.5 1 22.5h-225c0 5.33301 -1.66699 17.166 -5 35.499s-4.33301 30.5 -3 36.5c2.66699 9.33301 7.66699 25.666 15 48.999s15.5 47.833 24.5 73.5
l25 73.5c7.66699 23.333 13.5 39.666 17.5 48.999c4 10.667 9.66699 17.167 17 19.5s16 3.5 26 3.5c12 0 21.5 -4.5 28.5 -13.5s12.833 -19 17.5 -30s10 -20.833 16 -29.5s15.333 -13 28 -13c1.33301 0 3.33301 0.333008 6 1l4 1c2.66699 1.33301 6.5 4.33301 11.5 9
s8.16699 8.33398 9.5 11.001c2.66699 8 7 22.667 13 44l18.5 68l17.5 68.5c5.33301 21.667 9.33301 36.834 12 45.501c1.33301 4 2.66602 14.167 3.99902 30.5s2 26.5 2 30.5h-287l-108 -328h-21c-4 9.33301 -10.667 27.166 -20 53.499s-19.5 53.5 -30.5 81.5l-31 79.5
l-20.5 52.5c0 1.33301 -2 6.33301 -6 15s-9.5 18.5 -16.5 29.5s-13.167 16.5 -18.5 16.5h-293z" />
    <glyph glyph-name="Y" unicode="Y" horiz-adv-x="913" 
d="M63 727c0 -53.333 6.50293 -103.165 19.5029 -149.498s33.167 -87 60.5 -122s61.833 -62.333 103.5 -82s91.167 -29.5 148.5 -29.5h62c22 0 43.5 1 64.5 3s39.833 8.66699 56.5 20v-84c0 -22 -1.83301 -43 -5.5 -63s-9.83398 -37.5 -18.501 -52.5
s-21.167 -26.833 -37.5 -35.5s-36.833 -13 -61.5 -13c-35.333 0 -66.833 6.16699 -94.5 18.5s-53.667 28 -78 47s-47.5 41.167 -69.5 66.5l-66 75c-1.33301 0 -4.33301 0.333008 -9 1s-8.33398 1 -11.001 1c-6.66699 0 -15.167 -1 -25.5 -3s-15.5 -8.66699 -15.5 -20v-287
l41 -41c1.33301 0 7.5 -0.333008 18.5 -1s23.167 -1 36.5 -1c15.333 0 30.833 -0.333008 46.5 -1s28.167 -1 37.5 -1c48 0 99.667 1.16699 155 3.5s108.166 10.666 158.499 24.999s95.333 37.166 135 68.499s69.167 75.666 88.5 132.999c1.33301 10.667 3.33301 30.667 6 60
s5 60.5 7 93.5s3.66699 63.833 5 92.5s2 49 2 61v61c0 27.333 0.333008 58.5 1 93.5s1 72.167 1 111.5v123v121c0 40.667 -0.333008 78.5 -1 113.5s-1 65.5 -1 91.5v63c5.33301 24.667 13.5 51.667 24.5 81s16.5 57 16.5 83v21c-53.333 12 -108.666 19.333 -165.999 22
s-113.333 4 -168 4c0 -16.667 2.5 -32 7.5 -46s10.5 -27.5 16.5 -40.5s11.5 -26.333 16.5 -40s7.5 -28.167 7.5 -43.5v-840c0 -5.33301 -4.16699 -9.33301 -12.5 -12s-17.666 -4.66699 -27.999 -6s-20.5 -2.33301 -30.5 -3s-17.333 -1 -22 -1
c-38 0 -68.667 8.16699 -92 24.5s-41 37.5 -53 63.5s-20.167 55 -24.5 87s-6.5 63 -6.5 93l45 522v134l-43 82c-2.66699 2.66699 -6.33398 6.66699 -11.001 12s-7.66699 8 -9 8h-205c-1.33301 0 -4.33301 -2.66699 -9 -8s-8.33398 -9.33301 -11.001 -12v-11
c0 -39.333 7.16699 -77.166 21.5 -113.499s21.5 -75.5 21.5 -117.5z" />
    <glyph glyph-name="Z" unicode="Z" horiz-adv-x="921" 
d="M51 504c0 49.333 5.50098 99.1621 16.501 149.495s29.167 96 54.5 137s58.166 74.5 98.499 100.5s89.166 39 146.499 39c0 -13.333 -5.5 -27.666 -16.5 -42.999s-24 -30.166 -39 -44.499l-44 -43c-14.333 -14.333 -24.166 -27.5 -29.499 -39.5
c-18 -34 -29.333 -74 -34 -120s-7 -88 -7 -126c0 -39.333 3.66699 -79.833 11 -121.5s19.833 -79.667 37.5 -114s41.5 -62 71.5 -83s68.333 -31.5 115 -31.5c48 0 86 13.333 114 40s49.5 59.334 64.5 98.001s24.833 80 29.5 124s7 83.667 7 119
c0 135.333 -28.333 238.833 -85 310.5s-151 114.834 -283 129.501c0 1.33301 -0.5 3 -1.5 5s-1.5 3.66699 -1.5 5c0 4 11.667 19.667 35 47l80 92.5c30 34.333 58 68.166 84 101.499s42.333 59 49 77c0 2.66699 -0.666992 6 -2 10s-2 7.33301 -2 10h-221
c-19.333 0 -33.666 -7.5 -42.999 -22.5s-18.833 -31.667 -28.5 -50s-20 -35 -31 -50s-26.5 -22.5 -46.5 -22.5h-15c-5.33301 0 -11 0.333008 -17 1s-11.5 2.66699 -16.5 6s-7.5 8.33301 -7.5 15v308h656c2.66699 0 9 -5.16699 19 -15.5s17.333 -18.833 22 -25.5v-11v-10
c-1.33301 -2.66699 -4.5 -9.5 -9.5 -20.5s-8.83301 -17.833 -11.5 -20.5l-41 -54l-61.5 -80l-61 -80c-19 -25.333 -32.833 -42.666 -41.5 -51.999c58.667 -34 107.834 -69.167 147.501 -105.5s71.5 -76 95.5 -119s41 -91.5 51 -145.5s15 -115.667 15 -185
c0 -53.333 -3 -105.333 -9 -156s-16.5 -99.167 -31.5 -145.5s-35.833 -90.666 -62.5 -132.999s-61 -81.166 -103 -116.499c-6.66699 -6.66699 -18 -15.167 -34 -25.5s-25.333 -15.5 -28 -15.5h-307c-2.66699 0 -9.5 2.66699 -20.5 8s-17.833 9.66602 -20.5 12.999
c-40.667 35.333 -74.334 70.333 -101.001 105s-47.834 71.5 -63.501 110.5s-26.667 80 -33 123s-9.5 90.5 -9.5 142.5z" />
    <glyph glyph-name="a" unicode="a" horiz-adv-x="765" 
d="M43 311c0 -35.333 2.99902 -71.501 8.99902 -108.501s17 -70.833 33 -101.5s37.5 -55.5 64.5 -74.5s61.833 -28.5 104.5 -28.5c26 0 48.833 1.33301 68.5 4s38 7.5 55 14.5s33.5 17.333 49.5 31s32 31.834 48 54.501c1.33301 -6.66699 4.5 -20.167 9.5 -40.5
s8.83301 -34.166 11.5 -41.499c1.33301 -2.66699 4.33301 -6.66699 9 -12s8.33398 -8 11.001 -8h186l-18 238v804c0 19.333 -5.5 38.166 -16.5 56.499s-27.5 27.5 -49.5 27.5h-266c-27.333 0 -55.333 -11.167 -84 -33.5s-55.167 -49.5 -79.5 -81.5
s-44.5 -65.833 -60.5 -101.5s-24 -65.834 -24 -90.501c0 -23.333 1.83301 -43.166 5.5 -59.499s9.5 -31 17.5 -44s18.833 -25.667 32.5 -38s30.167 -26.5 49.5 -42.5c-50.667 -44 -91 -92 -121 -144s-45 -112 -45 -180zM247.999 912.999c0 12 1.99902 26.667 5.99902 44
s16.333 26 37 26h184v-635c0 -19.333 -1 -40.833 -3 -64.5s-6.83301 -46.167 -14.5 -67.5s-18.167 -39.166 -31.5 -53.499s-31.666 -21.5 -54.999 -21.5c-27.333 0 -50 7.5 -68 22.5s-30.333 35.5 -37 61.5v185c0 24.667 1.33301 52 4 82s9.66699 50.333 21 61l164 164l1 3
c0.666992 2 1 4.33301 1 7c0 13.333 -11 23.833 -33 31.5s-46 16.667 -72 27s-49.833 24.666 -71.5 42.999s-32.5 46.5 -32.5 84.5z" />
    <glyph glyph-name="b" unicode="b" horiz-adv-x="671" 
d="M66 143c0 -30 8.83203 -54.166 26.499 -72.499s39.5 -33 65.5 -44s53 -18.5 81 -22.5s52 -6 72 -6h45c15.333 0 29.5 1 42.5 3s24.833 8.33301 35.5 19l37 36l56.5 55.5l55 56.5l35.5 37c2.66699 2.66699 6.83398 9.5 12.501 20.5s8.5 17.833 8.5 20.5v798l-82 82h-205
c-5.33301 0 -12.5 -4 -21.5 -12s-17.5 -17.5 -25.5 -28.5s-15.5 -22.333 -22.5 -34s-11.167 -20.834 -12.5 -27.501v369c0 2.66699 2.83301 9 8.5 19l12.5 22l20 20l1 4c0.666992 2.66699 1 4.66699 1 6c0 12 -4.16699 20.167 -12.5 24.5s-17.833 6.5 -28.5 6.5h-22l-52 -5
c-21.333 -2 -41.5 -4 -60.5 -6s-35.5 -4 -49.5 -6l-22 -3v-1332zM269.999 205.001l-0.000976562 635.001c0 44 10.167 79.167 30.5 105.5s52.5 39.5 96.5 39.5h19c10.667 0 19.834 -2.33301 27.501 -7s11.5 -16.667 11.5 -36v-758c0 -15.333 -6.5 -29.666 -19.5 -42.999
s-27.167 -20 -42.5 -20c-8 0 -19.167 2.66699 -33.5 8s-28 12.166 -41 20.499s-24.333 17.166 -34 26.499s-14.5 19 -14.5 29z" />
    <glyph glyph-name="c" unicode="c" horiz-adv-x="669" 
d="M53 266c0 -46.667 7.50195 -87.002 22.502 -121.002s35.833 -61.833 62.5 -83.5s58.167 -38 94.5 -49s75.5 -16.5 117.5 -16.5l113 4c26 6.66699 49.5 20.667 70.5 42s38.667 45.333 53 72s25.333 55 33 85s11.5 57.333 11.5 82c-23.333 0 -42.166 -8.33301 -56.499 -25
s-27.666 -34.834 -39.999 -54.501s-26.333 -37.667 -42 -54s-35.834 -24.5 -60.501 -24.5c-56 0 -99 17 -129 51s-45 78.333 -45 133v656c0 10.667 5.5 17 16.5 19s21.833 3 32.5 3h21h2h26c9.33301 0 18.5 -1 27.5 -3s14.833 -8.33301 17.5 -19
c1.33301 -6.66699 4.5 -17.667 9.5 -33s9.5 -31.833 13.5 -49.5l11 -50c3.33301 -15.667 5.66602 -26.167 6.99902 -31.5l21 -2c19.333 0 37.833 11.833 55.5 35.5s33 52 46 85s23.5 65.333 31.5 97s12 55.834 12 72.501c0 6.66699 -1 14.834 -3 24.501
s-8.33301 14.5 -19 14.5h-287c-1.33301 0 -9.83301 -7.83301 -25.5 -23.5l-56.5 -56l-67.5 -67.5l-55.5 -57c-1.33301 -1.33301 -4.33301 -7.16602 -9 -17.499s-8.33398 -18.166 -11.001 -23.499c-2.66699 -6.66699 -6.83398 -18.334 -12.501 -35.001s-8.5 -25.667 -8.5 -27
v-553z" />
    <glyph glyph-name="d" unicode="d" horiz-adv-x="716" 
d="M59 205c0 -18 5.16992 -38.5029 15.5029 -61.5029s23.666 -45.167 39.999 -66.5s34.166 -39.5 53.499 -54.5s37.666 -22.5 54.999 -22.5h226c1.33301 0 8.83301 6.16699 22.5 18.5s29.334 27.333 47.001 45l52 54c17 18.333 30.833 33.833 41.5 46.5l11.5 17.5
c5 7.66699 9.5 15.834 13.5 24.501l11 24.5c3.33301 7.66699 5 12.834 5 15.501v1065c0 18 -6.5 36.5 -19.5 55.5s-28.667 36.667 -47 53s-38.333 29.666 -60 39.999s-40.834 15.5 -57.501 15.5h-397c0 -38 4.66699 -76.667 14 -116s21 -76 35 -110
c2.66699 -2.66699 9.5 -6.33398 20.5 -11.001s17.833 -7.66699 20.5 -9h10c10.667 0 20.5 5.5 29.5 16.5s19.667 23.333 32 37s27 25.834 44 36.501s39.833 16 68.5 16c32.667 0 61.334 -7.83301 86.001 -23.5s37 -43.167 37 -82.5v-1004
c0 -38 -6.16699 -64.833 -18.5 -80.5s-34.833 -23.5 -67.5 -23.5c-15.333 0 -30.166 3.33301 -44.499 10s-26.833 15.834 -37.5 27.501s-19.5 25 -26.5 40s-10.5 30.833 -10.5 47.5v717c0 2.66699 2.83301 6.33398 8.5 11.001s9.83398 7.66699 12.501 9
c5.33301 1.33301 14.5 3.33301 27.5 6s27.333 5 43 7l44 5.5c13.667 1.66699 23.167 2.5 28.5 2.5c8 16.667 13.833 30.667 17.5 42s5.5 25 5.5 41c0 24.667 -8.83301 37.667 -26.5 39s-36.834 2 -57.501 2c-31.333 0 -64.833 -8.83301 -100.5 -26.5
s-68.834 -39.834 -99.501 -66.501s-56.334 -55.667 -77.001 -87s-31 -60.666 -31 -87.999v-655z" />
    <glyph glyph-name="e" unicode="e" horiz-adv-x="694" 
d="M55 246c0 -44 10.001 -81.666 30.001 -112.999s45.667 -56.833 77 -76.5s65.333 -34.334 102 -44.001s73 -14.5 109 -14.5c83.333 0 148.5 26.333 195.5 79s70.5 121.334 70.5 206.001c-26 0 -44.167 -7.5 -54.5 -22.5s-20.833 -31.167 -31.5 -48.5
s-25.334 -33.5 -44.001 -48.5s-48.334 -22.5 -89.001 -22.5c-39.333 0 -69.666 8.16699 -90.999 24.5s-37.5 37.166 -48.5 62.499s-17.5 54 -19.5 86s-3 64 -3 96v20c0 9.33301 0.333008 19.5 1 30.5s1 21.5 1 31.5v20c23.333 -23.333 50.333 -39.666 81 -48.999
s61.667 -14 93 -14c18 0 38.5 3.33301 61.5 10s44.167 16.167 63.5 28.5s35.833 27.333 49.5 45s20.5 38.167 20.5 61.5v450c0 8 -2.83301 16.833 -8.5 26.5s-12.5 18.667 -20.5 27s-16.833 15.166 -26.5 20.499s-18.5 8 -26.5 8h-246c-16.667 0 -38.5 -12.5 -65.5 -37.5
s-53.833 -54 -80.5 -87s-50 -65.167 -70 -96.5s-30 -53 -30 -65v-594zM260.001 614.001v369.001h164c2.66699 0 6.33398 -7.83301 11.001 -23.5s7.66699 -28.167 9 -37.5v-17c0 -9.33301 0.333008 -20.5 1 -33.5s1 -26.5 1 -40.5v-32c0 -15.333 0.666992 -35.666 2 -60.999
v-13c0 -20.667 -2 -41 -6 -61c-5.33301 -24 -14.833 -45.167 -28.5 -63.5s-34.167 -27.5 -61.5 -27.5h-10c-6.66699 1.33301 -17.834 4.83301 -33.501 10.5s-25 9.16699 -28 10.5s-7.16699 4.66602 -12.5 9.99902s-8 8.66602 -8 9.99902z" />
    <glyph glyph-name="f" unicode="f" horiz-adv-x="462" 
d="M35 1022c0 -27.333 15 -40.998 45 -40.998h12c4 0 9.66699 0.666992 17 2v-922l71 -61h189c0 19.333 -6.83301 40.166 -20.5 62.499s-23.5 42.5 -29.5 60.5v860c-5.33301 -1.33301 -2.33301 -2 9 -2c19.333 0 34.333 4.5 45 13.5s18.834 20.333 24.501 34
s9.16699 29 10.5 46s2 32.833 2 47.5c-27.333 0 -55.666 1.33301 -84.999 4s-56.333 9.16699 -81 19.5s-45.167 25.833 -61.5 46.5s-24.5 48 -24.5 82c0 23.333 5.83301 42.833 17.5 58.5s30.167 23.5 55.5 23.5c13.333 0 24.166 -3.5 32.499 -10.5s16.333 -14.833 24 -23.5
s15.667 -16.5 24 -23.5s18.5 -10.5 30.5 -10.5c18 0 32.333 6.16699 43 18.5s19.167 27 25.5 44s10.833 35.167 13.5 54.5s4 35.666 4 48.999c0 6.66699 -1 15.167 -3 25.5s-8.33301 15.5 -19 15.5h-185c-2.66699 0 -9.83398 -5.5 -21.501 -16.5l-40 -39l-46 -47
c-15.667 -16.333 -27.5 -29.833 -35.5 -40.5c-19.333 -23.333 -31.333 -41.833 -36 -55.5s-7 -32.167 -7 -55.5s3.66699 -45.833 11 -67.5s11 -44.167 11 -67.5c0 -16.667 -3.66699 -31.167 -11 -43.5s-11 -25.833 -11 -40.5z" />
    <glyph glyph-name="g" unicode="g" horiz-adv-x="765" 
d="M59 -4l40.9961 -0.000976562c34 -39.333 75 -73.5 123 -102.5s99.333 -43.5 154 -43.5c18 0 35.833 2.83301 53.5 8.5s34 13.667 49 24s27.167 23.333 36.5 39s14 33.5 14 53.5c0 6.66699 -2.66699 17.334 -8 32.001s-11.666 29.834 -18.999 45.501
s-14.5 29.667 -21.5 42s-11.167 20.5 -12.5 24.5l-46.5 -30.5c-13 -8.33301 -25.833 -15 -38.5 -20s-27 -8.5 -43 -10.5s-34.667 -3 -56 -3c-28.667 0 -56.667 4.5 -84 13.5s-51.666 22 -72.999 39s-38.166 38.5 -50.499 64.5s-18.5 56 -18.5 90v615
c0 26 9.66699 51.5 29 76.5s42.333 48.5 69 70.5s53.667 41.5 81 58.5l67 41.5h103h67c18 0 37.5 -0.666992 58.5 -2s40.333 -4 58 -8s32.334 -10.5 44.001 -19.5s17.5 -20.167 17.5 -33.5v-758c0 -24.667 3.5 -48.834 10.5 -72.501l21.5 -71.5l21.5 -73
c7 -24.667 10.5 -50 10.5 -76c0 -27.333 -2.83301 -57.333 -8.5 -90s-15.334 -63 -29.001 -91s-32.667 -51.5 -57 -70.5s-55.166 -28.5 -92.499 -28.5h-471v266zM263.996 282.999c0 -31.333 8.83203 -53.166 26.499 -65.499s40.167 -18.5 67.5 -18.5
c16.667 0 35.167 2 55.5 6s34.833 16.333 43.5 37c2 26 3 50.333 3 73v17c-0.666992 27.333 -1 52.666 -1 75.999v485v43c0 6.66699 -0.333008 12.5 -1 17.5s-1.66699 10.167 -3 15.5c-1.33301 8 -6.16602 13 -14.499 15s-17.833 3 -28.5 3h-33
c-10 0 -16.333 0.666992 -19 2c-4 0 -10 -0.666992 -18 -2s-16.167 -2.33301 -24.5 -3s-19.166 -2.33398 -32.499 -5.00098c-2.66699 0 -6.83398 -2.66699 -12.501 -8s-8.5 -9.66602 -8.5 -12.999v-675z" />
    <glyph glyph-name="h" unicode="h" horiz-adv-x="770" 
d="M53 0l275 0.00585938c0 1.33301 -0.333008 4.66602 -1 9.99902s-1 8.66602 -1 9.99902c-1.33301 6.66699 -4.5 20.334 -9.5 41.001s-8.83301 34.334 -11.5 41.001v676c0 18 1.66699 39 5 63s9.83301 46.833 19.5 68.5s22.334 39.667 38.001 54s35.167 21.5 58.5 21.5h12
c6.66699 0 13.834 -0.333008 21.501 -1s14.5 -2.66699 20.5 -6s9 -8.33301 9 -15v-881c0 -2.66699 5.16699 -14.334 15.5 -35.001s18.833 -36.334 25.5 -47.001l11.5 -12c5 -5.33301 8.16699 -8 9.5 -8h188c0 34 -6.83301 67.667 -20.5 101s-21.834 67.666 -24.501 102.999
v826c1.33301 8 2 15.333 2 22c0 16 -3.33301 29.333 -10 40c-9.33301 16 -23 28 -41 36s-38.5 13 -61.5 15s-46.167 3 -69.5 3h-68c-36.667 0 -64.5 -8.5 -83.5 -25.5s-38.167 -42.5 -57.5 -76.5v29c0 15.333 -0.333008 31 -1 47s-1 31.667 -1 47v31v22
c0 30 0.333008 55.667 1 77s3 41.166 7 59.499s10.167 36.333 18.5 54s20.833 38.834 37.5 63.501l1 4c0.666992 2.66699 1 4.66699 1 6s-0.333008 3.16602 -1 5.49902s-1 4.16602 -1 5.49902c-8 1.33301 -22.667 3 -44 5s-44 4 -68 6s-46.833 4 -68.5 6
s-36.834 3 -45.501 3h-12h-8c-5.33301 -2.66699 -11.833 -6.33398 -19.5 -11.001s-11.5 -7.66699 -11.5 -9v-1373c-10.667 -15.333 -19.5 -31.333 -26.5 -48s-10.5 -34.667 -10.5 -54z" />
    <glyph glyph-name="i" unicode="i" horiz-adv-x="352" 
d="M41 1145c0 -20.667 2.5 -41.833 7.5 -63.5s10.833 -41.5 17.5 -59.5v-942c0 -19.333 5 -34.5 15 -45.5s23.167 -19.5 39.5 -25.5s34.5 -10 54.5 -12s39.333 -3 58 -3c16.667 0 31.834 0.333008 45.501 1s25.834 1 36.501 1c0 27.333 -5.33301 57 -16 89
s-20.334 57.667 -29.001 77v901c0 4 -2.33301 10.5 -7 19.5s-10.334 18.167 -17.001 27.5s-13.5 17.5 -20.5 24.5s-12.5 10.5 -16.5 10.5h-168zM63 1393c0 -32.667 6.83398 -59.999 20.501 -81.999s31.167 -39.167 52.5 -51.5s45.666 -20.833 72.999 -25.5s55.333 -7 84 -7
c0 6.66699 -1 21 -3 43s-4.83301 44.833 -8.5 68.5s-8.16699 45.167 -13.5 64.5s-11.333 29 -18 29h-164c-10.667 0 -17.167 -4.83301 -19.5 -14.5s-3.5 -17.834 -3.5 -24.501z" />
    <glyph glyph-name="j" unicode="j" horiz-adv-x="391" 
d="M12 -217c0 18 4.5 34.5029 13.5 49.5029s19 29.667 30 44s21.167 29 30.5 44s15.333 32.5 18 52.5c5.33301 45.333 9.5 89.166 12.5 131.499s4.5 83.833 4.5 124.5v121v62c0 20.667 1.33301 41.667 4 63v164v358c-1.33301 9.33301 -4.33301 20.666 -9 33.999
s-9.83398 26 -15.501 38s-10.5 24.167 -14.5 36.5s-6 24.166 -6 35.499h188c4 0 9.5 -3.5 16.5 -10.5s13.833 -15.167 20.5 -24.5s12.5 -18.5 17.5 -27.5s7.5 -15.5 7.5 -19.5v-1106c0 -24.667 -13 -47.5 -39 -68.5s-56.5 -39.167 -91.5 -54.5s-70.167 -27 -105.5 -35
s-62.666 -12 -81.999 -12zM115 1427c130 0 195.834 -4.66797 197.501 -14.001l6 -33.5c2.33301 -13 4.5 -26.333 6.5 -40l5 -34.5c1.33301 -4 2.33301 -15.333 3 -34s1 -30.667 1 -36c-36.667 0 -68.667 2.33301 -96 7s-50.333 14.167 -69 28.5s-32.334 33.833 -41.001 58.5
s-13 57.334 -13 98.001z" />
    <glyph glyph-name="k" unicode="k" horiz-adv-x="806" 
d="M57 0l294.996 0.00292969c0 12 -2.33301 23.5 -7 34.5l-15 34l-15.5 35c-5 11.667 -7.5 24.834 -7.5 39.501v635c0 19.333 3.16699 41 9.5 65s15.166 46.5 26.499 67.5s25.666 38.667 42.999 53s37.333 21.5 60 21.5c8 0 20.333 -0.333008 37 -1
s26.334 -7.66699 29.001 -21c0 -6.66699 0.333008 -20.334 1 -41.001s1 -34.334 1 -41.001c0 -39.333 -8.83301 -72.833 -26.5 -100.5s-37.167 -51 -58.5 -70l-58.5 -51c-17.667 -15 -26.5 -30.167 -26.5 -45.5c0 -2.66699 0.333008 -6.33398 1 -11.001
s1.66699 -7.66699 3 -9c38 -1.33301 70.333 -12.333 97 -33s42.334 -50.667 47.001 -90l40 -430l41 -41h209c0 13.333 -3 26.5 -9 39.5s-13.167 26 -21.5 39s-15.833 26.667 -22.5 41s-10.667 29.166 -12 44.499c-4 40.667 -6 85.667 -6 135
c0 50.667 -3.5 100.5 -10.5 149.5s-19.667 95.333 -38 139s-48.166 79.834 -89.499 108.501c50.667 42 87.667 82.667 111 122s35 91 35 155c0 6.66699 -0.333008 18.5 -1 35.5s-3 34 -7 51s-10.5 32.333 -19.5 46s-21.167 20.5 -36.5 20.5h-266c-8 0 -16.167 -5 -24.5 -15
s-16.166 -21.833 -23.499 -35.5s-14.166 -27.334 -20.499 -41.001s-10.833 -23.834 -13.5 -30.501v389c0 12 3.5 22.167 10.5 30.5s14.833 15.833 23.5 22.5s16.5 13.834 23.5 21.501s10.5 16.834 10.5 27.501h-283v-1413c-2.66699 -4 -7.66699 -13.833 -15 -29.5
s-12.666 -26.5 -15.999 -32.5c-1.33301 -1.33301 -2.33301 -4.33301 -3 -9s-1 -8.33398 -1 -11.001z" />
    <glyph glyph-name="l" unicode="l" horiz-adv-x="376" 
d="M59 127c0 -6.66699 1.16406 -17.168 3.49707 -31.501s5.83301 -28.666 10.5 -42.999s10.667 -26.666 18 -36.999s17.333 -15.5 30 -15.5h209c0 2.66699 -0.333008 6.33398 -1 11.001s-1.66699 7.83398 -3 9.50098s-4.16602 6.5 -8.49902 14.5s-8.83301 16.833 -13.5 26.5
s-9 18.167 -13 25.5s-6 12.333 -6 15c-1.33301 8 -2.66602 24.333 -3.99902 49s-2.5 51.334 -3.5 80.001s-1.5 56 -1.5 82v56v374v191v184c0 57.333 0.5 108.166 1.5 152.499s2.16699 78.166 3.5 101.499c10.667 15.333 21.834 34.166 33.501 56.499s17.5 44.5 17.5 66.5
h-271c-1.33301 -36.667 -2 -95.334 -2 -176.001v-270v-922z" />
    <glyph glyph-name="m" unicode="m" horiz-adv-x="1247" 
d="M57 1126c0 -22 5.16406 -44.1719 15.4971 -66.5049s20.833 -40.833 31.5 -55.5v-922c-9.33301 -10.667 -15.666 -23.167 -18.999 -37.5s-5 -29.166 -5 -44.499h293c0 27.333 -6.16699 58.333 -18.5 93s-20.5 65 -24.5 91v553c0 16.667 1.66699 39 5 67
s9.5 55.333 18.5 82s21 49.834 36 69.501s34.833 29.5 59.5 29.5h2h2h18c8 0 15.833 -0.666992 23.5 -2s14.5 -3.66602 20.5 -6.99902s9 -7.66602 9 -12.999v-922c0 -15.333 5.16699 -27.333 15.5 -36s23 -15 38 -19s30.333 -6.5 46 -7.5s29.167 -1.5 40.5 -1.5h96l11 11.5
c4.66699 5 7.66699 8.83301 9 11.5v10v10c-1.33301 2.66699 -3.66602 8.16699 -6.99902 16.5s-7.33301 16.666 -12 24.999l-13.5 24.5c-4.33301 8 -7.16602 13.333 -8.49902 16v717c0 19.333 2.83301 38.833 8.5 58.5s13.5 37.667 23.5 54s22.5 29.666 37.5 39.999
s32.833 15.5 53.5 15.5h4c15.333 0 28.833 -1.66699 40.5 -5s17.5 -16.666 17.5 -39.999v-881c0 -20.667 6.5 -36.667 19.5 -48s28 -19.333 45 -24s34.667 -7.83398 53 -9.50098s33.5 -2.5 45.5 -2.5l82 3c2.66699 1.33301 6.5 4.33301 11.5 9s8.16699 8.33398 9.5 11.001
v10v10c-1.33301 2.66699 -4.83301 8.16699 -10.5 16.5l-17.5 25l-18 24.5c-6 8 -9.66699 13.333 -11 16c-4 49.333 -6.83301 93.833 -8.5 133.5s-2.5 77.167 -2.5 112.5c0 50.667 0.666992 100.167 2 148.5s2 104.166 2 167.499l25 366c0 8 -0.333008 17.833 -1 29.5
s-3 22.334 -7 32.001s-10.167 17.834 -18.5 24.501s-20.833 10 -37.5 10h-245c-13.333 0 -26 -5.66699 -38 -17s-22.333 -24.166 -31 -38.499s-16.167 -28 -22.5 -41s-10.166 -21.5 -11.499 -25.5c-12 30 -23.5 53.5 -34.5 70.5s-23.667 29.5 -38 37.5s-31 12.667 -50 14
s-42.833 2 -71.5 2h-113c-23.333 -19.333 -43.5 -41.5 -60.5 -66.5s-30.833 -51.167 -41.5 -78.5c0 1.33301 -1.33301 9.5 -4 24.5s-6.83398 31.333 -12.501 49s-12.167 33.667 -19.5 48s-16 21.5 -26 21.5h-211z" />
    <glyph glyph-name="n" unicode="n" horiz-adv-x="835" 
d="M57 1126c0 -2.66699 0.330078 -6.00098 0.99707 -10.001s1 -7.33301 1 -10l21 -62l12 -46.5c5.33301 -20.333 8 -31.833 8 -34.5v-840c-6.66699 -18 -12.334 -37.833 -17.001 -59.5s-7 -42.834 -7 -63.501h274c0 18 -2.33301 35.833 -7 53.5
s-10.334 33.834 -17.001 48.501v697c0 18 2.33301 37.833 7 59.5s11.834 41.667 21.501 60s22.334 34 38.001 47s33.5 19.5 53.5 19.5h13c8 0 16.5 -0.333008 25.5 -1s17.167 -2.66699 24.5 -6s11 -8.33301 11 -15v-881l51 -82h209c0 2.66699 -0.666992 6.33398 -2 11.001
s-2 7.66699 -2 9c-1.33301 4 -4 10.833 -8 20.5s-8 20 -12 31s-8.16699 21.333 -12.5 31s-7.16602 16.5 -8.49902 20.5v942l-41 61h-307c-1.33301 0 -7.16602 -7.83301 -17.499 -23.5s-18.166 -28.167 -23.499 -37.5l-41 -82c0 4 -1 10.833 -3 20.5s-4 20 -6 31
s-4 21.167 -6 30.5s-3.66699 16 -5 20c-2.66699 6.66699 -6.5 15.167 -11.5 25.5s-8.16699 15.5 -9.5 15.5h-207z" />
    <glyph glyph-name="o" unicode="o" horiz-adv-x="716" 
d="M59 913c23.333 0 43.498 3.83105 60.498 11.498s34.167 16 51.5 25s36.5 17.167 57.5 24.5s47.167 11 78.5 11h21c9.33301 0 19.5 -0.333008 30.5 -1s21.167 -1 30.5 -1h21c8 -5.33301 16.833 -14.833 26.5 -28.5s14.5 -24.5 14.5 -32.5v-697
c0 -31.333 -5.16699 -56.5 -15.5 -75.5s-29.833 -28.5 -58.5 -28.5c-12 0 -25 4 -39 12s-26 18.5 -36 31.5s-18.5 26.667 -25.5 41s-10.5 27.833 -10.5 40.5v594c6.66699 19.333 12.5 39.833 17.5 61.5s7.5 42.834 7.5 63.501c-28.667 0 -56.667 -6.5 -84 -19.5
s-51.666 -30.5 -72.999 -52.5s-38.833 -46.333 -52.5 -73s-20.5 -54.334 -20.5 -83.001v-553c0 -15.333 4.5 -33.5 13.5 -54.5s20.333 -41 34 -60s29 -35.333 46 -49s33.833 -20.5 50.5 -20.5h225c19.333 0 42 11 68 33s50.5 48.333 73.5 79s42.667 62.334 59 95.001
s24.5 59.334 24.5 80.001v696c0 12 -2.33301 26.333 -7 43s-11.5 32.5 -20.5 47.5s-19.5 27.5 -31.5 37.5s-26.333 15 -43 15h-430c-2.66699 0 -6.5 -2.66699 -11.5 -8s-8.16699 -9.33301 -9.5 -12s-3.66602 -11.167 -6.99902 -25.5l-11 -47
c-4 -17 -8.5 -34.167 -13.5 -51.5s-8.16699 -30.666 -9.5 -39.999c0 -2.66699 -0.333008 -7.33398 -1 -14.001s-1 -11.667 -1 -15z" />
    <glyph glyph-name="p" unicode="p" horiz-adv-x="778" 
d="M51 1128c0 -16.667 1.33496 -28.334 4.00195 -35.001s6.5 -13 11.5 -19s10.167 -13.5 15.5 -22.5s10.666 -24.167 15.999 -45.5c10.667 -39.333 17.167 -83.666 19.5 -132.999s3.5 -98 3.5 -146v-336c-19.333 -15.333 -31.666 -29.666 -36.999 -42.999
s-8 -29.666 -8 -48.999c0 -16.667 2 -30.667 6 -42s16.333 -21.333 37 -30v-368c-6.66699 -15.333 -12.5 -31.833 -17.5 -49.5s-7.5 -35.5 -7.5 -53.5h275c0 19.333 -2.16699 41.333 -6.5 66s-9.16602 49.167 -14.499 73.5l-15 70.5c-4.66699 22.667 -7.66699 41.667 -9 57
v20c2.66699 -2.66699 8 -7.16699 16 -13.5l24.5 -18.5l24.5 -18c8 -6 13.667 -9.66699 17 -11l4 -1c2.66699 -0.666992 4.66699 -1 6 -1l10 2l75 56c32 24 63.667 49.667 95 77s58.666 56 81.999 86s35 59.333 35 88v758c0 8 -2.83301 16.667 -8.5 26
s-12.5 18.166 -20.5 26.499s-16.833 15.166 -26.5 20.499s-18.5 8 -26.5 8h-225c-9.33301 0 -21 -10.5 -35 -31.5s-25 -40.667 -33 -59s-12.667 -28.833 -14 -31.5c-2.66699 4 -6.83398 10.667 -12.501 20s-11.5 19.5 -17.5 30.5s-12.167 21.333 -18.5 31l-13.5 20.5
c-2.66699 2.66699 -6.33398 6.66699 -11.001 12s-7.66699 8 -9 8h-191zM322.002 723c0 28.667 1.33398 58.665 4.00098 89.998s8 60 16 86s20.167 47.167 36.5 63.5s38.166 24.5 65.499 24.5h13c6.66699 0 13.667 -0.333008 21 -1s14.166 -2.66699 20.499 -6
s9.5 -8.33301 9.5 -15v-779c0 -1.33301 -2.66699 -4.66602 -8 -9.99902s-9.66602 -8.66602 -12.999 -9.99902l-4 -1c-2.66699 -0.666992 -4.66699 -1 -6 -1c-2.66699 0 -5 0.333008 -7 1l-3 1l-123 123l-3 31c-2 20 -4 44.333 -6 73l-6 88l-5 74v51
c0 13.333 -0.333008 30.333 -1 51s-1 42.667 -1 66z" />
    <glyph glyph-name="q" unicode="q" horiz-adv-x="765" 
d="M53 739c0 -15.333 0.333008 -38.5 1 -69.5s1 -66.5 1 -106.5v-123c0 -42 0.333008 -82.5 1 -121.5s1.33398 -73.833 2.00098 -104.5s1 -53.667 1 -69c19.333 -54.667 49.833 -96.334 91.5 -125.001s91.167 -43 148.5 -43l82 5c18 13.333 33.333 28.833 46 46.5
s24.667 36.167 36 55.5l2 -123c0 -39.333 -4.16699 -74.333 -12.5 -105s-12.5 -64 -12.5 -100h273c0 24.667 -2.5 49 -7.5 73l-15.5 73c-5.33301 24.667 -10.333 50.167 -15 76.5s-7 54.5 -7 84.5c0 19.333 -0.333008 46.5 -1 81.5s-1 74.167 -1 117.5v146v157v158v143
c0 45.333 0.333008 85.333 1 120s1 61.667 1 81c-18 28.667 -41.667 46.834 -71 54.501s-59.666 11.5 -90.999 11.5l-64 -3h-123c-27.333 -6.66699 -56.333 -23 -87 -49s-59.334 -56.333 -86.001 -91s-48.834 -71.5 -66.501 -110.5s-26.5 -74.167 -26.5 -105.5v-35zM252 330
c0 2.66699 0.337891 16.6621 1.00488 41.9951s1 54.333 1 87s0.333008 65.334 1 98.001s1 59.334 1 80.001v307c5.33301 19.333 15.166 31.333 29.499 36s29.166 7 44.499 7h26c1.33301 0 6.66602 0.333008 15.999 1h13.5h14.5c10.667 -0.666992 20 -2.66699 28 -6
s12.667 -9 14 -17c5.33301 -35.333 9.83301 -68.166 13.5 -98.499s6.16699 -59.5 7.5 -87.5s2 -57 2 -87v-96c0 -15.333 0.333008 -36.166 1 -62.499s1 -55.5 1 -87.5c0 -35.333 -1 -72 -3 -110s-6.83301 -72.833 -14.5 -104.5s-18.334 -57.667 -32.001 -78
s-31.167 -30.5 -52.5 -30.5c-26 0 -46.167 6.83301 -60.5 20.5s-25.333 30.667 -33 51s-12.834 42.833 -15.501 67.5s-4 47.334 -4 68.001z" />
    <glyph glyph-name="r" unicode="r" horiz-adv-x="585" 
d="M45 1102c0 -1.33301 0.330078 -3.33301 0.99707 -6l1 -4l8 -15.5l13.5 -26l13.5 -26.5c4 -8 6 -12.667 6 -14c1.33301 -6.66699 3.33301 -21 6 -43s5 -46 7 -72s3.83301 -51.333 5.5 -76s2.5 -43 2.5 -55c0 -27.333 0.333008 -73.166 1 -137.499s1 -133.166 1 -206.499
v-109c0 -35.333 -0.333008 -68.333 -1 -99s-1 -58.334 -1 -83.001v-53c1.33301 -4 4 -10.5 8 -19.5s9 -18.333 15 -28s12.5 -17.834 19.5 -24.501s13.167 -10 18.5 -10h188c0 13.333 -2.33301 25.833 -7 37.5s-9.66699 23.334 -15 35.001l-15.5 34
c-5 11 -7.5 23.167 -7.5 36.5v627c0 8 2.16699 21.167 6.5 39.5s10.5 36.833 18.5 55.5s17.833 35.167 29.5 49.5s24.5 21.5 38.5 21.5c1.33301 0 3.33301 -0.333008 6 -1l4 -1c9.33301 -6.66699 18.5 -16.834 27.5 -30.501l26.5 -42
c8.66699 -14.333 17.834 -26.666 27.501 -36.999s19.834 -15.5 30.501 -15.5c2.66699 0 5.33398 0.333008 8.00098 1l3 1c2.66699 2.66699 6.66699 9.5 12 20.5s8 17.833 8 20.5v246c0 10.667 -3 19 -9 25s-13.167 10.5 -21.5 13.5s-17.166 4.5 -26.499 4.5h-23
c-24.667 0 -44.834 -3.83301 -60.501 -11.5s-29.667 -18 -42 -31s-23.166 -28.333 -32.499 -46l-31 -57.5c-19.333 57.333 -45.333 96 -78 116s-79 30 -139 30c-10.667 0 -21.834 -1.83301 -33.501 -5.5s-17.5 -12.834 -17.5 -27.501z" />
    <glyph glyph-name="s" unicode="s" horiz-adv-x="747" 
d="M51 786c0 -52 12.0029 -93.668 36.0029 -125.001s53.333 -58.166 88 -80.499s72.834 -42.333 114.501 -60s80 -37.5 115 -59.5s64.333 -48.667 88 -80s35.5 -71.666 35.5 -120.999c0 -39.333 -7.16699 -67.5 -21.5 -84.5s-43.833 -25.5 -88.5 -25.5
c-54.667 0 -96.667 9.16699 -126 27.5s-54.666 38.666 -75.999 60.999s-41.833 42.833 -61.5 61.5s-46.5 28 -80.5 28v-285l43 -43h387c27.333 0 52.833 12 76.5 36s44.5 53 62.5 87s32 69.833 42 107.5s15 69.5 15 95.5c0 56 -12.167 103 -36.5 141s-55 71.333 -92 100
s-77.333 54 -121 76s-84 45 -121 69s-67.667 51 -92 81s-36.5 66 -36.5 108c0 12 2.66699 25.667 8 41s17.666 23 36.999 23h151c1.33301 0 7.16602 -5.5 17.499 -16.5l25.5 -26.5c1.33301 -2.66699 5.16602 -8.5 11.499 -17.5l19.5 -28
c6.66699 -9.66699 13.167 -18.5 19.5 -26.5s10.833 -12.667 13.5 -14l8 -1c5.33301 -0.666992 9.33301 -1 12 -1c23.333 0 42.166 8.83301 56.499 26.5s25.666 39.167 33.999 64.5s13.833 51.5 16.5 78.5s4 50.167 4 69.5c0 15.333 -4.83301 29.833 -14.5 43.5
s-22.5 20.5 -38.5 20.5h-13c-12 0 -34.333 -1.16699 -67 -3.5l-104.5 -7.5c-37 -2.66699 -71.833 -5 -104.5 -7s-55.334 -3.66699 -68.001 -5c-45.333 -44 -85.666 -93.167 -120.999 -147.5s-53 -114.5 -53 -180.5z" />
    <glyph glyph-name="t" unicode="t" horiz-adv-x="509" 
d="M20 999l94.998 0.00195312v-936l65 -63h197c0 2.66699 -0.666992 6.33398 -2 11.001s-2 7.66699 -2 9c-1.33301 5.33301 -4.16602 14.333 -8.49902 27s-8.5 25.667 -12.5 39s-8.33301 26.166 -13 38.499s-7.66699 20.833 -9 25.5v839c26 1.33301 47.5 3.33301 64.5 6
s31 7.5 42 14.5s19.833 17.333 26.5 31s12.667 32.167 18 55.5c1.33301 6.66699 2.33301 13.667 3 21l1 11h-129l-4 31c-2.66699 20.667 -4 42.667 -4 66c0 8 0.333008 15.333 1 22s1.66699 13.667 3 21c1.33301 4 5.16602 12.167 11.499 24.5l20.5 40l20.5 41l11.5 23.5
c2.66699 5.33301 5.33398 16.5 8.00098 33.5s4 27.5 4 31.5h-55c-1.33301 0 -6.16602 -4 -14.499 -12l-30 -29.5l-35 -36c-11.667 -12.333 -20.834 -22.5 -27.501 -30.5l-26.5 -34l-45 -56.5l-47 -59c-15 -19 -25.833 -33.5 -32.5 -43.5
c-4 -6.66699 -10.5 -16.5 -19.5 -29.5l-28 -40c-9.66699 -13.667 -18.167 -26.334 -25.5 -38.001s-11.666 -18.834 -12.999 -21.501c-2.66699 -5.33301 -5 -12 -7 -20z" />
    <glyph glyph-name="u" unicode="u" horiz-adv-x="829" 
d="M53 1124c0 -16.667 2.49707 -32.668 7.49707 -48.001l15.5 -45.5c5.33301 -15 10.333 -30.833 15 -47.5s7 -33.667 7 -51v-803c0 -24.667 7.83301 -45.5 23.5 -62.5s34.834 -30.667 57.501 -41s46.334 -17.5 71.001 -21.5s45.667 -6 63 -6c27.333 0 50.333 2.33301 69 7
s35.5 12.5 50.5 23.5s30 24.667 45 41s31.833 36.166 50.5 59.499c0 -4 -0.333008 -10.833 -1 -20.5s-1 -20.5 -1 -32.5c0 -10.667 0.333008 -21.5 1 -32.5s1 -18.833 1 -23.5c0 -2.66699 2.83301 -6.66699 8.5 -12s9.83398 -8 12.501 -8h221c0 18 -1.33301 36.833 -4 56.5
s-10.334 36.167 -23.001 49.5v932c0 4 -2.66699 10.833 -8 20.5s-11.333 19.334 -18 29.001s-13.834 18.167 -21.501 25.5s-13.5 11 -17.5 11h-197c0 -27.333 2.5 -51.833 7.5 -73.5s10.5 -44.167 16.5 -67.5s11.333 -49 16 -77s7 -62.333 7 -103v-51
c0 -22 0.333008 -47 1 -75s1 -57.667 1 -89v-94c0 -48 -0.333008 -91.5 -1 -130.5s-1.66699 -67.167 -3 -84.5c-4 -15.333 -9.33301 -30.833 -16 -46.5s-15.167 -29.667 -25.5 -42s-22.666 -22.666 -36.999 -30.999s-31.166 -12.5 -50.499 -12.5
c-18 0 -32.333 5.83301 -43 17.5s-19.167 25.667 -25.5 42s-10.5 33.166 -12.5 50.499s-3 32 -3 44v737c0 4 -2.66699 10.833 -8 20.5s-11.5 19.334 -18.5 29.001s-14.167 18.167 -21.5 25.5s-13 11 -17 11h-195z" />
    <glyph glyph-name="v" unicode="v" horiz-adv-x="786" 
d="M57 0l434.997 -0.000976562c1.33301 0 10.5 8.16699 27.5 24.5l59 58.5l69.5 70.5l59 61.5c2.66699 2.66699 6.66699 9.83398 12 21.501s8 18.834 8 21.501v803c0 15.333 -7.16699 29.666 -21.5 42.999s-28.166 20 -41.499 20h-238l-107 -106l-43 86l-12 12
c-5.33301 5.33301 -8.66602 8 -9.99902 8h-197c0 -2.66699 0.333008 -6 1 -10s1.66699 -7.33301 3 -10c2.66699 -5.33301 9.5 -16.166 20.5 -32.499l22.5 -33.5v-932c-2.66699 -2.66699 -6 -8 -10 -16s-8 -16.5 -12 -25.5s-8.16699 -17.5 -12.5 -25.5
s-7.16602 -14.333 -8.49902 -19c-1.33301 -1.33301 -2.33301 -4.33301 -3 -9s-1 -8.33398 -1 -11.001zM232.997 149.999l13.5 12.998c6.33301 6 12.833 12.5 19.5 19.5l18.5 19.5l12.5 13c5.33301 5.33301 12.166 13.5 20.499 24.5s12.5 17.167 12.5 18.5v588
c0 8 3.33301 20.5 10 37.5s15.834 34.167 27.501 51.5s24.334 32.333 38.001 45s27.167 19 40.5 19c23.333 0 45.333 -8 66 -24l11 -152.5c3.33301 -44.333 6.16602 -86.333 8.49902 -126s3.83301 -79.667 4.5 -120s1 -85.166 1 -134.499v-61
c0 -31.333 -1.16699 -64.166 -3.5 -98.499s-6.83301 -65 -13.5 -92s-16 -40.5 -28 -40.5h-259z" />
    <glyph glyph-name="w" unicode="w" horiz-adv-x="1177" 
d="M59 1151c0 -18 2.49902 -35.1709 7.49902 -51.5039s10.5 -32.666 16.5 -48.999s11.333 -32.333 16 -48s7 -32.5 7 -50.5v-802c0 -2.66699 -2.66699 -12 -8 -28s-10 -28 -14 -36c-1.33301 -2.66699 -4.66602 -9.83398 -9.99902 -21.501s-9 -18.834 -11 -21.501v-10v-13
c10.667 -1.33301 30.5 -3 59.5 -5s59.5 -4 91.5 -6s62.333 -4 91 -6s48.667 -3 60 -3h22c20.667 0 38.5 5.16699 53.5 15.5s28.667 23 41 38s22.833 31 31.5 48l24 48.5c19.333 -32.667 39.166 -59 59.499 -79s42 -35.167 65 -45.5s48.5 -17.166 76.5 -20.499
s58.333 -5 91 -5c23.333 0 51.5 8.83301 84.5 26.5s64.5 39.5 94.5 65.5s55.5 54 76.5 84s31.5 57.333 31.5 82v780c0 4 -2.66699 10.833 -8 20.5s-11.5 19.334 -18.5 29.001s-13.833 18.167 -20.5 25.5s-12 11 -16 11h-258l-66 -86l-4 -1
c-2.66699 -0.666992 -4.66699 -1 -6 -1s-3.33301 0.333008 -6 1l-4 1c-4 4 -8.16699 10.833 -12.5 20.5l-13.5 29c-4.66699 9.66699 -10.167 18.167 -16.5 25.5s-14.166 11 -23.499 11h-235c-8 0 -16.5 -5.33301 -25.5 -16s-17.667 -23.167 -26 -37.5
s-15.5 -28.666 -21.5 -42.999s-10.333 -25.166 -13 -32.499c-9.33301 36.667 -21.333 65.334 -36 86.001s-32.5 36.167 -53.5 46.5s-45.833 16.833 -74.5 19.5s-61.667 4 -99 4zM235.999 149.996c19.333 19.333 37.834 42.1699 55.501 68.5029s27.834 53.833 30.501 82.5
c0 12 -0.5 33.833 -1.5 65.5s-1.5 64.5 -1.5 98.5c0 35.333 0.5 68.666 1.5 99.999s1.5 53.333 1.5 66c0 10.667 1 28.334 3 53.001s4 51 6 79s4 54 6 78s3.66699 40 5 48c1.33301 9.33301 6.16602 20.166 14.499 32.499s17.5 24 27.5 35s20.833 20.167 32.5 27.5
s23.167 11 34.5 11c15.333 0 29.666 -6.83301 42.999 -20.5s20 -27.834 20 -42.501v-631c0 -31.333 -5.5 -56.833 -16.5 -76.5s-25.333 -35.334 -43 -47.001s-38.167 -19.667 -61.5 -24s-47 -6.5 -71 -6.5c-6.66699 0 -21 0.5 -43 1.5s-36.333 1.5 -43 1.5zM729 322
l0.000976562 523.999c0 15.333 2.66699 31.833 8 49.5s13.166 34 23.499 49s22.666 27.167 36.999 36.5s31.166 14 50.499 14h10c6.66699 -4 15.5 -11.5 26.5 -22.5s16.5 -17.833 16.5 -20.5v-802c0 -10.667 -5.5 -17.167 -16.5 -19.5s-19.833 -3.5 -26.5 -3.5
c-23.333 0 -43.166 6.5 -59.499 19.5s-29.666 29.333 -39.999 49s-17.833 40.834 -22.5 63.501s-7 43.667 -7 63z" />
    <glyph glyph-name="x" unicode="x" horiz-adv-x="825" 
d="M49 33c0 1.33301 0.661133 4.66992 1.99414 10.0029l43 43c48 66.667 86 138.667 114 216l79 228c0 5.33301 0.333008 15 1 29s1 23 1 27c0 34 -4.83301 71.167 -14.5 111.5s-21.667 80.333 -36 120s-30.333 77.5 -48 113.5s-35.5 67.667 -53.5 95
c-1.33301 1.33301 -5.33301 6.5 -12 15.5l-20.5 27.5l-20.5 26.5c-6.66699 8.33301 -10.667 13.833 -12 16.5s-2.66602 6 -3.99902 10s-2 7.66699 -2 11c162.667 0 245.5 -3.16699 248.5 -9.5s7 -14.333 12 -24l14.5 -28.5c4.66699 -9.33301 8.33398 -17.333 11.001 -24
c2.66699 -5.33301 7.16699 -15 13.5 -29l19.5 -44.5c6.66699 -15.667 12.834 -31 18.501 -46s9.83398 -25.167 12.501 -30.5h22c2.66699 8 7.83398 22.333 15.501 43s16.334 42.167 26.001 64.5s18.5 43.833 26.5 64.5s14 35 18 43c1.33301 2.66699 4.5 6.83398 9.5 12.501
s8.83301 8.5 11.5 8.5h172c13.333 0 20.666 -6.83301 21.999 -20.5s2 -24.167 2 -31.5c0 -32.667 -7.16699 -64.667 -21.5 -96s-29.5 -60.666 -45.5 -87.999c-1.33301 0 -3 -0.333008 -5 -1s-3.66699 -1 -5 -1s-5 0.666992 -11 2c-28.667 28.667 -44.667 43.334 -48 44.001
s-5.66602 1 -6.99902 1c-18 0 -33 -10.167 -45 -30.5s-22.167 -44.166 -30.5 -71.499s-14.166 -54 -17.499 -80s-5 -45.333 -5 -58c0 -2.66699 0.333008 -9.33398 1 -20.001s1 -18.334 1 -23.001c18 -57.333 37.167 -111.5 57.5 -162.5s41.666 -101.5 63.999 -151.5
l68.5 -148.5c23.333 -49 46 -100.167 68 -153.5c1.33301 -2.66699 3 -9.83398 5 -21.501s3 -18.834 3 -21.501h-223c-1.33301 0 -7.5 8.16699 -18.5 24.5s-19.167 29.166 -24.5 38.499c-2.66699 4 -6.5 11.5 -11.5 22.5s-8.16699 17.833 -9.5 20.5l-22.5 54.5
c-11 27 -21.833 55.5 -32.5 85.5l-31.5 85l-21.5 56c-19.333 -6.66699 -34.5 -20.334 -45.5 -41.001s-19.833 -43.5 -26.5 -68.5s-11 -50.5 -13 -76.5s-3 -49.333 -3 -70c0 -26 4.66699 -48.167 14 -66.5s14 -39.833 14 -64.5h-241c-1.33301 0 -4.5 2.66699 -9.5 8
l-9.5 9.99902s-2.33301 3.83301 -3 7.5s-1 6.16699 -1 7.5z" />
    <glyph glyph-name="y" unicode="y" horiz-adv-x="829" 
d="M57 1130c4 0 12.5 -0.330078 25.5 -0.99707s27 -1.33398 42 -2.00098s29 -1.33398 42 -2.00098s21.833 -1 26.5 -1c4 0 12.167 -2 24.5 -6s25.666 -9 39.999 -15s26.833 -12.833 37.5 -20.5s16 -14.834 16 -21.501v-817c0 -8 5.16699 -15.833 15.5 -23.5s22 -15 35 -22
s26.333 -12.5 40 -16.5s23.834 -6 30.501 -6c2.66699 0 9 0.666992 19 2c5.33301 2.66699 11.666 7.5 18.999 14.5l21.5 20.5c7 6.66699 12.833 12.834 17.5 18.501s7 9.83398 7 12.501v731c-6.66699 19.333 -12.334 43.333 -17.001 72s-7 54.334 -7 77.001h286
c0 -15.333 -1.66699 -30.333 -5 -45s-10.333 -28.334 -21 -41.001c-1.33301 -19.333 -2.33301 -49 -3 -89s-1.83398 -85.333 -3.50098 -136s-3.16699 -104.334 -4.5 -161.001s-2.66602 -110.167 -3.99902 -160.5s-2.66602 -96 -3.99902 -137s-2 -71.167 -2 -90.5
c-2.66699 -82 -4.66699 -157.5 -6 -226.5s-13 -128 -35 -177s-58.5 -87.5 -109.5 -115.5s-127.167 -42 -228.5 -42h-35c-15.333 0 -30 0.333008 -44 1s-27.333 1 -40 1h-18c-9.33301 0 -21.5 1 -36.5 3s-29.333 4.33301 -43 7s-25.334 5.16699 -35.001 7.5
s-14.5 4.16602 -14.5 5.49902v235h64c28.667 -39.333 58.334 -71 89.001 -95s69.667 -36 117 -36c32.667 0 59.334 6.5 80.001 19.5s37.167 29.667 49.5 50s20.833 43.5 25.5 69.5s7 52 7 78c0 6.66699 -0.333008 18.334 -1 35.001s-1 27 -1 31
c-26 -34 -52 -53.833 -78 -59.5s-58.667 -8.5 -98 -8.5c-35.333 0 -64 3.5 -86 10.5s-41.5 17.333 -58.5 31s-33 29.667 -48 48l-51.5 64.5v817c-26 35.333 -39 72.666 -39 111.999z" />
    <glyph glyph-name="z" unicode="z" horiz-adv-x="675" 
d="M51 891l0.000976562 235.001h522c0 -35.333 -8.16699 -69.333 -24.5 -102s-35.333 -65 -57 -97l-66.5 -95.5c-22.667 -31.667 -40 -62.5 -52 -92.5c69.333 -18 126.5 -51.5 171.5 -100.5s67.5 -110.167 67.5 -183.5c0 -48 -7.16699 -91.167 -21.5 -129.5
s-33.333 -74.166 -57 -107.499s-51.334 -65 -83.001 -95l-98.5 -92c-2.66699 -4 -6.66699 -14.333 -12 -31s-8.66602 -28.334 -9.99902 -35.001v-10c0 -18 2.66699 -33.833 8 -47.5s12.5 -26.667 21.5 -39s18.5 -24.5 28.5 -36.5s17.167 -21.5 21.5 -28.5
s6.83301 -11.833 7.5 -14.5s1 -4.66699 1 -6s-0.666992 -4.66602 -2 -9.99902c-1.33301 -2.66699 -4.83301 -7.16699 -10.5 -13.5s-9.16699 -9.5 -10.5 -9.5h-237c-9.33301 0 -17.166 4.83301 -23.499 14.5s-10.833 20.667 -13.5 33s-4.66699 24.666 -6 36.999
s-2 21.166 -2 26.499c0 53.333 14.667 100.333 44 141s62 81.167 98 121.5s68.667 81.666 98 123.999s44 91.5 44 147.5c0 15.333 -2 32.833 -6 52.5s-10.5 38.334 -19.5 56.001s-20.333 32.667 -34 45s-30.5 18.5 -50.5 18.5c-2.66699 0 -8.16699 -1 -16.5 -3
s-17.333 -4 -27 -6s-18.834 -4.33301 -27.501 -7s-13.667 -4 -15 -4h-11c-13.333 0 -22.333 4.33301 -27 13s-7 18.667 -7 30c0 2.66699 0.333008 6.33398 1 11.001s1 7.66699 1 9c35.333 50.667 73.833 109.167 115.5 175.5s74.834 130.166 99.501 191.499
c-2.66699 2.66699 -9.5 6.66699 -20.5 12s-18.5 8 -22.5 8c-31.333 0 -59.333 -6.83301 -84 -20.5s-47.334 -28.667 -68.001 -45s-38.5 -31.333 -53.5 -45s-28.5 -20.5 -40.5 -20.5c-2.66699 0 -6.66699 0.666992 -12 2c-2.66699 2.66699 -6.83398 6.5 -12.501 11.5
s-8.5 8.83301 -8.5 11.5z" />
    <glyph glyph-name="bar" unicode="|" horiz-adv-x="841" 
d="M41 1022c0 -8 3.00098 -15.1641 9.00098 -21.4971s13.167 -11.5 21.5 -15.5s17 -7.33301 26 -10s15.5 -4.66699 19.5 -6v-906c0 -1.33301 4.33301 -7 13 -17s15.334 -18.667 20.001 -26l12 -12c5.33301 -5.33301 8.66602 -8 9.99902 -8h172v645
c54.667 -4 97.667 -12.5 129 -25.5s55.166 -31.167 71.499 -54.5s26.666 -53.333 30.999 -90s6.5 -81 6.5 -133v-53c0 -16.667 -0.666992 -33.5 -2 -50.5s-4.83301 -32 -10.5 -45s-14 -24 -25 -33s-25.167 -13.5 -42.5 -13.5c-4 0 -9.5 0.5 -16.5 1.5s-11.167 1.5 -12.5 1.5
l-43 43h-10c-9.33301 0 -19.333 -1.66699 -30 -5l-15 -6v-82h4v-100h180c1.33301 0 9.5 7.16699 24.5 21.5l53.5 52l62.5 63.5l52.5 56c22 24.667 34.667 55.667 38 93s5 71 5 101c0 58.667 -2.83301 111.167 -8.5 157.5s-24.167 94.166 -55.5 143.499
c-8 12 -20.5 22.5 -37.5 31.5l-51.5 26c-17.333 8.33301 -32.333 17.166 -45 26.499s-19 21 -19 35c0 1.33301 0.333008 3.33301 1 6l1 4c1.33301 2.66699 5 6.83398 11 12.501l11 10.5c4 6.66699 12.167 18.167 24.5 34.5l39 51l39 51l26.5 35.5c0 2.66699 0.333008 8 1 16
s1 13.333 1 16c0 5.33301 -0.333008 13.166 -1 23.499s-2.66699 20 -6 29s-8.16602 16.833 -14.499 23.5s-14.166 10 -23.499 10h-362c0 28.667 3.33301 57.5 10 86.5s14.167 57.333 22.5 85s15.833 55.5 22.5 83.5s10 55 10 81c-16.667 0 -32.834 -5 -48.501 -15
s-29.5 -20.667 -41.5 -32c-6.66699 -6.66699 -17.167 -18.834 -31.5 -36.501l-45 -57.5l-45 -58.5c-14.333 -18.333 -24.166 -31.5 -29.499 -39.5c-9.33301 -12 -20.333 -27 -33 -45s-24.834 -36.5 -36.501 -55.5s-21.167 -37.833 -28.5 -56.5s-11 -34.667 -11 -48z
M322.001 684.003l0.00195312 285.001h219c0 -19.333 -8.66699 -45 -26 -77s-37.833 -63.333 -61.5 -94s-47.834 -57.334 -72.501 -80.001s-44.334 -34 -59.001 -34z" />
    <glyph glyph-name="uni00A0" unicode="&#xa0;" horiz-adv-x="458" 
 />
    <glyph glyph-name="dieresis" unicode="&#xa8;" horiz-adv-x="632" 
d="M41 1386l119 127l129 -137c-32.667 -35.333 -57.167 -64 -73.5 -86s-37.5 -37.667 -63.5 -47c-18 38 -42.667 69.333 -74 94zM346 1401l121 121l125 -138c-32.667 -35.333 -57.5 -63 -74.5 -83s-38.5 -34.667 -64.5 -44c-18 38 -42.667 69.667 -74 95z" />
    <glyph glyph-name="uni00AD" unicode="&#xad;" 
d="M29 518l26 -17.999c9.33301 19.333 18.166 31 26.499 35s22.833 6 43.5 6h174v2h492c16.667 4 54.667 68.667 114 194l-26 19c-10.667 -20.667 -23 -33.334 -37 -38.001s-38 -7 -72 -7h-397v-2h-203c-26 0 -48.167 -16.5 -66.5 -49.5s-43.166 -80.167 -74.499 -141.5z
" />
    <glyph glyph-name="afii10023" unicode="&#x401;" horiz-adv-x="843" 
d="M53 266l-0.000976562 840.001c0 13.333 5.83301 32.666 17.5 57.999s26.667 52.333 45 81s38.833 57.667 61.5 87s45.334 56.333 68.001 81s44.167 44.5 64.5 59.5s37.166 22.5 50.499 22.5h390v-328h-41c-4 5.33301 -11.833 13.833 -23.5 25.5l-37 37l-37 37
c-11.667 11.667 -20.167 19.5 -25.5 23.5c-2.66699 2.66699 -9.5 6.83398 -20.5 12.501s-17.833 8.5 -20.5 8.5h-226l-40 -41v-375h200c22 0 43.5 1.66699 64.5 5s41.833 10.666 62.5 21.999c12 6.66699 20.833 16.5 26.5 29.5s11.167 26.333 16.5 40
s12.166 25.167 20.499 34.5s21.5 14 39.5 14v-462c-20.667 0 -35.5 7.16699 -44.5 21.5s-16.5 30.333 -22.5 48s-12.833 33.667 -20.5 48s-19.5 21.5 -35.5 21.5h-287v-410c0 -31.333 7.5 -56.166 22.5 -74.499s33.833 -33 56.5 -44s47.334 -18.167 74.001 -21.5
s50.667 -5 72 -5c48 0 84.333 9.83301 109 29.5s43.5 41.167 56.5 64.5s22.833 44.833 29.5 64.5s16.334 29.5 29.001 29.5c20.667 0 33.334 -5.5 38.001 -16.5s7 -25.833 7 -44.5c0 -56 -10 -102.5 -30 -139.5s-46.333 -66.667 -79 -89s-70.834 -38.333 -114.501 -48
s-89.5 -14.5 -137.5 -14.5c-40.667 0 -83.167 4.16699 -127.5 12.5s-85 22.666 -122 42.999s-67.833 47.833 -92.5 82.5s-37 78 -37 130zM183.999 1677l119 127l129 -137l-137 -133l-74 94zM488.999 1692l121 120l125 -137l-139 -127l-74 94z" />
    <glyph glyph-name="afii10017" unicode="&#x410;" horiz-adv-x="1034" 
d="M55 1444c0 5.33301 0.666016 15.1729 1.99902 29.5059s8.33301 21.5 21 21.5h614c34 0 64.667 -9.5 92 -28.5s50 -42.833 68 -71.5s31.667 -59.834 41 -93.501s14 -64.834 14 -93.501v-1024c0 -19.333 4.16699 -36 12.5 -50s17.666 -27.833 27.999 -41.5
s19.5 -28 27.5 -43s12 -31.5 12 -49.5h-381c0 15.333 3.5 29.333 10.5 42s14.5 25.5 22.5 38.5s15.5 26.333 22.5 40s10.5 28.167 10.5 43.5v799h-297v-861c0 -1.33301 -1.33301 -5.33301 -4 -12s-5.5 -14.5 -8.5 -23.5s-6.5 -17.833 -10.5 -26.5
s-6.66699 -15.334 -8 -20.001c-1.33301 -2.66699 -4.66602 -6.66699 -9.99902 -12s-8.66602 -8 -9.99902 -8h-226c-1.33301 0 -4.66602 2.66699 -9.99902 8s-8.33301 8.66602 -9 9.99902s-1.33398 3.5 -2.00098 6.5s-1 5.16699 -1 6.5s0.666992 4.66602 2 9.99902
c5.33301 9.33301 12.5 17.5 21.5 24.5s16.833 13.833 23.5 20.5s12.834 14.5 18.501 23.5s8.5 20.167 8.5 33.5v840c0 34 9.83301 68.167 29.5 102.5s44.5 65.5 74.5 93.5s63.167 50.5 99.5 67.5s70.833 25.5 103.5 25.5c0 -16.667 -3.5 -31.167 -10.5 -43.5
s-14.833 -24.5 -23.5 -36.5s-16.5 -24.5 -23.5 -37.5s-10.5 -29.167 -10.5 -48.5h262c2.66699 0 6.83398 2.66699 12.501 8s8.5 9.33301 8.5 12c0 1.33301 0.333008 10.666 1 27.999s1 30 1 38c0 31.333 -7.5 56.166 -22.5 74.499s-33.833 32.333 -56.5 42
s-48.334 15.834 -77.001 18.501s-56 4 -82 4c-53.333 0 -98.333 -7.83301 -135 -23.5s-70 -48.834 -100 -99.501c-1.33301 0 -4.5 -0.333008 -9.5 -1s-8.83301 -1 -11.5 -1c-18 0 -34.333 10 -49 30s-27.834 43.333 -39.501 70s-20.667 52.834 -27 78.501
s-9.5 45.5 -9.5 59.5z" />
    <glyph glyph-name="afii10018" unicode="&#x411;" horiz-adv-x="960" 
d="M55 1495c2.66699 0 10.833 -0.665039 24.5 -1.99805s21.834 -7.33301 24.501 -18h697l20 -21v-246c0 -10.667 -5.5 -17 -16.5 -19s-19.833 -3 -26.5 -3c-2.66699 0 -8.66699 0.666992 -18 2l-123 123l-328 20h-20h-21l2 -2l24.5 -24.5l38 -38
c13 -13 24.333 -25.333 34 -37s14.5 -18.834 14.5 -21.501v-225c16.667 23.333 32.5 44.5 47.5 63.5s32.5 38.167 52.5 57.5l125 4c69.333 1.33301 123.166 -6.5 161.499 -23.5s66.833 -41.833 85.5 -74.5s29.667 -72 33 -118s5 -95.667 5 -149v-243
c0 -57.333 -1.66699 -116.166 -5 -176.499s-14.333 -114.333 -33 -162s-47 -86.834 -85 -117.501s-92 -46 -162 -46c-19.333 0 -40.5 1.33301 -63.5 4s-44 8.5 -63 17.5s-35 22 -48 39s-19.5 39.167 -19.5 66.5c20.667 0 38 -4.16699 52 -12.5s30.667 -12.5 50 -12.5
c22 0 41.833 6.16699 59.5 18.5s32.667 28.166 45 47.499s21.833 39.5 28.5 60.5s10 41.167 10 60.5v573c0 38 -13.167 65 -39.5 81s-55.5 24 -87.5 24c-16.667 0 -33.667 -5.83301 -51 -17.5s-33.166 -25.667 -47.499 -42s-26.333 -34.166 -36 -53.499s-14.5 -37 -14.5 -53
v-799h-297c-1.33301 0 -4.33301 2.66699 -9 8s-7.83398 8.66602 -9.50098 9.99902s-2.83398 3.5 -3.50098 6.5s-1 5.16699 -1 6.5c0 8 3.5 16.833 10.5 26.5s15 19.5 24 29.5l25.5 29.5c8 9.66699 14 18.5 18 26.5c0 22 0.333008 55.833 1 101.5s1.33398 97.5 2.00098 155.5
s1 118.667 1 182v182c0 58.667 0.333008 111.167 1 157.5s1 80.5 1 102.5v23c0 52 -1.66699 103.833 -5 155.5s-15.333 101.5 -36 149.5c-8 18 -15 32.333 -21 43l-15.5 28.5c-4.33301 8.33301 -7.5 17.5 -9.5 27.5s-3 24.667 -3 44z" />
    <glyph glyph-name="afii10019" unicode="&#x412;" horiz-adv-x="993" 
d="M57 1495l722.998 0.00195312c23.333 0 43.166 -9.83301 59.499 -29.5s29.333 -42.834 39 -69.501s16.5 -53.667 20.5 -81s6 -49.333 6 -66c0 -56 -14 -102 -42 -138s-62.333 -71.667 -103 -107c36.667 -30 67.334 -59.167 92.001 -87.5s43.834 -58.166 57.501 -89.499
s23.167 -65 28.5 -101s8 -76.667 8 -122v-35c0 -15.333 -0.333008 -30 -1 -44s-1 -26.667 -1 -38v-16c-1.33301 -16.667 -8.5 -39.667 -21.5 -69s-29.667 -61.666 -50 -96.999s-43.166 -70.833 -68.499 -106.5s-50.666 -68.5 -75.999 -98.5s-49.5 -54.167 -72.5 -72.5
s-42.833 -27.5 -59.5 -27.5h-512c-1.33301 0 -4.33301 2.66699 -9 8s-7.83398 8.66602 -9.50098 9.99902s-2.83398 3.5 -3.50098 6.5s-1 5.16699 -1 6.5s0.666992 4.66602 2 9.99902l14.5 28.5l22 44l21.5 43l14 27.5v820c0 26 11.333 54 34 84s50.334 57.167 83.001 81.5
s66.5 44.666 101.5 60.999s64.5 24.5 88.5 24.5c0 -19.333 -3.66699 -36.666 -11 -51.999s-15.833 -31.666 -25.5 -48.999s-18.167 -36.166 -25.5 -56.499s-11 -44.833 -11 -73.5c0 -6.66699 0.333008 -20.334 1 -41.001s1 -34.334 1 -41.001l286 143
c15.333 6.66699 26 20 32 40s9 37.667 9 53c0 34 -5.66699 61.167 -17 81.5s-27 36 -47 47s-43 18.167 -69 21.5s-53.333 5 -82 5c-30 0 -58 -1 -84 -3s-50.167 -7 -72.5 -15s-43.5 -20.667 -63.5 -38s-38.667 -40.333 -56 -69c-1.33301 0 -4.5 -0.333008 -9.5 -1
s-8.83301 -1 -11.5 -1c-24.667 0 -45.167 11.667 -61.5 35s-29.5 50.666 -39.5 81.999s-17.167 63 -21.5 95s-6.5 57.667 -6.5 77zM259.998 158.002c76.667 0 144.667 0.998047 204 2.99805s109.5 12.833 150.5 32.5s72.333 52.334 94 98.001s32.5 112.5 32.5 200.5
c0 36.667 -4 76.5 -12 119.5s-21.167 82.833 -39.5 119.5s-42.5 67.667 -72.5 93s-67.667 38 -113 38c-4 0 -12.833 -0.666992 -26.5 -2s-27.667 -3.66602 -42 -6.99902s-27 -7.83301 -38 -13.5s-16.5 -12.5 -16.5 -20.5v-512c0 -1.33301 -4.16699 -7.16602 -12.5 -17.499
l-18.5 -23.5c-2.66699 -2.66699 -8 -7.66699 -16 -15s-16.5 -15.833 -25.5 -25.5l-26 -27l-14.5 -14.5c-1.33301 -1.33301 -3 -5.33301 -5 -12s-3 -11.334 -3 -14.001z" />
    <glyph glyph-name="afii10020" unicode="&#x413;" horiz-adv-x="911" 
d="M45 1444c0 2.66699 0.667969 6.00293 2.00098 10.0029c4 6.66699 11.167 15.167 21.5 25.5s16.833 15.5 19.5 15.5h737c13.333 -13.333 21.166 -29 23.499 -47s4.5 -38.833 6.5 -62.5l6 -73.5l5 -63v-45c0 -18 -2 -32.333 -6 -43s-15.667 -16 -35 -16
c-2.66699 0 -6.33398 0.333008 -11.001 1s-7.66699 1 -9 1c-23.333 26 -44.166 50.167 -62.499 72.5s-37.166 42.166 -56.499 59.499s-40.166 30.666 -62.499 39.999s-49.166 14 -80.499 14c-27.333 0 -49.5 -5.83301 -66.5 -17.5s-30.333 -26.667 -40 -45
s-15.834 -38.666 -18.501 -60.999s-4 -44.5 -4 -66.5c0 -18 1.66699 -40.667 5 -68s9.5 -54 18.5 -80s56.5 -112 142.5 -258c13.333 -27.333 31 -58.666 53 -93.999s42.5 -72.5 61.5 -111.5s35.667 -79 50 -120s21.5 -80.5 21.5 -118.5
c0 -66.667 -14.333 -119.834 -43 -159.501s-65.5 -69.834 -110.5 -90.501s-94.167 -33.667 -147.5 -39s-104.666 -8 -153.999 -8h-32c-12 0 -24.667 0.333008 -38 1s-24.666 1.33398 -33.999 2.00098s-15 1 -17 1l-20 41v369c0 1.33301 2.66699 4.66602 8 9.99902
s8.66602 8.33301 9.99902 9s3.5 1.33398 6.5 2.00098s5.16699 1 6.5 1c15.333 0 29 -7.83301 41 -23.5s23.833 -34.834 35.5 -57.501s23.667 -47.5 36 -74.5s26 -51.833 41 -74.5s32 -41.834 51 -57.501s41.5 -23.5 67.5 -23.5c58.667 0 88 32 88 96
c0 16.667 -1.33301 31.167 -4 43.5s-6.66699 24.5 -12 36.5s-12.166 25.167 -20.499 39.5s-17.166 31.833 -26.499 52.5c-6.66699 12 -17 31.667 -31 59l-46.5 91.5l-55 106.5l-55 106.5l-47 90.5c-14.333 26.667 -25.166 46 -32.499 58c-13.333 22 -20.333 43.833 -21 65.5
s-1 44.167 -1 67.5c0 66.667 14.667 121.667 44 165s70 87.333 122 132c-2.66699 0 -7.83398 0.333008 -15.501 1s-12.834 1 -15.501 1c-20.667 0 -38.834 -5.5 -54.501 -16.5s-30.667 -23.167 -45 -36.5s-29 -25.5 -44 -36.5s-31.833 -16.5 -50.5 -16.5
c-15.333 0 -24.333 2.66699 -27 8s-7.33398 17 -14.001 35c-2.66699 8 -7.16699 19.833 -13.5 35.5l-19.5 50l-18.5 49c-5.66699 15 -8.83398 23.667 -9.50098 26s-1.33398 4.83301 -2.00098 7.5s-1 4.66699 -1 6z" />
    <glyph glyph-name="afii10021" unicode="&#x414;" horiz-adv-x="1208" 
d="M57 90c0 5.33301 0.667969 15.1631 2.00098 29.4961s8.33301 21.5 21 21.5h139c30 16.667 50.833 53.667 62.5 111s16.167 126 13.5 206s-10.834 166.333 -24.501 259s-30.834 181.334 -51.501 266.001c0 34 10 68.167 30 102.5s45 65.5 75 93.5s63 50.5 99 67.5
s70.333 25.5 103 25.5c0 -16.667 -4 -31.834 -12 -45.501s-17.5 -27.334 -28.5 -41.001s-21.667 -28.667 -32 -45s-16.833 -35.5 -19.5 -57.5c-4 -31.333 -4 -69.166 0 -113.499s9.5 -93.5 16.5 -147.5s13.833 -110.333 20.5 -169s11 -117.667 13 -177
s-0.333008 -117.666 -7 -174.999s-19.667 -110.666 -39 -159.999h303v822v39.5c0 19.667 0.333008 41.167 1 64.5s1 46.166 1 68.499v56.5c0 31.333 -7.5 56.166 -22.5 74.499s-33.667 32.333 -56 42s-47.833 15.834 -76.5 18.501s-56 4 -82 4
c-53.333 0 -98.5 -7.83301 -135.5 -23.5s-70.5 -48.834 -100.5 -99.501c-1.33301 0 -4.33301 -0.333008 -9 -1s-8.33398 -1 -11.001 -1c-18 0 -34.5 10 -49.5 30s-28.333 43.333 -40 70s-20.5 52.834 -26.5 78.501s-9 45.5 -9 59.5c0 4 0.666992 13.5 2 28.5s8 22.5 20 22.5
h615c34 0 64.667 -9.5 92 -28.5s49.833 -42.833 67.5 -71.5s31.334 -59.834 41.001 -93.501s14.5 -64.834 14.5 -93.501v-1067h131l41 -20c0 -1.33301 0.333008 -7.16602 1 -17.499s1 -18.166 1 -23.499c0 -24.667 -4.5 -48 -13.5 -70s-18.833 -43.167 -29.5 -63.5
s-20.5 -40.666 -29.5 -60.999s-13.5 -40.833 -13.5 -61.5c0 -8 2.33301 -14.5 7 -19.5s9.83398 -9.83301 15.501 -14.5s10.834 -9.66699 15.501 -15s7 -13 7 -23c0 -22 -6.5 -34.667 -19.5 -38s-29.167 -5 -48.5 -5c-26 0 -45.333 12.333 -58 37
s-21.834 52.334 -27.501 83.001s-8.83398 60.667 -9.50098 90s-1.66699 48.666 -3 57.999c-2.66699 12 -9.5 18.833 -20.5 20.5s-21.167 2.5 -30.5 2.5h-557c-22 0 -38.167 -7.16699 -48.5 -21.5s-17.833 -32.5 -22.5 -54.5s-8 -45.167 -10 -69.5
s-6.16699 -47.5 -12.5 -69.5s-16.166 -40.167 -29.499 -54.5s-33 -21.5 -59 -21.5c-18 0 -31.833 2.5 -41.5 7.5s-14.5 16.833 -14.5 35.5c0 9.33301 2.5 16.833 7.5 22.5s10.167 10.834 15.5 15.501s10.333 9.5 15 14.5s7 11.5 7 19.5c0 20.667 -4.33301 41.834 -13 63.501
s-18.5 43.834 -29.5 66.501s-21 45.167 -30 67.5s-13.5 45.166 -13.5 68.499z" />
    <glyph glyph-name="afii10022" unicode="&#x415;" horiz-adv-x="843" 
d="M53 266l-0.000976562 840.001c0 13.333 5.83301 32.666 17.5 57.999s26.667 52.333 45 81s38.833 57.667 61.5 87s45.334 56.333 68.001 81s44.167 44.5 64.5 59.5s37.166 22.5 50.499 22.5h390v-328h-41c-4 5.33301 -11.833 13.833 -23.5 25.5l-37 37l-37 37
c-11.667 11.667 -20.167 19.5 -25.5 23.5c-2.66699 2.66699 -9.5 6.83398 -20.5 12.501s-17.833 8.5 -20.5 8.5h-226l-40 -41v-375h200c22 0 43.5 1.66699 64.5 5s41.833 10.666 62.5 21.999c12 6.66699 20.833 16.5 26.5 29.5s11.167 26.333 16.5 40
s12.166 25.167 20.499 34.5s21.5 14 39.5 14v-462c-20.667 0 -35.5 7.16699 -44.5 21.5s-16.5 30.333 -22.5 48s-12.833 33.667 -20.5 48s-19.5 21.5 -35.5 21.5h-287v-410c0 -31.333 7.5 -56.166 22.5 -74.499s33.833 -33 56.5 -44s47.334 -18.167 74.001 -21.5
s50.667 -5 72 -5c48 0 84.333 9.83301 109 29.5s43.5 41.167 56.5 64.5s22.833 44.833 29.5 64.5s16.334 29.5 29.001 29.5c20.667 0 33.334 -5.5 38.001 -16.5s7 -25.833 7 -44.5c0 -56 -10 -102.5 -30 -139.5s-46.333 -66.667 -79 -89s-70.834 -38.333 -114.501 -48
s-89.5 -14.5 -137.5 -14.5c-40.667 0 -83.167 4.16699 -127.5 12.5s-85 22.666 -122 42.999s-67.833 47.833 -92.5 82.5s-37 78 -37 130z" />
    <glyph glyph-name="afii10024" unicode="&#x416;" horiz-adv-x="1568" 
d="M59 33c0 13.333 4.83203 28.8281 14.499 46.4951s20.667 36.167 33 55.5s24 38.833 35 58.5s17.167 37.834 18.5 54.501c1.33301 12 2.33301 29.667 3 53s1 50 1 80v201v198c6.66699 57.333 25.667 109.333 57 156s67 90.334 107 131.001v20l-69 80
c-26.667 30 -52 62.167 -76 96.5s-44.167 69.5 -60.5 105.5s-24.5 72 -24.5 108h361c0 -20.667 -3.83301 -39.5 -11.5 -56.5s-15.834 -33.667 -24.501 -50s-16.834 -33.5 -24.501 -51.5s-11.5 -37 -11.5 -57c0 -30 12 -64.833 36 -104.5s52 -79 84 -118s64 -74.5 96 -106.5
s56.333 -55.667 73 -71v453c0 8 -4.16699 20.167 -12.5 36.5l-25.5 48c-8.66699 15.667 -17.167 29.667 -25.5 42s-12.5 19.833 -12.5 22.5s0.333008 6.16699 1 10.5s2.66699 8.83301 6 13.5s8.66602 8.33398 15.999 11.001h20c9.33301 0 19.5 0.333008 30.5 1
s21.5 1 31.5 1h67h107c9.33301 0 19.5 -0.333008 30.5 -1s21.167 -1 30.5 -1h21c6.66699 -2.66699 11.667 -6.33398 15 -11.001s5.33301 -9.16699 6 -13.5s1 -7.83301 1 -10.5s-4.16699 -10.167 -12.5 -22.5s-16.833 -26.333 -25.5 -42l-25.5 -48
c-8.33301 -16.333 -12.5 -28.5 -12.5 -36.5l2 -451c16.667 15.333 41 39 73 71s64 67.5 96 106.5s60 78.333 84 118s36 74.5 36 104.5c0 20.667 -3.66699 39.834 -11 57.501s-15.5 34.667 -24.5 51s-17.333 33 -25 50s-11.5 35.833 -11.5 56.5h361
c0 -35.333 -8.16699 -71.166 -24.5 -107.499s-36.5 -71.666 -60.5 -105.999s-49.333 -66.5 -76 -96.5l-69 -79v-21c39.333 -40.667 74.833 -84.334 106.5 -131.001s50.834 -98.667 57.501 -156v-198v-201c0 -30 0.333008 -56.667 1 -80s1.66699 -41 3 -53
c1.33301 -16.667 7.5 -34.834 18.5 -54.501s22.667 -39 35 -58s23.333 -37.5 33 -55.5s14.5 -33.667 14.5 -47c-1.33301 -5.33301 -3.33301 -11 -6 -17c-5.33301 -9.33301 -11 -14 -17 -14h-225c-1.33301 0 -4.33301 2.66699 -9 8s-8.66699 9.66602 -12 12.999l-40 81
c-1.33301 12 -2.83301 30.833 -4.5 56.5s-3.16699 54.834 -4.5 87.501l-4 102.5c-1.33301 35.667 -2.66602 69.5 -3.99902 101.5s-2.33301 61 -3 87s-1 45 -1 57s-1 32.833 -3 62.5s-6.16699 59.5 -12.5 89.5s-15.5 56.5 -27.5 79.5s-28.333 34.5 -49 34.5
c-18 0 -37.167 -6.5 -57.5 -19.5s-39 -28.667 -56 -47s-31.333 -38.333 -43 -60s-17.5 -40.834 -17.5 -57.501v-553c10.667 -15.333 21.167 -34.166 31.5 -56.499s15.5 -44.5 15.5 -66.5h-334c-6.66699 0 -12 4.83301 -16 14.5s-6 15.167 -6 16.5s2.33301 6 7 14
s10 16.5 16 25.5l18.5 28c6.33301 9.66699 10.833 17.834 13.5 24.501v537l-14 24c0 16.667 -6.16699 35.167 -18.5 55.5s-27.5 39.333 -45.5 57s-37.5 32.334 -58.5 44.001s-40.5 17.5 -58.5 17.5c-20.667 0 -37 -11.5 -49 -34.5s-21.167 -49.667 -27.5 -80
s-10.5 -60.166 -12.5 -89.499s-3 -50 -3 -62s-0.333008 -31 -1 -57s-1.66699 -55.167 -3 -87.5l-4 -101.5l-4 -102c-1.33301 -32.667 -2.66602 -61.667 -3.99902 -87s-2.66602 -44.333 -3.99902 -57l-41 -81c-2.66699 -2.66699 -6.5 -6.83398 -11.5 -12.501
s-8.16699 -8.5 -9.5 -8.5h-225c-6.66699 0 -12 4.66699 -16 14c-2.66699 5.33301 -5 11 -7 17z" />
    <glyph glyph-name="afii10025" unicode="&#x417;" horiz-adv-x="921" 
d="M51 504c0 49.333 5.50098 99.1621 16.501 149.495s29.167 96 54.5 137s58.166 74.5 98.499 100.5s89.166 39 146.499 39c0 -13.333 -5.5 -27.666 -16.5 -42.999s-24 -30.166 -39 -44.499l-44 -43c-14.333 -14.333 -24.166 -27.5 -29.499 -39.5
c-18 -34 -29.333 -74 -34 -120s-7 -88 -7 -126c0 -39.333 3.66699 -79.833 11 -121.5s19.833 -79.667 37.5 -114s41.5 -62 71.5 -83s68.333 -31.5 115 -31.5c48 0 86 13.333 114 40s49.5 59.334 64.5 98.001s24.833 80 29.5 124s7 83.667 7 119
c0 135.333 -28.333 238.833 -85 310.5s-151 114.834 -283 129.501c0 1.33301 -0.5 3 -1.5 5s-1.5 3.66699 -1.5 5c0 4 11.667 19.667 35 47l80 92.5c30 34.333 58 68.166 84 101.499s42.333 59 49 77c0 2.66699 -0.666992 6 -2 10s-2 7.33301 -2 10h-221
c-19.333 0 -33.666 -7.5 -42.999 -22.5s-18.833 -31.667 -28.5 -50s-20 -35 -31 -50s-26.5 -22.5 -46.5 -22.5h-15c-5.33301 0 -11 0.333008 -17 1s-11.5 2.66699 -16.5 6s-7.5 8.33301 -7.5 15v308h656c2.66699 0 9 -5.16699 19 -15.5s17.333 -18.833 22 -25.5v-11v-10
c-1.33301 -2.66699 -4.5 -9.5 -9.5 -20.5s-8.83301 -17.833 -11.5 -20.5l-41 -54l-61.5 -80l-61 -80c-19 -25.333 -32.833 -42.666 -41.5 -51.999c58.667 -34 107.834 -69.167 147.501 -105.5s71.5 -76 95.5 -119s41 -91.5 51 -145.5s15 -115.667 15 -185
c0 -53.333 -3 -105.333 -9 -156s-16.5 -99.167 -31.5 -145.5s-35.833 -90.666 -62.5 -132.999s-61 -81.166 -103 -116.499c-6.66699 -6.66699 -18 -15.167 -34 -25.5s-25.333 -15.5 -28 -15.5h-307c-2.66699 0 -9.5 2.66699 -20.5 8s-17.833 9.66602 -20.5 12.999
c-40.667 35.333 -74.334 70.333 -101.001 105s-47.834 71.5 -63.501 110.5s-26.667 80 -33 123s-9.5 90.5 -9.5 142.5z" />
    <glyph glyph-name="afii10026" unicode="&#x418;" horiz-adv-x="1026" 
d="M59 1260c0 13.333 2.83105 33.3281 8.49805 59.9951s12.5 53 20.5 79s17.5 48.5 28.5 67.5s22.167 28.5 33.5 28.5h376c0 -28.667 -9.16699 -59 -27.5 -91l-59 -100.5c-21 -35 -40.833 -70.5 -59.5 -106.5s-28 -73.333 -28 -112v-786
c0 -19.333 4.83301 -37.833 14.5 -55.5s22.334 -33 38.001 -46s32.667 -23.5 51 -31.5s36.5 -12 54.5 -12c20.667 0 38.834 5.66699 54.501 17s29.334 25.666 41.001 42.999s21.5 35.5 29.5 54.5s14 35.833 18 50.5v936v70c0 20.667 -0.666992 36.334 -2 47.001
c-5.33301 8 -12.5 16.833 -21.5 26.5s-17.5 20 -25.5 31s-15.167 22 -21.5 33s-9.5 21.833 -9.5 32.5h361c0 -22 -5.16699 -44.167 -15.5 -66.5s-20.833 -41.166 -31.5 -56.499v-1114c0 -23.333 4.33301 -44.833 13 -64.5s18.167 -38.667 28.5 -57s20 -36.833 29 -55.5
s13.5 -38 13.5 -58c0 -1.33301 -0.666992 -5 -2 -11c-2.66699 -2.66699 -6.16699 -6.66699 -10.5 -12s-7.83301 -8 -10.5 -8h-225c-1.33301 0 -4.33301 2.66699 -9 8s-8.66699 9.33301 -12 12c-2.66699 4 -7 11.833 -13 23.5s-12 24.334 -18 38.001
s-12.167 26.334 -18.5 38.001s-10.166 19.5 -11.499 23.5c-6.66699 -30 -18.5 -54.5 -35.5 -73.5s-36.5 -33.667 -58.5 -44s-46 -17.5 -72 -21.5s-51.333 -6 -76 -6c-60 0 -108.333 12.167 -145 36.5s-65 56.333 -85 96s-33.333 84.834 -40 135.501s-10 102.667 -10 156v252
v317c15.333 74 40.666 137.833 75.999 191.5s81.666 105.834 138.999 156.501l-62 2c-23.333 0 -43.833 -3.66699 -61.5 -11s-34.334 -15.833 -50.001 -25.5s-31.667 -18.167 -48 -25.5s-34.166 -11 -53.499 -11z" />
    <glyph glyph-name="afii10027" unicode="&#x419;" horiz-adv-x="1026" 
d="M59 1260c0 13.333 2.83105 33.332 8.49805 59.999s12.5 53 20.5 79s17.5 48.5 28.5 67.5s22.167 28.5 33.5 28.5h376c0 -28.667 -9.16699 -59 -27.5 -91l-59 -100.5c-21 -35 -40.833 -70.5 -59.5 -106.5s-28 -73.333 -28 -112v-786c0 -19.333 4.83301 -37.833 14.5 -55.5
s22.334 -33 38.001 -46s32.667 -23.5 51 -31.5s36.5 -12 54.5 -12c20.667 0 38.834 5.66699 54.501 17s29.334 25.666 41.001 42.999s21.5 35.5 29.5 54.5s14 35.833 18 50.5v936v70v27.5c0 7.66699 -0.666992 14.167 -2 19.5c-5.33301 8 -12.5 16.833 -21.5 26.5
s-17.5 20 -25.5 31s-15.167 22 -21.5 33s-9.5 21.833 -9.5 32.5h361c0 -22 -5.16699 -44.167 -15.5 -66.5s-20.833 -41.166 -31.5 -56.499v-1114c0 -23.333 4.33301 -44.833 13 -64.5s18.167 -38.667 28.5 -57s20 -36.833 29 -55.5s13.5 -38 13.5 -58
c0 -2.66699 -0.666992 -6.33398 -2 -11.001c-2.66699 -2.66699 -6.16699 -6.66699 -10.5 -12s-7.83301 -8 -10.5 -8h-225c-1.33301 0 -4.33301 2.66699 -9 8s-8.66699 9.33301 -12 12c-2.66699 4 -7 11.833 -13 23.5l-19.5 37c-7 13 -13.167 25.667 -18.5 38
s-8.66602 20.5 -9.99902 24.5c-6.66699 -30 -18.167 -54.5 -34.5 -73.5s-35.833 -33.667 -58.5 -44s-47 -17.5 -73 -21.5s-51.333 -6 -76 -6c-60 0 -108.333 12.167 -145 36.5s-65 56.333 -85 96s-33.333 84.834 -40 135.501s-10 102.667 -10 156v252v317
c15.333 74 40.666 137.833 75.999 191.5s81.666 105.834 138.999 156.501l-62 2c-23.333 0 -43.833 -3.66699 -61.5 -11s-34.334 -15.833 -50.001 -25.5s-31.667 -18.167 -48 -25.5s-34.166 -11 -53.499 -11zM275.998 1812l41 38.999l150 -125
c18 -15.333 37 -22.666 57 -21.999c8 0 16.333 2 25 6l162 127c12 6.66699 19.333 10 22 10c4 0 9 -4 15 -12l90 -109c5.33301 -6.66699 8 -10.667 8 -12c0 -4 -2 -6 -6 -6c-1.33301 0 -5 0.666992 -11 2c-2.66699 1.33301 -8 2 -16 2c-20.667 0 -39 -6 -55 -18l-160 -119
c-13.333 -9.33301 -25 -14 -35 -14c-6.66699 0 -13.5 2 -20.5 6s-15.167 10.667 -24.5 20z" />
    <glyph glyph-name="afii10028" unicode="&#x41a;" horiz-adv-x="1026" 
d="M53 1464c0 1.33301 0.671875 5.00293 2.00488 11.0029c1.33301 2.66699 4.5 6.33398 9.5 11.001s8.83301 7.66699 11.5 9h20c9.33301 0 19.5 0.333008 30.5 1s21.5 1 31.5 1h20h47c20.667 0 41.167 -2.66699 61.5 -8s38 -13.833 53 -25.5s22.5 -28.5 22.5 -50.5v-553
c16.667 15.333 41 39 73 71s64.167 67.5 96.5 106.5s60.333 78.167 84 117.5s35.5 74.333 35.5 105c0 20.667 -3.66699 39.667 -11 57s-15.5 34.333 -24.5 51s-17.167 33.5 -24.5 50.5s-11 35.833 -11 56.5h360c0 -35.333 -8.16699 -71.166 -24.5 -107.499
s-36.5 -71.666 -60.5 -105.999s-49.333 -66.5 -76 -96.5s-49.334 -56.667 -68.001 -80v-20c39.333 -40.667 74.666 -84.334 105.999 -131.001s50.333 -98.667 57 -156v-198v-103v-98c0 -30 0.5 -56.667 1.5 -80s2.16699 -41 3.5 -53c1.33301 -16.667 7 -34.834 17 -54.501
s21.167 -39.167 33.5 -58.5l34 -55.5c10.333 -17.667 15.5 -33.167 15.5 -46.5c0 -1.33301 -0.666992 -5 -2 -11c-2.66699 -2.66699 -6 -6.66699 -10 -12s-7.66699 -8 -11 -8h-225c-1.33301 0 -4.33301 2.66699 -9 8s-8.33398 9.33301 -11.001 12l-41 82
c-1.33301 18 -3 50.5 -5 97.5l-6.5 148.5l-6.5 147.5c-2 46.333 -3 79.166 -3 98.499c0 12 -1 32.667 -3 62s-6 59.166 -12 89.499s-14.833 57 -26.5 80s-28.5 34.5 -50.5 34.5c-18 0 -37.167 -6.5 -57.5 -19.5s-39 -28.667 -56 -47s-31.333 -38.5 -43 -60.5
s-17.5 -41 -17.5 -57v-553c10.667 -15.333 21.167 -34.166 31.5 -56.499s15.5 -44.5 15.5 -66.5h-334c-1.33301 0 -4.66602 2.66699 -9.99902 8s-8.33301 8.66602 -9 9.99902s-1.33398 3.5 -2.00098 6.5s-1 5.16699 -1 6.5s0.666992 4.66602 2 9.99902
c1.33301 2.66699 4.66602 8.16699 9.99902 16.5s10.833 16.5 16.5 24.5s11.167 16.167 16.5 24.5s8.66602 13.833 9.99902 16.5v1188c0 8 -3.33301 19.167 -10 33.5s-14.5 28.666 -23.5 42.999l-26 40c-8.33301 12.333 -12.833 19.833 -13.5 22.5l-2 8
c-0.666992 2.66699 -1 4.66699 -1 6z" />
    <glyph glyph-name="afii10029" unicode="&#x41b;" horiz-adv-x="972" 
d="M39 31c0 2.66699 0.668945 5.99707 2.00195 9.99707c5.33301 9.33301 12.166 17.5 20.499 24.5l23.5 20.5c7.33301 6.66699 13.833 14.167 19.5 22.5s8.5 19.833 8.5 34.5l2 826c0 74 2 147 6 219c10.667 24.667 26.667 54.667 48 90s45.666 69 72.999 101
s56.666 59.333 87.999 82s62.666 34 93.999 34h246c24.667 0 47.167 -7.16699 67.5 -21.5s38 -31.666 53 -51.999s28 -42.5 39 -66.5s19.167 -45.667 24.5 -65c1.33301 -9.33301 2 -20.166 2 -32.499v-45.5c0 -35.333 0.333008 -75.166 1 -119.499s1 -91.166 1 -140.499
v-139v-119v-80v-249c0 -23.333 2.66699 -44 8 -62s8 -30.333 8 -37c1.33301 -20.667 6.5 -41.167 15.5 -61.5s18.667 -40.333 29 -60s19.5 -39.167 27.5 -58.5s12 -37.666 12 -54.999c0 -2.66699 -0.666992 -6.33398 -2 -11.001
c-2.66699 -2.66699 -6.33398 -6.66699 -11.001 -12s-7.66699 -8 -9 -8h-225l-82 164l2 563v86c0 34 -0.333008 67.833 -1 101.5s-1 63.5 -1 89.5v40c0 30 -1.83301 63.167 -5.5 99.5s-11.5 70.166 -23.5 101.499s-29.667 57.333 -53 78s-54 31 -92 31c-8 0 -19 -1 -33 -3
s-27.833 -5.5 -41.5 -10.5s-25.167 -11.5 -34.5 -19.5s-14 -18.333 -14 -31l-2 -1186c0 -1.33301 -1.33301 -5.66602 -4 -12.999s-5.83398 -15.5 -9.50098 -24.5l-10.5 -26.5c-3.33301 -8.66699 -5.66602 -15.334 -6.99902 -20.001
c-1.33301 -2.66699 -4.66602 -6.66699 -9.99902 -12s-8.66602 -8 -9.99902 -8h-218c-1.33301 0 -4.66602 2.66699 -9.99902 8l-10 10c0 1.33301 -0.333008 3.5 -1 6.5s-1 5.16699 -1 6.5z" />
    <glyph glyph-name="afii10030" unicode="&#x41c;" horiz-adv-x="1527" 
d="M25 1446c0 5.33301 0.667969 15.165 2.00098 29.498s8 21.5 20 21.5h592c27.333 0 52.333 -6.16699 75 -18.5s42.834 -28.666 60.501 -48.999s32.334 -43.166 44.001 -68.499s20.834 -51 27.501 -77c4 10.667 12.5 27.667 25.5 51s27.333 47 43 71s31.667 44.833 48 62.5
s30.166 26.5 41.499 26.5h430c2.66699 0 9 -5.16699 19 -15.5s15.667 -17.5 17 -21.5c4 -4 6.33301 -8.66699 7 -14c0 -13.333 -6.5 -28.333 -19.5 -45l-42 -54.5c-15 -19.667 -29 -40.834 -42 -63.501s-19.5 -47 -19.5 -73v-1003c0 -19.333 4.33301 -37.5 13 -54.5
s18.5 -33.333 29.5 -49s21 -31.667 30 -48s13.5 -34.166 13.5 -53.499h-232c-10.667 0 -20.5 6.5 -29.5 19.5s-17.167 27.667 -24.5 44s-13.5 32.333 -18.5 48s-8.16699 26.167 -9.5 31.5l-10 1024l113 144h-246c-18 0 -34.833 -9 -50.5 -27s-29.334 -38.5 -41.001 -61.5
s-20.834 -45.833 -27.501 -68.5s-10 -38.667 -10 -48v-920c0 -19.333 4.16699 -36 12.5 -50s17.5 -27.833 27.5 -41.5s19.167 -28 27.5 -43s12.5 -31.5 12.5 -49.5h-381c0 15.333 3.33301 29.333 10 42s14.167 25.5 22.5 38.5s15.833 26.333 22.5 40s10 28.167 10 43.5v799
v33c0 22.667 0.5 48 1.5 76s1.5 54 1.5 78v42c0 31.333 -6.16699 56.166 -18.5 74.499s-28.833 32.333 -49.5 42s-44 15.834 -70 18.501s-51.667 4 -77 4c-53.333 0 -98.5 -7.83301 -135.5 -23.5s-70.5 -48.834 -100.5 -99.501c-1.33301 0 -4.33301 -0.333008 -9 -1
s-8.33398 -1 -11.001 -1c-18 0 -34.5 10 -49.5 30s-28.333 43.333 -40 70s-20.5 52.834 -26.5 78.501s-9 45.5 -9 59.5zM53.001 32.999c0 2.66699 0.666016 6.00195 1.99902 10.002c5.33301 9.33301 12.166 17.5 20.499 24.5l24 20.5
c7.66699 6.66699 14.167 14.167 19.5 22.5s8 19.833 8 34.5v840c0 34 9.83301 68.167 29.5 102.5s44.5 65.5 74.5 93.5s63.167 50.5 99.5 67.5s70.833 25.5 103.5 25.5c0 -16.667 -4.33301 -31.167 -13 -43.5s-18.167 -24.5 -28.5 -36.5s-19.666 -24.833 -27.999 -38.5
s-12.5 -29.5 -12.5 -47.5v-143v-861c0 -1.33301 -1.33301 -5.33301 -4 -12l-9 -23.5l-10 -26.5c-3.33301 -8.66699 -5.66602 -15 -6.99902 -19c-1.33301 -2.66699 -4.83301 -6.83398 -10.5 -12.501s-9.16699 -8.5 -10.5 -8.5h-225c-1.33301 0 -4.83301 2.66699 -10.5 8
s-8.5 8.66602 -8.5 9.99902c-2.66699 2.66699 -4 7 -4 13z" />
    <glyph glyph-name="afii10031" unicode="&#x41d;" horiz-adv-x="1048" 
d="M47 1116l100 0.00292969c0 2.66699 0.833008 12.167 2.5 28.5s3.16699 38.166 4.5 65.499s2 51.333 2 72v29c-1.33301 16.667 -5.83301 32.334 -13.5 47.001s-15.667 29.167 -24 43.5s-15.5 29 -21.5 44s-9 31.5 -9 49.5h236c1.33301 0 4.33301 -2.66699 9 -8
s8.33398 -9.33301 11.001 -12c6.66699 -10.667 15.167 -26.334 25.5 -47.001s15.5 -32.334 15.5 -35.001v-267c8 -1.33301 25 -2 51 -2h82h150v248c0 2.66699 -2.16699 9.16699 -6.5 19.5l-13.5 32l-13 31.5l-8 20c0 2.66699 -0.666992 6 -2 10s-2 7.33301 -2 10h338
c0 -22 -6.5 -44.167 -19.5 -66.5s-25.167 -41.166 -36.5 -56.499v-1188c0 -16.667 4.16699 -32.334 12.5 -47.001l25.5 -43.5l25.5 -44c8.33301 -15 12.5 -31.5 12.5 -49.5h-231c-5.33301 0 -11.5 5.5 -18.5 16.5s-12.5 20.833 -16.5 29.5s-6 13.667 -6 15
c-2.66699 5.33301 -5.83398 12.5 -9.50098 21.5l-10.5 27c-3.33301 9 -7 20.167 -11 33.5v840h-293v-758c0 -22 3.5 -42.167 10.5 -60.5s14.833 -36.333 23.5 -54s16.5 -35.334 23.5 -53.001s10.5 -36.834 10.5 -57.501h-344c0 16.667 2.33301 31.334 7 44.001
s10 25.5 16 38.5s11.5 26 16.5 39s7.5 27.167 7.5 42.5v827l-50 -2c-13.333 0 -24.5 3.5 -33.5 10.5s-15.5 21.833 -19.5 44.5c-2.66699 10.667 -4.66699 34.667 -6 72z" />
    <glyph glyph-name="afii10032" unicode="&#x41e;" 
d="M55 659c0 26 0.333008 49.3311 1 69.998s1 38.334 1 53.001v35c0 46.667 3.83301 96.667 11.5 150s22.334 102.5 44.001 147.5s52 82.5 91 112.5s89.167 45 150.5 45c0 -19.333 -3.33301 -38.5 -10 -57.5s-14.167 -38.833 -22.5 -59.5s-15.833 -42.167 -22.5 -64.5
s-10 -46.5 -10 -72.5v-629c1.33301 -32.667 7.83301 -64.334 19.5 -95.001s27.334 -57.334 47.001 -80.001s43.5 -40.834 71.5 -54.501s59.667 -20.5 95 -20.5c28.667 0 51.5 6.5 68.5 19.5s30.667 29.833 41 50.5s17.166 43.834 20.499 69.501s5 52.167 5 79.5v115v21
c0 6.66699 0.666992 12.667 2 18v489v70c0 23.333 -1.33301 48.666 -4 75.999c-6.66699 74 -32.834 123.5 -78.501 148.5s-101.834 37.5 -168.501 37.5c-32.667 0 -62.834 -4.66699 -90.501 -14s-54.667 -20.166 -81 -32.499s-53.166 -23.333 -80.499 -33
s-56 -14.5 -86 -14.5c0 16.667 3.66699 39.334 11 68.001s16.5 57 27.5 85s23 52.167 36 72.5s25.5 30.5 37.5 30.5h471c54.667 0 97 -17.333 127 -52s52.167 -76.334 66.5 -125.001s23.333 -98.167 27 -148.5s5.5 -92.166 5.5 -125.499v-716
c-10.667 -22 -29.167 -51.5 -55.5 -88.5s-55.166 -73.167 -86.499 -108.5s-62 -66 -92 -92s-54.667 -39 -74 -39h-286c-34 0 -63.333 10.5 -88 31.5s-45.5 49.333 -62.5 85s-30.667 76.334 -41 122.001s-18.333 93.167 -24 142.5s-9.5 97.833 -11.5 145.5
s-3 91.834 -3 132.501z" />
    <glyph glyph-name="afii10033" unicode="&#x41f;" horiz-adv-x="1030" 
d="M61 1495l221.997 0.000976562c10.667 0 20.834 -9.5 30.501 -28.5s18.167 -40.833 25.5 -65.5s13 -48 17 -70s7 -35.667 9 -41c4 5.33301 10.667 16 20 32l30.5 50.5l31 49c9.66699 15 16.5 25.833 20.5 32.5c2.66699 2.66699 6.33398 6.83398 11.001 12.501
s7.66699 8.5 9 8.5h390c13.333 0 26.5 -4.83301 39.5 -14.5s24 -21.334 33 -35.001s16.167 -28 21.5 -43s8 -28.833 8 -41.5c0 -19.333 -4.5 -38.166 -13.5 -56.499s-20.333 -36 -34 -53s-27.667 -33 -42 -48s-26.833 -27.167 -37.5 -36.5v-901
c0 -20.667 5.83301 -39.5 17.5 -56.5s24 -33.333 37 -49s25.333 -31.667 37 -48s17.5 -33.5 17.5 -51.5c0 -2.66699 -0.5 -6.33398 -1.5 -11.001s-1.5 -8 -1.5 -10c-6.66699 -2.66699 -20.167 -6.33398 -40.5 -11.001s-33.833 -7.66699 -40.5 -9h-11h-10
c-6.66699 0 -16.834 1 -30.501 3s-28.667 4 -45 6s-31.666 4 -45.999 6s-24.166 3.66699 -29.499 5c-24.667 27.333 -44.5 62.5 -59.5 105.5s-22.5 83.167 -22.5 120.5v839c0 22 6.83301 39.5 20.5 52.5s29 25 46 36s32.333 22.667 46 35s20.5 29.5 20.5 51.5
c0 9.33301 -0.666992 19.5 -2 30.5s-8.33301 18.5 -21 22.5h-102c-23.333 0 -50.333 -2.5 -81 -7.5s-59.667 -13.5 -87 -25.5s-50.5 -29 -69.5 -51s-28.5 -49.333 -28.5 -82v-1000l16 -23.5l25.5 -37.5l24.5 -37.5l15 -23.5c1.33301 -1.33301 2.5 -4.83301 3.5 -10.5
s1.5 -9.16699 1.5 -10.5h-369c0 19.333 4.83301 37.833 14.5 55.5s21.167 33.167 34.5 46.5v1164z" />
    <glyph glyph-name="afii10034" unicode="&#x420;" horiz-adv-x="944" 
d="M49 1489l682.007 -0.000976562c22 0 43.167 -6.5 63.5 -19.5s38.333 -28.667 54 -47s29 -38.5 40 -60.5s18.5 -41 22.5 -57v-627c0 -9.33301 -2 -21.166 -6 -35.499s-9 -29.5 -15 -45.5s-12.5 -30.333 -19.5 -43s-12.5 -22 -16.5 -28
c-1.33301 -2.66699 -11.833 -15.167 -31.5 -37.5l-68.5 -80l-80 -93.5l-66 -75l-20 -21h-164c-16.667 0 -27.667 -7.33301 -33 -22c-2.66699 -6.66699 -4.33398 -15.167 -5.00098 -25.5s-1 -16.166 -1 -17.499v-146c0 -22 0.666992 -42.833 2 -62.5
s3.33301 -36.834 6 -51.501l72 -84c1.33301 -2.66699 2.66602 -9.5 3.99902 -20.5s2 -17.833 2 -20.5h-360c0 22 6.5 44.167 19.5 66.5s24.833 40.833 35.5 55.5v359h-111v51l113 123v655c0 20.667 10.833 42.334 32.5 65.001s48 43.167 79 61.5s62.5 33.666 94.5 45.999
s57.667 18.5 77 18.5c0 -13.333 -3.16699 -24.166 -9.5 -32.499s-13.5 -16.333 -21.5 -24s-15.167 -15.167 -21.5 -22.5s-9.5 -17.333 -9.5 -30v-717c0 -2.66699 9.16699 -6.33398 27.5 -11.001s32.5 -7.66699 42.5 -9c2.66699 0 15.167 -0.333008 37.5 -1
s39.166 -1 50.499 -1c6.66699 0 20.167 0.333008 40.5 1s34.166 1 41.499 1c8 2.66699 14.667 9.16699 20 19.5s9.5 21 12.5 32s5.16699 21.5 6.5 31.5s2 16.333 2 19v676c0 30 -7.5 54.667 -22.5 74s-33.833 34 -56.5 44s-47.334 16.833 -74.001 20.5s-51 5.5 -73 5.5
c-27.333 0 -52.833 -1.5 -76.5 -4.5s-45.834 -8.5 -66.501 -16.5s-39.5 -20.167 -56.5 -36.5s-32.167 -38.166 -45.5 -65.499c-1.33301 0 -4.5 -0.333008 -9.5 -1s-8.83301 -1 -11.5 -1c-20.667 0 -39.167 11.167 -55.5 33.5s-29.833 48.5 -40.5 78.5
s-18.834 59.667 -24.501 89s-8.5 51.666 -8.5 66.999z" />
    <glyph glyph-name="afii10035" unicode="&#x421;" horiz-adv-x="854" 
d="M53 307l-0.000976562 736.997c0 44 10 86.5 30 127.5s44.333 79.833 73 116.5s59.667 70.834 93 102.501l91 84.5c2.66699 2.66699 9.5 6.66699 20.5 12s17.833 8 20.5 8h410v-82c0 -1.33301 -4.83301 -11.5 -14.5 -30.5l-34 -67.5l-40 -80l-34.5 -68
c-6.66699 -13.333 -16.167 -28.5 -28.5 -45.5s-24 -35.5 -35 -55.5s-20.667 -39.833 -29 -59.5s-12.5 -39.167 -12.5 -58.5c0 -4 0.666992 -12.667 2 -26c1.33301 -1.33301 6.16602 -3.16602 14.499 -5.49902s17.333 -4.16602 27 -5.49902s18.5 -3 26.5 -5
s12.667 -3.66699 14 -5c2.66699 -4 5.83398 -10.833 9.50098 -20.5s7.16699 -19.834 10.5 -30.501s6 -20.834 8 -30.501s3 -16.5 3 -20.5h-236c-9.33301 0 -15.333 8.5 -18 25.5s-4 28.833 -4 35.5c0 28.667 4.33301 57 13 85s18.5 56.333 29.5 85s21 57.667 30 87
s13.5 59.666 13.5 90.999c0 6.66699 -0.333008 20.334 -1 41.001s-1 34.334 -1 41.001c-9.33301 19.333 -25.666 31.333 -48.999 36s-44.666 7 -63.999 7c-5.33301 0 -13.166 -0.666992 -23.499 -2s-20.5 -3.66602 -30.5 -6.99902s-18.833 -7.66602 -26.5 -12.999
s-11.5 -12.333 -11.5 -21v-921c0 -34 7.5 -64 22.5 -90s34.167 -47.667 57.5 -65s49.666 -30.333 78.999 -39s58.333 -13 87 -13c46.667 0 80.834 10.833 102.501 32.5s38 45.5 49 71.5s20.167 50 27.5 72s19.333 33 36 33c10.667 0 18.5 -3.16699 23.5 -9.5
s8.16699 -13.833 9.5 -22.5s1.66602 -17.834 0.999023 -27.501s-1 -17.167 -1 -22.5c0 -52 -9 -96.167 -27 -132.5s-42.333 -66.333 -73 -90s-66.5 -41 -107.5 -52s-85.167 -16.5 -132.5 -16.5c-46.667 0 -93.834 5.5 -141.501 16.5s-90.667 28.667 -129 53
s-69.5 56.333 -93.5 96s-36 87.5 -36 143.5z" />
    <glyph glyph-name="afii10036" unicode="&#x422;" horiz-adv-x="970" 
d="M33 1444c0 5.33301 0.667969 15.167 2.00098 29.5s8 21.5 20 21.5h840l41 -20c0 -1.33301 0.333008 -7.16602 1 -17.499s1 -18.166 1 -23.499c0 -24.667 -4.5 -48 -13.5 -70s-18.833 -43.167 -29.5 -63.5s-20.5 -40.833 -29.5 -61.5s-13.5 -41 -13.5 -61
c0 -8 2.33301 -14.5 7 -19.5s9.83398 -9.83301 15.501 -14.5s10.834 -9.83398 15.501 -15.501s7 -13.167 7 -22.5c0 -22 -6.5 -34.667 -19.5 -38s-29.167 -5 -48.5 -5c-26 0 -45.333 12.333 -58 37s-21.834 52.334 -27.501 83.001s-8.83398 60.667 -9.50098 90
s-1.66699 48.666 -3 57.999c-2.66699 12 -9.5 18.833 -20.5 20.5s-21.167 2.5 -30.5 2.5c-5.33301 0 -15.833 -0.666992 -31.5 -2s-23.5 -8.33301 -23.5 -21v-1208c4 -6.66699 11.167 -20.334 21.5 -41.001s16.833 -34.334 19.5 -41.001v-10v-11
c-1.33301 -2.66699 -4.83301 -6.66699 -10.5 -12s-9.16699 -8 -10.5 -8h-309c-1.33301 0 -1.33301 2.66699 0 8s1.66602 8.66602 0.999023 9.99902s-1.33398 3.5 -2.00098 6.5s-1 5.16699 -1 6.5s0.666992 4.66602 2 9.99902c2.66699 6.66699 9.16699 20.334 19.5 41.001
s17.5 34.334 21.5 41.001v1208c0 5.33301 -3.16699 9.83301 -9.5 13.5s-13.166 6.16699 -20.499 7.5s-14.333 2 -21 2h-15c-22 0 -38 -7.16699 -48 -21.5s-17.5 -32.5 -22.5 -54.5s-8.5 -45.333 -10.5 -70s-6 -47.834 -12 -69.501s-15.833 -39.667 -29.5 -54
s-33.5 -21.5 -59.5 -21.5c-18 0 -31.667 2.33301 -41 7s-14 16.667 -14 36c0 9.33301 2.33301 16.833 7 22.5s9.66699 10.834 15 15.501l15.5 14c5 4.66699 7.5 11.334 7.5 20.001c0 22 -4.5 43.5 -13.5 64.5s-19 42.667 -30 65s-20.833 44.833 -29.5 67.5
s-13 45.667 -13 69z" />
    <glyph glyph-name="afii10037" unicode="&#x423;" horiz-adv-x="913" 
d="M63 727l45.998 503.999c0 42 -7.16699 81.167 -21.5 117.5s-21.5 74.166 -21.5 113.499v11c2.66699 2.66699 6.33398 6.66699 11.001 12s7.66699 8 9 8h205c1.33301 0 4.33301 -2.66699 9 -8s8.33398 -9.33301 11.001 -12l43 -82v-134l-45 -522
c0 -30 2.16699 -61 6.5 -93s12.5 -61 24.5 -87s29.667 -47.167 53 -63.5s54 -24.5 92 -24.5c4 0 11.167 0.333008 21.5 1s20.666 1.66699 30.999 3s19.666 3.33301 27.999 6s12.5 6.66699 12.5 12v840c0 15.333 -2.5 29.833 -7.5 43.5s-10.5 27 -16.5 40
s-11.5 26.667 -16.5 41s-7.5 29.5 -7.5 45.5c54.667 0 110.667 -1.33301 168 -4s112.666 -10 165.999 -22v-21c0 -26 -5.5 -53.667 -16.5 -83s-19.167 -56.333 -24.5 -81v-63c0 -26 0.333008 -56.5 1 -91.5s1 -72.833 1 -113.5v-121v-123
c0 -39.333 -0.333008 -76.5 -1 -111.5s-1 -66.167 -1 -93.5v-61c0 -12 -0.666992 -32.333 -2 -61s-3 -59.5 -5 -92.5s-4.33301 -64.167 -7 -93.5s-4.66699 -49.333 -6 -60c-19.333 -57.333 -48.833 -101.666 -88.5 -132.999s-84.667 -54.166 -135 -68.499
s-103.166 -22.666 -158.499 -24.999s-107 -3.5 -155 -3.5c-9.33301 0 -21.833 0.333008 -37.5 1s-31.167 1 -46.5 1c-13.333 0 -25.5 0.333008 -36.5 1s-17.167 1 -18.5 1l-41 41v287c0 10.667 5.16699 17.167 15.5 19.5s18.833 3.5 25.5 3.5
c2.66699 0 6.33398 -0.333008 11.001 -1s7.66699 -1 9 -1l66 -75c22 -25.333 45.167 -47.5 69.5 -66.5s50.166 -34.667 77.499 -47s59 -18.5 95 -18.5c24.667 0 45.167 4.33301 61.5 13s28.833 20.5 37.5 35.5s14.834 32.5 18.501 52.5s5.5 41 5.5 63v84
c-16.667 -10.667 -35.667 -17.167 -57 -19.5s-42.666 -3.5 -63.999 -3.5h-62c-57.333 0 -106.833 9.83301 -148.5 29.5s-76.167 47 -103.5 82s-47.5 75.667 -60.5 122s-19.5 96.166 -19.5 149.499z" />
    <glyph glyph-name="afii10038" unicode="&#x424;" horiz-adv-x="1298" 
d="M41 733l0.00195312 84.001c0 54.667 1.66699 104.5 5 149.5s14.166 83.5 32.499 115.5s46.666 56.667 84.999 74s92.5 26 162.5 26l125 -4c15.333 -15.333 30 -29.166 44 -41.499l44 -40.5v12c0 10.667 4 26.667 12 48s17.833 43.166 29.5 65.499s24 43.833 37 64.5
s24.167 36.334 33.5 47.001c-2.66699 0 -6 0.333008 -10 1s-7.33301 1 -10 1c-22 0 -40.5 -5.83301 -55.5 -17.5s-29 -23.834 -42 -36.501s-26.333 -24.834 -40 -36.501s-29.5 -17.5 -47.5 -17.5c-15.333 0 -24.166 3 -26.499 9l-13.5 36
c-2.66699 6.66699 -7.16699 18.834 -13.5 36.501l-20 55.5c-7 19.333 -13.167 37.833 -18.5 55.5s-8.66602 29.834 -9.99902 36.501v21c2.66699 2.66699 6.33398 6.66699 11.001 12s8 8 10 8h479c0 -18 -2.83301 -37.5 -8.5 -58.5s-11.834 -41.667 -18.501 -62
s-14.167 -39.833 -22.5 -58.5l-20.5 -46v-170c12 13.333 25.333 25.833 40 37.5s28.667 24.5 42 38.5l125 4c69.333 0 123.166 -8.66699 161.499 -26s66.666 -42 84.999 -74s29.333 -70.5 33 -115.5s5.5 -94.833 5.5 -149.5v-88c0 -57.333 -1.83301 -116 -5.5 -176
s-14.667 -114 -33 -162s-46.666 -87.333 -84.999 -118s-92.166 -46 -161.499 -46c-19.333 0 -40.5 1.5 -63.5 4.5s-44.167 8.83301 -63.5 17.5s-35.5 21.5 -48.5 38.5s-19.5 39.167 -19.5 66.5c20.667 0 38.167 -4 52.5 -12s31.166 -12 50.499 -12
c22 0 41.833 6.16699 59.5 18.5s32.667 28 45 47s21.833 39 28.5 60s10 41.167 10 60.5v418c0 38 -13.333 64.833 -40 80.5s-55.667 23.5 -87 23.5c-20.667 0 -43.167 -8.16699 -67.5 -24.5s-45.5 -36.166 -63.5 -59.499v-852c9.33301 -16.667 19.166 -36.167 29.499 -58.5
s15.5 -36.833 15.5 -43.5h-336c0 1.33301 1.5 6.5 4.5 15.5s7.16699 18.5 12.5 28.5s11.333 20.5 18 31.5s13.667 19.833 21 26.5v844c-19.333 23.333 -41.666 44.5 -66.999 63.5s-49 28.5 -71 28.5c-31.333 0 -60.333 -7.83301 -87 -23.5s-40 -42.5 -40 -80.5v-412
c0 -19.333 3.5 -39.5 10.5 -60.5s16.667 -41 29 -60s27.333 -34.667 45 -47s37.5 -18.5 59.5 -18.5c19.333 0 36 4 50 12s31.333 12 52 12c0 -27.333 -6.5 -49.5 -19.5 -66.5s-29.333 -29.833 -49 -38.5s-40.834 -14.5 -63.501 -17.5s-43.334 -4.5 -62.001 -4.5
c-69.333 0 -123.333 15.167 -162 45.5s-67.167 69.666 -85.5 117.999s-29.166 102.166 -32.499 161.499s-5 117.666 -5 174.999z" />
    <glyph glyph-name="afii10039" unicode="&#x425;" horiz-adv-x="1015" 
d="M51 1497l293.001 -0.000976562c5.33301 0 11.5 -5.5 18.5 -16.5s12.5 -20.833 16.5 -29.5s6 -13.667 6 -15c4 -9.33301 10.833 -26.666 20.5 -51.999l31 -80l30.5 -81c9.33301 -26 16 -44 20 -54h21l108 328h287c0 -4 -0.666992 -14.167 -2 -30.5
s-2.66602 -26.5 -3.99902 -30.5c-2.66699 -8 -6.66699 -23 -12 -45l-17.5 -69l-18.5 -67.5c-6 -21 -10.333 -35.833 -13 -44.5c-1.33301 -2.66699 -4.5 -6.33398 -9.5 -11.001s-8.16699 -7.33398 -9.5 -8.00098s-3.33301 -1.33398 -6 -2.00098s-4.66699 -1 -6 -1
c-12 0 -21.167 4.33301 -27.5 13s-11.833 18.5 -16.5 29.5s-10.5 21 -17.5 30s-16.5 13.5 -28.5 13.5c-9.33301 0 -17.833 -1 -25.5 -3s-13.5 -8.66699 -17.5 -20c-4 -9.33301 -9.83301 -25.666 -17.5 -48.999l-25 -73.5c-9 -25.667 -17.167 -50.167 -24.5 -73.5
s-12.333 -39.666 -15 -48.999c-1.33301 -5.33301 -0.333008 -17.333 3 -36s5 -30.667 5 -36h225c0 -4 -0.333008 -11.5 -1 -22.5l-2 -34c-0.666992 -11.667 -1.66699 -23 -3 -34s-2 -18.5 -2 -22.5c0 -2.66699 -2.66699 -6.66699 -8 -12s-9.33301 -8 -12 -8h-164v-21
c0 -1.33301 6.16699 -19.333 18.5 -54l45 -125l54 -147.5l46.5 -123.5c15.333 -39.333 28.666 -70 39.999 -92s22.833 -41.833 34.5 -59.5s24.667 -36.167 39 -55.5s30.833 -46 49.5 -80c2.66699 -2.66699 5.16699 -9.5 7.5 -20.5s3.5 -17.833 3.5 -20.5h-256
c-9.33301 0 -19.5 6.5 -30.5 19.5s-21.667 27.667 -32 44s-19.333 32.333 -27 48s-12.167 26.167 -13.5 31.5l-143 390c-1.33301 2.66699 -4.33301 9.33398 -9 20.001s-8.66699 17.334 -12 20.001c-16.667 -38 -31.334 -73.333 -44.001 -106s-23.5 -65 -32.5 -97
s-16.167 -63.833 -21.5 -95.5s-8 -65.834 -8 -102.501c0 -22 4.16699 -39.833 12.5 -53.5s16.833 -26.167 25.5 -37.5s17.167 -23.5 25.5 -36.5s12.5 -29.167 12.5 -48.5h-338c-1.33301 0 -4.5 2.66699 -9.5 8l-9.5 10c-1.33301 1.33301 -2.33301 3.5 -3 6.5
s-1 5.16699 -1 6.5s0.666992 -0.666992 2 -6l103 122l219 656h-184c0 35.333 12.167 67 36.5 95s55.166 44 92.499 48c-20.667 56 -40.5 106.5 -59.5 151.5s-38.833 88 -59.5 129s-43 81.667 -67 122l-81 130.5c-1.33301 2.66699 -2.66602 6 -3.99902 10s-2 7.33301 -2 10z
" />
    <glyph glyph-name="afii10040" unicode="&#x426;" horiz-adv-x="1107" 
d="M59 1260c0 13.333 2.83301 33.3311 8.5 59.998s12.5 53 20.5 79s17.5 48.5 28.5 67.5s22.167 28.5 33.5 28.5h376c0 -28.667 -9.16699 -59 -27.5 -91l-59 -100.5c-21 -35 -40.833 -70.5 -59.5 -106.5s-28 -73.333 -28 -112v-786c0 -19.333 4.83301 -37.833 14.5 -55.5
s22.334 -33 38.001 -46s32.667 -23.5 51 -31.5s36.5 -12 54.5 -12c20.667 0 38.834 5.66699 54.501 17s29.334 25.666 41.001 42.999s21.5 35.5 29.5 54.5s14 35.833 18 50.5v936v70v27.5c0 7.66699 -0.666992 14.167 -2 19.5c-5.33301 8 -12.5 16.833 -21.5 26.5
s-17.5 20 -25.5 31s-15.167 22 -21.5 33s-9.5 21.833 -9.5 32.5h361c0 -22 -5.16699 -44.167 -15.5 -66.5s-20.833 -41.166 -31.5 -56.499l10 -1210c23.333 0 39.333 8.16699 48 24.5s15.834 33.666 21.501 51.999s12.5 33.666 20.5 45.999s22.333 13.833 43 4.5
c12 -5.33301 14.333 -22.666 7 -51.999s-15.833 -66 -25.5 -110s-16.5 -92.167 -20.5 -144.5s3.66699 -105.166 23 -158.499c4 -9.33301 -2.16699 -23 -18.5 -41s-35.833 -36.833 -58.5 -56.5s-46.334 -38 -71.001 -55s-43 -29.167 -55 -36.5
c-20.667 53.333 -25.834 111.166 -15.501 173.499s38.166 127.5 83.499 195.5l2 4l-142 -8c-1.33301 0 -7 1.33301 -17 4s-16.667 5.33398 -20 8.00098c-2.66699 4 -7 11.833 -13 23.5l-19.5 37c-7 13 -13.167 25.667 -18.5 38s-8.66602 20.5 -9.99902 24.5
c-6.66699 -30 -18.167 -54.5 -34.5 -73.5s-35.833 -33.667 -58.5 -44s-47 -17.5 -73 -21.5s-51.333 -6 -76 -6c-60 0 -108.333 12.167 -145 36.5s-65 56.333 -85 96s-33.333 84.834 -40 135.501s-10 102.667 -10 156v252v317c15.333 74 40.666 137.833 75.999 191.5
s81.666 105.834 138.999 156.501l-62 2c-23.333 0 -43.833 -3.66699 -61.5 -11s-34.334 -15.833 -50.001 -25.5s-31.667 -18.167 -48 -25.5s-34.166 -11 -53.499 -11z" />
    <glyph glyph-name="afii10041" unicode="&#x427;" horiz-adv-x="1026" 
d="M59 1260c0 13.333 2.83301 33.3301 8.5 59.9971s12.5 53 20.5 79s17.5 48.5 28.5 67.5s22.167 28.5 33.5 28.5h376c0 -28.667 -9.16699 -59 -27.5 -91l-59 -100.5c-21 -35 -40.833 -70.5 -59.5 -106.5s-28 -73.333 -28 -112v-329c0 -19.333 4.83301 -37.833 14.5 -55.5
s22.334 -33 38.001 -46s32.667 -23.667 51 -32s36.5 -12.5 54.5 -12.5c20.667 0 39.167 5.83301 55.5 17.5s30.666 26.334 42.999 44.001s22.5 36.167 30.5 55.5l8 21l6 507v97c0 8 -0.666992 14.667 -2 20c-5.33301 8 -12.5 16.833 -21.5 26.5s-17.5 20 -25.5 31
s-15.167 22 -21.5 33s-9.5 21.833 -9.5 32.5h361c0 -22 -5.16699 -44.167 -15.5 -66.5s-20.833 -41.166 -31.5 -56.499v-1114c0 -23.333 4.33301 -44.833 13 -64.5s18.167 -38.667 28.5 -57s20 -36.833 29 -55.5s13.5 -38 13.5 -58
c0 -2.66699 -0.666992 -6.33398 -2 -11.001c-2.66699 -2.66699 -6.16699 -6.66699 -10.5 -12s-7.83301 -8 -10.5 -8h-225c-1.33301 0 -4.33301 2.66699 -9 8s-8.66699 9.33301 -12 12c-2.66699 4 -7 11.833 -13 23.5l-19.5 37c-7 13 -13.167 25.667 -18.5 38
s-8.66602 20.5 -9.99902 24.5l4 424c-6.66699 -13.333 -15.667 -25.666 -27 -36.999c-18 -19.333 -39.167 -34.333 -63.5 -45s-50.166 -18.5 -77.499 -23.5s-53.333 -7.5 -78 -7.5c-36.667 0 -71.667 9.66699 -105 29s-63 44.333 -89 75s-46.833 65.5 -62.5 104.5
s-23.5 78.167 -23.5 117.5v211c15.333 74 40.666 137.833 75.999 191.5s81.666 105.834 138.999 156.501l-62 2c-23.333 0 -43.833 -3.66699 -61.5 -11s-34.334 -15.833 -50.001 -25.5s-31.667 -18.167 -48 -25.5s-34.166 -11 -53.499 -11z" />
    <glyph glyph-name="afii10042" unicode="&#x428;" horiz-adv-x="1517" 
d="M14 1268c0 13.333 2.83496 33.333 8.50195 60s12.5 53 20.5 79s17.5 48.5 28.5 67.5s21.833 28.5 32.5 28.5h377c0 -28.667 -9.16699 -59 -27.5 -91l-59.5 -100c-21.333 -34.667 -41.166 -70.167 -59.499 -106.5s-27.5 -73.5 -27.5 -111.5v-787
c0 -19.333 4.83301 -37.833 14.5 -55.5s22.334 -33 38.001 -46s32.667 -23.5 51 -31.5s36.5 -12 54.5 -12s34.5 4.33301 49.5 13s28.5 19.5 40.5 32.5s22.5 27.333 31.5 43s16.167 31.167 21.5 46.5c-2.66699 20.667 -3.66699 41.167 -3 61.5s1 40.833 1 61.5v569l-2 344
v27.5c0 7.66699 -0.666992 14.167 -2 19.5c-5.33301 8 -12.5 16.833 -21.5 26.5s-17.5 20 -25.5 31s-15.167 22 -21.5 33s-9.5 21.833 -9.5 32.5h365c0 -22 -5.16699 -44.167 -15.5 -66.5s-20.833 -41.166 -31.5 -56.499l-2 -1075c0 -19.333 4.66699 -37.833 14 -55.5
s21.833 -33 37.5 -46s32.834 -23.5 51.501 -31.5s36.667 -12 54 -12c20.667 0 38.834 5.83301 54.501 17.5s29.334 26 41.001 43s21.667 35 30 54s14.5 36.167 18.5 51.5v1005v27.5c0 7.66699 -0.666992 14.167 -2 19.5c-5.33301 8 -12.5 16.833 -21.5 26.5
s-17.667 20 -26 31s-15.5 22 -21.5 33s-9 21.833 -9 32.5h360c0 -22 -5 -44.167 -15 -66.5s-20.667 -41.166 -32 -56.499v-1114c0 -23.333 4.5 -44.833 13.5 -64.5s18.667 -38.667 29 -57s19.833 -36.833 28.5 -55.5s13 -38 13 -58
c0 -2.66699 -0.666992 -6.33398 -2 -11.001c-2.66699 -2.66699 -6 -6.66699 -10 -12s-7.33301 -8 -10 -8h-226c-1.33301 0 -4.33301 2.66699 -9 8s-8.33398 9.33301 -11.001 12c-2.66699 4 -7.16699 11.833 -13.5 23.5l-19.5 37c-6.66699 13 -12.834 25.667 -18.501 38
s-9.16699 20.5 -10.5 24.5c-6.66699 -30 -18.167 -54.5 -34.5 -73.5s-35.833 -33.667 -58.5 -44s-46.834 -17.5 -72.501 -21.5s-50.834 -6 -75.501 -6c-74 0 -128.333 13 -163 39s-60.334 66.333 -77.001 121c-12 -34 -29.667 -61.333 -53 -82
s-48.666 -36.834 -75.999 -48.501s-55.333 -19.167 -84 -22.5s-55.334 -5 -80.001 -5c-60 0 -108.333 12.333 -145 37s-65 56.667 -85 96s-33.333 84.333 -40 135s-10 102.667 -10 156v569c15.333 74 40.666 138 75.999 192s81.666 106 138.999 156l-62 2
c-23.333 0 -43.833 -3.66699 -61.5 -11s-34.334 -15.833 -50.001 -25.5s-31.667 -18.167 -48 -25.5s-34.166 -11 -53.499 -11z" />
    <glyph glyph-name="afii10043" unicode="&#x429;" horiz-adv-x="1564" 
d="M14 1268c0 13.333 2.83691 33.333 8.50391 60s12.5 53 20.5 79s17.5 48.5 28.5 67.5s21.833 28.5 32.5 28.5h377c0 -28.667 -9.16699 -59 -27.5 -91l-59.5 -100c-21.333 -34.667 -41.166 -70.167 -59.499 -106.5s-27.5 -73.5 -27.5 -111.5v-787
c0 -19.333 4.83301 -37.833 14.5 -55.5s22.334 -33 38.001 -46s32.667 -23.5 51 -31.5s36.5 -12 54.5 -12s34.5 4.33301 49.5 13s28.5 19.5 40.5 32.5s22.5 27.333 31.5 43s16.167 31.167 21.5 46.5c-2.66699 20.667 -3.66699 41.167 -3 61.5s1 40.833 1 61.5v569l-2 344
v27.5c0 7.66699 -0.666992 14.167 -2 19.5c-5.33301 8 -12.5 16.833 -21.5 26.5s-17.5 20 -25.5 31s-15.167 22 -21.5 33s-9.5 21.833 -9.5 32.5h365c0 -22 -5.16699 -44.167 -15.5 -66.5s-20.833 -41.166 -31.5 -56.499l-2 -1075c0 -19.333 4.66699 -37.833 14 -55.5
s21.833 -33 37.5 -46s32.834 -23.5 51.501 -31.5s36.667 -12 54 -12c20.667 0 38.834 5.83301 54.501 17.5s29.334 26 41.001 43s21.667 35 30 54s14.5 36.167 18.5 51.5v1005v27.5c0 7.66699 -0.666992 14.167 -2 19.5c-5.33301 8 -12.5 16.833 -21.5 26.5
s-17.667 20 -26 31s-15.5 22 -21.5 33s-9 21.833 -9 32.5h360c0 -22 -5 -44.167 -15 -66.5s-20.667 -41.166 -32 -56.499l10 -1216c23.333 0 39.5 8.16699 48.5 24.5s16.167 33.666 21.5 51.999s12.166 33.666 20.499 45.999s22.833 13.833 43.5 4.5
c12 -5.33301 14.167 -22.666 6.5 -51.999s-16.167 -66 -25.5 -110s-16 -92.167 -20 -144.5s3.33301 -105.166 22 -158.499c4 -9.33301 7.83301 -22.333 11.5 -39s-12.666 -35.5 -48.999 -56.5s-66.5 -37.667 -90.5 -50s-49 -26.833 -75 -43.5
c-20.667 53.333 -25.834 111.166 -15.501 173.499s38.166 127.5 83.499 195.5l2 4l-158 -10c-1.33301 0 -4.33301 2.66699 -9 8s-8.33398 9.33301 -11.001 12c-2.66699 4 -7.16699 11.833 -13.5 23.5l-19.5 37c-6.66699 13 -12.834 25.667 -18.501 38
s-9.16699 20.5 -10.5 24.5c-6.66699 -30 -18.167 -54.5 -34.5 -73.5s-35.833 -33.667 -58.5 -44s-46.834 -17.5 -72.501 -21.5s-50.834 -6 -75.501 -6c-74 0 -128.333 13 -163 39s-60.334 66.333 -77.001 121c-12 -34 -29.667 -61.333 -53 -82
s-48.666 -36.834 -75.999 -48.501s-55.333 -19.167 -84 -22.5s-55.334 -5 -80.001 -5c-60 0 -108.333 12.333 -145 37s-65 56.667 -85 96s-33.333 84.333 -40 135s-10 102.667 -10 156v569c15.333 74 40.666 138 75.999 192s81.666 106 138.999 156l-62 2
c-23.333 0 -43.833 -3.66699 -61.5 -11s-34.334 -15.833 -50.001 -25.5s-31.667 -18.167 -48 -25.5s-34.166 -11 -53.499 -11z" />
    <glyph glyph-name="afii10044" unicode="&#x42a;" horiz-adv-x="1150" 
d="M51 1194l0.00292969 303.003l611 -4c0 -2.66699 -0.833008 -11.834 -2.5 -27.501s-3.16699 -24.834 -4.5 -27.501l-71 -84c-2.66699 -15.333 -4.83398 -32.833 -6.50098 -52.5s-2.5 -40.5 -2.5 -62.5v-145c0 -1.33301 0.5 -7.16602 1.5 -17.499
s2.83301 -18.833 5.5 -25.5c6.66699 -15.333 17.334 -23 32.001 -23h164l21 -20l65.5 -76l80.5 -92c26.667 -30 49.5 -56.667 68.5 -80s29.167 -36.333 30.5 -39c4 -5.33301 9.5 -14.5 16.5 -27.5s13.667 -27.333 20 -43s11.5 -30.667 15.5 -45s6 -26.5 6 -36.5v-383
c-4 -16.667 -11.5 -36.167 -22.5 -58.5s-24.333 -43.333 -40 -63s-33.834 -36.334 -54.501 -50.001s-41.667 -20.5 -63 -20.5h-664c0 9.33301 -1 24.666 -3 45.999s-4 44.166 -6 68.499s-3 48.833 -3 73.5s1.66699 45.5 5 62.5s9.16602 28.667 17.499 35
s19.833 2.5 34.5 -11.5c12 -12 30.333 -26.333 55 -43v598l-112 123v51h110v322l-112 -2c-19.333 0 -33.833 -7.5 -43.5 -22.5s-19.167 -31.667 -28.5 -50s-19.5 -35.166 -30.5 -50.499s-26.833 -23 -47.5 -23c5.33301 0 4.66602 0 -2.00098 0c-5.33301 0 -11 0.5 -17 1.5
s-11.5 3.16699 -16.5 6.5s-7.5 8.33301 -7.5 15zM580.003 145.003c83.333 -2.66699 150.833 5.66699 202.5 25s77.5 59 77.5 119v432c0 2.66699 -0.666992 9.16699 -2 19.5s-3.33301 21.333 -6 33s-6.83398 22.167 -12.501 31.5s-12.5 15.333 -20.5 18
c-6.66699 0 -20.167 0.333008 -40.5 1s-34.166 1 -41.499 1h-22.5c-9.66699 0 -18.834 -0.333008 -27.501 -1s-16.834 -1 -24.501 -1h-13.5c-4 0 -10.167 -1 -18.5 -3s-16.166 -4 -23.499 -6s-13.666 -4 -18.999 -6s-8 -3.66699 -8 -5v-658z" />
    <glyph glyph-name="afii10045" unicode="&#x42b;" horiz-adv-x="1370" 
d="M55 192.5c0 24.333 1.83105 45.1699 5.49805 62.5029s9.5 29 17.5 35s19.667 2.33301 35 -11c12 -12 30.333 -26.333 55 -43v598l-113 122v52h111v358c-10.667 15.333 -22.5 34.166 -35.5 56.499s-19.5 44.5 -19.5 66.5h360c0 -2.66699 -0.666992 -9.5 -2 -20.5
s-2.66602 -17.833 -3.99902 -20.5l-72 -84c-2.66699 -15.333 -4.66699 -32.833 -6 -52.5s-2 -40.5 -2 -62.5v-145c0 -1.33301 0.333008 -7.16602 1 -17.499s2.33398 -18.833 5.00098 -25.5c6.66699 -15.333 17.667 -23 33 -23h164l20 -20l66 -76l81 -92
c26.667 -30 49.5 -56.667 68.5 -80s29.167 -36.333 30.5 -39c4 -5.33301 9.5 -14.5 16.5 -27.5s13.5 -27.333 19.5 -43s11 -30.667 15 -45s6 -26.166 6 -35.499v-383c-4 -16.667 -11.5 -36.334 -22.5 -59.001s-24.333 -43.834 -40 -63.501s-33.667 -36.334 -54 -50.001
s-41.5 -20.5 -63.5 -20.5h-663c0 9.33301 -1.16699 24.666 -3.5 45.999s-4.5 44.333 -6.5 69s-3 49.167 -3 73.5zM388.998 156.004c83.333 -2.66699 151.002 5.50098 203.002 24.501s78 58.5 78 118.5v432c0 2.66699 -0.666992 9.16699 -2 19.5s-3.5 21.333 -6.5 33
s-7.16699 22.167 -12.5 31.5s-12 15.666 -20 18.999c-6.66699 0 -20.334 0.333008 -41.001 1s-34.334 1 -41.001 1h-22.5c-9.66699 0 -19 -0.333008 -28 -1s-17.167 -1 -24.5 -1h-13c-4 0 -10.167 -1.16699 -18.5 -3.5l-23.5 -6.5c-7.33301 -2 -13.833 -4 -19.5 -6
s-8.5 -3.66699 -8.5 -5v-657zM827 1458l0.00195312 20.998l11.5 12c5 5.33301 8.16699 8 9.5 8h479c0 -18 -2.66699 -37.5 -8 -58.5s-11.5 -41.667 -18.5 -62s-14.5 -39.833 -22.5 -58.5s-15 -34 -21 -46v-1170c9.33301 -16.667 19.333 -36.167 30 -58.5
s16 -36.833 16 -43.5h-336c0 1.33301 1.33301 6.5 4 15.5s6.66699 18.5 12 28.5s11.5 20.5 18.5 31.5s13.833 19.833 20.5 26.5v1006c0 10.667 4.16699 26.667 12.5 48s18.166 43.166 29.499 65.499s23.5 43.833 36.5 64.5s24.5 36.334 34.5 47.001
c-2.66699 0 -6.16699 0.333008 -10.5 1s-7.83301 1 -10.5 1c-22 0 -40.5 -5.66699 -55.5 -17s-29 -23.5 -42 -36.5s-26.333 -25.333 -40 -37s-29.167 -17.5 -46.5 -17.5c-15.333 0 -24.333 3 -27 9s-7.33398 18 -14.001 36c-2.66699 6.66699 -7.16699 18.834 -13.5 36.501
l-19.5 55.5l-18.5 55.5c-5.66699 17.667 -9.16699 29.834 -10.5 36.501z" />
    <glyph glyph-name="afii10046" unicode="&#x42c;" horiz-adv-x="960" 
d="M55 192.5c0 24.333 1.83105 45.1699 5.49805 62.5029s9.5 29 17.5 35s19.667 2.33301 35 -11c12 -12 30.333 -26.333 55 -43v598l-113 122v52h111v358c-10.667 15.333 -22.5 34.166 -35.5 56.499s-19.5 44.5 -19.5 66.5h360c0 -2.66699 -0.666992 -9.5 -2 -20.5
s-2.66602 -17.833 -3.99902 -20.5l-72 -84c-2.66699 -15.333 -4.66699 -32.833 -6 -52.5s-2 -40.5 -2 -62.5v-145c0 -1.33301 0.333008 -7.16602 1 -17.499s2.33398 -18.833 5.00098 -25.5c6.66699 -15.333 17.667 -23 33 -23h164l20 -20l66 -76l81 -92
c26.667 -30 49.5 -56.667 68.5 -80s29.167 -36.333 30.5 -39c4 -5.33301 9.5 -14.5 16.5 -27.5s13.5 -27.333 19.5 -43s11 -30.667 15 -45s6 -26.166 6 -35.499v-383c-4 -16.667 -11.5 -36.334 -22.5 -59.001s-24.333 -43.834 -40 -63.501s-33.667 -36.334 -54 -50.001
s-41.5 -20.5 -63.5 -20.5h-663c0 9.33301 -1.16699 24.666 -3.5 45.999s-4.5 44.333 -6.5 69s-3 49.167 -3 73.5zM388.998 156.004c83.333 -2.66699 151.002 5.50098 203.002 24.501s78 58.5 78 118.5v432c0 2.66699 -0.666992 9.16699 -2 19.5s-3.5 21.333 -6.5 33
s-7.16699 22.167 -12.5 31.5s-12 15.666 -20 18.999c-6.66699 0 -20.334 0.333008 -41.001 1s-34.334 1 -41.001 1h-22.5c-9.66699 0 -19 -0.333008 -28 -1s-17.167 -1 -24.5 -1h-13c-4 0 -10.167 -1.16699 -18.5 -3.5l-23.5 -6.5c-7.33301 -2 -13.833 -4 -19.5 -6
s-8.5 -3.66699 -8.5 -5v-657z" />
    <glyph glyph-name="afii10047" unicode="&#x42d;" horiz-adv-x="843" 
d="M51 289c0 19.333 2.49805 34.334 7.49805 45.001s17.5 16 37.5 16c12 0 21.5 -9.83301 28.5 -29.5s17 -41.167 30 -64.5s31.833 -44.833 56.5 -64.5s60.667 -29.5 108 -29.5c22 0 46.333 1.66699 73 5s51.334 10.5 74.001 21.5s41.5 25.667 56.5 44
s22.5 43.166 22.5 74.499v410h-287c-16.667 0 -28.667 -7.16699 -36 -21.5s-14 -30.333 -20 -48s-13.5 -33.667 -22.5 -48s-23.833 -21.5 -44.5 -21.5v462c18 0 31 -4.66699 39 -14s14.833 -20.833 20.5 -34.5l16.5 -40c5.33301 -13 14.333 -22.833 27 -29.5
c20.667 -10.667 41.5 -17.834 62.5 -21.501s42.5 -5.5 64.5 -5.5h200v375l-41 41h-225c-2.66699 0 -9.5 -2.83301 -20.5 -8.5s-17.833 -9.83398 -20.5 -12.501c-5.33301 -4 -13.833 -11.833 -25.5 -23.5l-37 -37l-37 -36.5c-11.667 -11.333 -19.5 -20 -23.5 -26h-41v328h389
c13.333 0 30.333 -7.5 51 -22.5s42.334 -34.833 65.001 -59.5s45.167 -51.667 67.5 -81s42.833 -58.333 61.5 -87s33.834 -55.667 45.501 -81s17.5 -44.666 17.5 -57.999v-840c0 -52 -12.333 -95.333 -37 -130s-55.5 -62.167 -92.5 -82.5s-77.667 -34.666 -122 -42.999
s-86.833 -12.5 -127.5 -12.5c-48 0 -93.833 4.83301 -137.5 14.5s-81.834 25.667 -114.501 48s-59 52 -79 89s-30 83.5 -30 139.5z" />
    <glyph glyph-name="afii10048" unicode="&#x42e;" horiz-adv-x="1419" 
d="M47 1116l99.9971 0.00195312c0 2.66699 0.833008 12.167 2.5 28.5s3.16699 38.166 4.5 65.499s2 51.333 2 72v29c-1.33301 16.667 -5.83301 32.334 -13.5 47.001s-15.667 29.167 -24 43.5s-15.5 29 -21.5 44s-9 31.5 -9 49.5h236c1.33301 0 4.33301 -2.66699 9 -8
s8.33398 -9.33301 11.001 -12c6.66699 -10.667 15.167 -26.334 25.5 -47.001s15.5 -32.334 15.5 -35.001v-267c8 -1.33301 25 -2 51 -2h168c22 39.333 50.667 73.666 86 102.999c39.333 30 90 45 152 45c0 -19.333 -3.5 -38.5 -10.5 -57.5l-22.5 -59.5
c-8 -20.667 -15.5 -42.167 -22.5 -64.5s-10.5 -46.5 -10.5 -72.5v-629c1.33301 -32.667 7.83301 -64.334 19.5 -95.001s27.334 -57.334 47.001 -80.001s43.5 -40.834 71.5 -54.501s60 -20.5 96 -20.5c28.667 0 51.5 6.5 68.5 19.5s30.667 29.833 41 50.5
s17.166 43.834 20.499 69.501s5 52.167 5 79.5v136c0 6.66699 0.666992 12.667 2 18v559c0 23.333 -1.33301 48.666 -4 75.999c-6.66699 74 -33 123.5 -79 148.5s-102.333 37.5 -169 37.5c-32.667 0 -62.667 -4.66699 -90 -14s-54.333 -20.166 -81 -32.499
s-53.667 -23.333 -81 -33s-56 -14.5 -86 -14.5c0 16.667 3.83301 39.334 11.5 68.001s16.834 57 27.501 85s22.5 52.167 35.5 72.5s25.833 30.5 38.5 30.5h471c54.667 0 97 -17.333 127 -52s52.167 -76.334 66.5 -125.001s23.166 -98.167 26.499 -148.5
s5 -92.166 5 -125.499v-716c-10.667 -22 -29 -51.5 -55 -88.5s-54.667 -73.167 -86 -108.5s-62.166 -66 -92.499 -92s-54.833 -39 -73.5 -39h-287c-34 0 -63.333 10.5 -88 31.5s-45.5 49.333 -62.5 85s-30.667 76.334 -41 122.001s-18.166 93.167 -23.499 142.5
s-9 97.833 -11 145.5s-3 91.834 -3 132.501c0 26 0.333008 49.333 1 70s1 38.334 1 53.001v35c0 46.667 3.33301 96.667 10 150l2 16h-172v-758c0 -22 3.5 -42.167 10.5 -60.5s14.833 -36.333 23.5 -54s16.5 -35.334 23.5 -53.001s10.5 -36.834 10.5 -57.501h-344
c0 16.667 2.33301 31.334 7 44.001s10 25.5 16 38.5s11.5 26 16.5 39s7.5 27.167 7.5 42.5v827l-50 -2c-13.333 0 -24.5 3.5 -33.5 10.5s-15.5 21.833 -19.5 44.5c-2.66699 10.667 -4.66699 34.667 -6 72z" />
    <glyph glyph-name="afii10049" unicode="&#x42f;" horiz-adv-x="1046" 
d="M51 0c0 24.667 4.16699 48.5049 12.5 71.5049s18 46.5 29 70.5s21.167 48 30.5 72s14.666 48.333 15.999 73v430c0 2.66699 0.666992 7.66699 2 15s3.16602 15.5 5.49902 24.5s4.83301 17.333 7.5 25l6 17.5c2.66699 6.66699 9.5 18.5 20.5 35.5l34.5 54.5l33.5 53.5
c10.333 16.333 15.5 26.5 15.5 30.5c0 1.33301 -0.333008 3 -1 5s-1 3.66699 -1 5c-54.667 35.333 -99.334 74.833 -134.001 118.5s-52 99.834 -52 168.501c0 28.667 4.66699 56.667 14 84s23.333 51.166 42 71.499s40.667 37 66 50s53.666 19.5 84.999 19.5h704
c0 -31.333 -4.83301 -59 -14.5 -83s-21.167 -51 -34.5 -81c-4 -9.33301 -9.5 -20.833 -16.5 -34.5s-13.5 -27 -19.5 -40s-11.667 -24.333 -17 -34s-21.666 -14.5 -48.999 -14.5c-23.333 31.333 -45 55.666 -65 72.999s-40.167 29.666 -60.5 36.999
s-43.5 11.666 -69.5 12.999s-56.667 2 -92 2h-8c-4 0 -9.83301 0.333008 -17.5 1s-16.167 1 -25.5 1c-16.667 0 -35.167 -0.666992 -55.5 -2s-39.166 -4.33301 -56.499 -9s-32 -11.5 -44 -20.5s-18 -20.167 -18 -33.5v-144c0 -1.33301 5.33301 -7.66602 16 -18.999l38.5 -41
c15 -16 30.833 -31.5 47.5 -46.5l41 -36.5l35.5 -28.5l55.5 -44l56.5 -43c17.667 -13 29.834 -22.167 36.501 -27.5v194c0 23.333 -0.666992 46 -2 68s-6 43.667 -14 65c-8 20.667 -15.167 34.5 -21.5 41.5s-11.833 12.167 -16.5 15.5s-8.33398 8 -11.001 14
s-4 18.667 -4 38c34 0 67.333 -7.83301 100 -23.5s62.667 -36.5 90 -62.5s49.833 -55.333 67.5 -88s27.834 -65.334 30.501 -98.001v-676c0 -32.667 2.83301 -62.667 8.5 -90s11.834 -54 18.501 -80s12.834 -51.667 18.501 -77s8.5 -52.333 8.5 -81h-340
c0 22 5 44.167 15 66.5s20.667 41.166 32 56.499v553c0 9.33301 -5.83301 21.166 -17.5 35.499s-26.334 28 -44.001 41s-35.834 24.333 -54.501 34s-35.334 14.5 -50.001 14.5c-12 0 -24.167 -3.5 -36.5 -10.5s-23.666 -15.833 -33.999 -26.5s-19.333 -22.167 -27 -34.5
s-11.5 -23.5 -11.5 -33.5v-594c-4 -4 -8.33301 -11.5 -13 -22.5s-10.167 -22.5 -16.5 -34.5s-13.166 -22.5 -20.499 -31.5s-15 -13.5 -23 -13.5h-232z" />
    <glyph glyph-name="afii10065" unicode="&#x430;" horiz-adv-x="763" 
d="M43 309c0 69.333 15.002 129.668 45.002 181.001s70.333 99 121 143l-49.5 43c-13.667 12 -24.5 24.5 -32.5 37.5s-14.167 27.667 -18.5 44s-6.5 36.166 -6.5 59.499c0 24.667 8 54.834 24 90.501s36.5 69.5 61.5 101.5s51.5 58.833 79.5 80.5s55.667 32.5 83 32.5h266
c22 0 38.5 -8.83301 49.5 -26.5s16.5 -36.167 16.5 -55.5v-804l18 -236h-186c-1.33301 0 -4.33301 2.66699 -9 8s-8.33398 8.66602 -11.001 9.99902c-2.66699 8 -6.5 22.333 -11.5 43l-9.5 39c-16.667 -22 -32.834 -39.667 -48.501 -53s-32 -23.5 -49 -30.5
s-35 -11.833 -54 -14.5s-41.5 -4 -67.5 -4c-44 0 -79.667 9.5 -107 28.5s-48.5 43.5 -63.5 73.5s-25.5 63.833 -31.5 101.5s-9 73.5 -9 107.5zM248.002 911.002c0 -38 10.502 -66.1689 31.502 -84.502s44.5 -32.666 70.5 -42.999s50.333 -19.333 73 -27s34 -18.167 34 -31.5
c0 -2.66699 -0.666992 -6 -2 -10l-164 -164c-12 -10.667 -19.167 -31.167 -21.5 -61.5s-3.5 -57.5 -3.5 -81.5v-183c5.33301 -27.333 17.333 -48.166 36 -62.499s41.667 -21.5 69 -21.5c22 0 39.667 6.83301 53 20.5s24.166 31.5 32.499 53.5s13.166 44.5 14.499 67.5
s2 44.167 2 63.5v635h-182c-20.667 0 -33 -8.5 -37 -25.5s-6 -31.833 -6 -44.5z" />
    <glyph glyph-name="afii10066" unicode="&#x431;" horiz-adv-x="714" 
d="M59 246l0.00390625 1061c0 18 6.5 36.5 19.5 55.5s28.833 36.667 47.5 53s38.5 29.5 59.5 39.5s40.5 15 58.5 15h393c0 -38 -4.5 -76.5 -13.5 -115.5s-19.5 -75.5 -31.5 -109.5c-2.66699 -1.33301 -9.83398 -4.33301 -21.501 -9s-18.167 -8.33398 -19.5 -11.001h-10
c-12 0 -22.167 5.33301 -30.5 16s-18.666 22.834 -30.999 36.501s-27.333 26 -45 37s-40.834 16.5 -69.501 16.5c-32.667 0 -61 -7.5 -85 -22.5s-36 -42.833 -36 -83.5v-1000c0 -38 5.83301 -64.833 17.5 -80.5s34.5 -23.5 68.5 -23.5c13.333 0 27.166 3.33301 41.499 10
s27 15.834 38 27.501s19.833 25 26.5 40s10 30.833 10 47.5v715c0 1.33301 -3 4.66602 -9 9.99902s-9.66699 8.66602 -11 9.99902c-4 1.33301 -12.5 3.33301 -25.5 6s-27.333 5 -43 7s-30.334 3.66699 -44.001 5s-23.167 2 -28.5 2
c-9.33301 16.667 -15.833 30.834 -19.5 42.501s-5.5 24.834 -5.5 39.501c0 26 8.83301 39.333 26.5 40s36.834 1 57.501 1c31.333 0 65.166 -8.5 101.499 -25.5s69.833 -38.833 100.5 -65.5s55.834 -55.667 75.501 -87s29.5 -60.666 29.5 -87.999v-653c0 -18 -5 -39 -15 -63
s-23.333 -46.167 -40 -66.5s-34.834 -38 -54.501 -53s-37.834 -22.5 -54.501 -22.5h-225c-1.33301 0 -8.83301 6.16699 -22.5 18.5s-29 27.333 -46 45l-51 53c-17 17.667 -31.167 33.5 -42.5 47.5l-11 16c-4.66699 6.66699 -9 14.834 -13 24.501
s-7.83301 18.334 -11.5 26.001s-5.5 12.834 -5.5 15.501z" />
    <glyph glyph-name="afii10067" unicode="&#x432;" horiz-adv-x="804" 
d="M25 1126l280.002 -0.000976562v-125l14.5 29l20.5 41.5c6.66699 13.667 14.5 25.5 23.5 35.5s16.833 15 23.5 15h266c16.667 0 29 -6.5 37 -19.5s14.167 -28.333 18.5 -46s6.83301 -34.667 7.5 -51s1 -27.833 1 -34.5c0 -64 -11.667 -116 -35 -156
c-22 -36.667 -59 -77 -111 -121c42 -28.667 76.5 -64.834 103.5 -108.501s43.833 -90.167 50.5 -139.5c2.66699 -23.333 5 -47.5 7 -72.5s3 -50.5 3 -76.5c2.66699 -20.667 1.66699 -41.5 -3 -62.5s-11.167 -42.5 -19.5 -64.5s-18.5 -43.167 -30.5 -63.5
s-24.167 -38.333 -36.5 -54s-25.333 -28.334 -39 -38.001s-27.5 -14.5 -41.5 -14.5h-252c-2.66699 0 -12.834 -0.333008 -30.501 -1s-38.834 -1 -63.501 -1s-48.5 0.333008 -71.5 1s-41.5 2.33398 -55.5 5.00098v1022c0 10.667 -3.33301 20.167 -10 28.5
s-14.5 15.833 -23.5 22.5s-16.833 13.834 -23.5 21.501s-10 16.834 -10 27.501zM305.002 224.999c0 -19.333 0.336914 -35.334 1.00391 -48.001s4.5 -23.5 11.5 -32.5s14.833 -15.167 23.5 -18.5s22 -5 40 -5c13.333 0 29 3.33301 47 10s34.5 15.834 49.5 27.501
s26.5 25 34.5 40s12 30.833 12 47.5l4 225c-1.33301 20.667 -8.16602 38.5 -20.499 53.5s-27.333 26.833 -45 35.5s-36.334 16.167 -56.001 22.5s-39.834 9.5 -60.501 9.5c0 1.33301 -0.333008 4.33301 -1 9s-1 8.33398 -1 11.001c0 12 4.16699 22.5 12.5 31.5
s18.666 19 30.999 30l40 35c14.333 12.333 27.833 26.666 40.5 42.999s23.167 34.833 31.5 55.5s12.5 44.667 12.5 72v15v26v26v15c-2.66699 13.333 -13 20 -31 20c-6.66699 1.33301 -13.334 2 -20.001 2h-17c-22 0 -41.833 -7.16699 -59.5 -21.5s-31.834 -32 -42.501 -53
s-19.5 -43.5 -26.5 -67.5s-10.5 -45.667 -10.5 -65v-551z" />
    <glyph glyph-name="afii10068" unicode="&#x433;" horiz-adv-x="655" 
d="M37 1120l572.997 2.00195v-233c0 -2.66699 -2.66699 -6.5 -8 -11.5s-8.66602 -8.83301 -9.99902 -11.5c-8 -1.33301 -12.667 -2 -14 -2c-12 0 -24.333 6.83301 -37 20.5s-27.5 28.667 -44.5 45s-36.833 31.333 -59.5 45s-49 20.5 -79 20.5c-2.66699 0 -5.66699 -1 -9 -3
s-7 -3.66699 -11 -5c-8 -2.66699 -14.833 -11.834 -20.5 -27.501s-9.16699 -34.5 -10.5 -56.5s-1.66602 -45.5 -0.999023 -70.5s2.33398 -48.5 5.00098 -70.5l6 -625c0 -12 2.83301 -23.833 8.5 -35.5s10.834 -23.334 15.501 -35.001l14 -35
c4.66699 -11.667 7 -24.167 7 -37.5h-186c-5.33301 0 -11.833 3.33301 -19.5 10s-13.834 14.834 -18.501 24.501l-13 28c-4 9 -6.66699 15.5 -8 19.5v53c0 24.667 0.333008 52 1 82s1 62.667 1 98v111v104c0 34 -0.666992 68.333 -2 103l-4 195.5
c-1.33301 65 -7 126.167 -17 183.5c0 1.33301 -3 7.66602 -9 18.999l-20.5 37.5l-20.5 38c-6 11.667 -9 18.167 -9 19.5z" />
    <glyph glyph-name="afii10069" unicode="&#x434;" horiz-adv-x="763" 
d="M59 -4l40.999 -0.00292969c32.667 -38 73.334 -71.333 122.001 -100s100.334 -43 155.001 -43c16.667 0 34.167 2.33301 52.5 7s35 12.167 50 22.5s26.833 23.333 35.5 39s13 33.5 13 53.5c0 6.66699 -2.66699 17.334 -8 32.001s-11.833 29.834 -19.5 45.501l-20.5 42
c-6 12.333 -9.66699 20.5 -11 24.5l-48.5 -30.5c-13 -8.33301 -26 -15 -39 -20s-27.333 -8.5 -43 -10.5s-33.5 -3 -53.5 -3c-28.667 0 -56.667 4.5 -84 13.5s-51.666 22 -72.999 39s-38.166 38.5 -50.499 64.5s-18.5 56 -18.5 90v612c0 26 9.66699 51.667 29 77
s42.333 48.666 69 69.999s53.167 40.833 79.5 58.5s49.166 31.834 68.499 42.501h101h67c19.333 0 39.166 -0.666992 59.499 -2s39.333 -4 57 -8s32.334 -10.5 44.001 -19.5s17.5 -20.167 17.5 -33.5v-756c0 -24.667 3.83301 -49.167 11.5 -73.5
s14.834 -48.166 21.501 -71.499l20.5 -72c7 -24.667 10.5 -50 10.5 -76c0 -27.333 -2.83301 -57.333 -8.5 -90s-15.334 -63 -29.001 -91s-32.334 -51.167 -56.001 -69.5s-54.834 -27.5 -93.501 -27.5h-469v264zM263.999 282.997c0 -32.667 8.5 -54.835 25.5 -66.502
s39.167 -17.5 66.5 -17.5c18 0 36.833 2 56.5 6s34.5 16.333 44.5 37c2.66699 32.667 3.66699 62.667 3 90s-1 52 -1 74v485v43c0 6.66699 -0.333008 12.334 -1 17.001s-1.66699 9.33398 -3 14.001c-2.66699 9.33301 -7.83398 15 -15.501 17s-16.834 3 -27.501 3h-33
c-11.333 0 -18.333 0.666992 -21 2c-4 0 -9.66699 -0.666992 -17 -2s-15.166 -2.33301 -23.499 -3s-19.166 -2.33398 -32.499 -5.00098c-4 0 -8.5 -2.66699 -13.5 -8s-7.5 -9.66602 -7.5 -12.999v-673z" />
    <glyph glyph-name="afii10070" unicode="&#x435;" horiz-adv-x="692" 
d="M55 246l-0.000976562 590.002c0 13.333 10 35.666 30 66.999s43 63.166 69 95.499s52.5 61 79.5 86s49.5 37.5 67.5 37.5h246c6.66699 0 15.167 -2.33301 25.5 -7s19.166 -11.167 26.499 -19.5s14.166 -17.5 20.499 -27.5s9.5 -18.667 9.5 -26v-450
c0 -23.333 -6.83301 -43.5 -20.5 -60.5s-30.5 -31.667 -50.5 -44s-41.167 -22.333 -63.5 -30s-43.166 -11.5 -62.499 -11.5c-30 0 -60.333 4.83301 -91 14.5s-57.667 26.834 -81 51.501v-23c0 -9.33301 -0.333008 -19.5 -1 -30.5s-1 -21.167 -1 -30.5v-20
c0 -31.333 1 -62.833 3 -94.5s8.5 -60.5 19.5 -86.5s26.667 -46.833 47 -62.5s51.166 -23.5 92.499 -23.5c39.333 0 68.333 7.16699 87 21.5s33.334 30.166 44.001 47.499l31.5 49.5c10.333 15.667 28.5 23.5 54.5 23.5c0 -84.667 -23.167 -153.334 -69.5 -206.001
s-111.166 -79 -194.499 -79c-36.667 0 -73.167 4.83301 -109.5 14.5s-70.166 24.334 -101.499 44.001s-57 45.167 -77 76.5s-30 69 -30 113zM259.999 612.002c0 -1.33301 2.3291 -4.66699 6.99609 -10s8.83398 -8.33301 12.501 -9s13.334 -4.16699 29.001 -10.5
s26.834 -10.166 33.501 -11.499h8c27.333 0 47.833 9.33301 61.5 28s22.834 39.834 27.501 63.501s6.66699 48.167 6 73.5s-1 45 -1 59v34c0 13.333 -0.333008 26.666 -1 39.999s-1 24.666 -1 33.999v17c-1.33301 9.33301 -4 21.833 -8 37.5s-7.33301 23.5 -10 23.5h-164
v-369z" />
    <glyph glyph-name="afii10072" unicode="&#x436;" horiz-adv-x="1259" 
d="M43 1071v13.498c0 5 0.666992 11.5 2 19.5c0 12 7.66699 18 23 18h190c2.66699 0 6 -2.33301 10 -7s6.66699 -8.33398 8 -11.001c13.333 -18 27.333 -39.667 42 -65s29.834 -53 45.501 -83s30.667 -61.333 45 -94s27.666 -64.667 39.999 -96s21.833 -61.666 28.5 -90.999
s10 -57 10 -83c0 -1.33301 -0.333008 -4.83301 -1 -10.5s-1.66699 -9.16699 -3 -10.5c-38 -1.33301 -70 -8.83301 -96 -22.5s-40.333 -39.5 -43 -77.5l-41 -428l-41 -43h-209c0 12 3.5 24.833 10.5 38.5l21.5 40c7.33301 13 14.5 26.667 21.5 41s11.167 29.833 12.5 46.5
c4 39.333 6 83.666 6 132.999c0 26 1 51.333 3 76s4.33301 48.334 7 71.001c4 24.667 9.5 49.667 16.5 75s17 50 30 74s29 44.833 48 62.5s42.167 31.834 69.5 42.501c0 9.33301 -1 21.333 -3 36s-5.33301 30.834 -10 48.501s-10.167 35.667 -16.5 54s-14 35 -23 50
s-17.833 27.333 -26.5 37s-20 14.5 -34 14.5h-6c-1.33301 -1.33301 -3 -5.33301 -5 -12s-11.333 -17.667 -28 -33c-2.66699 0 -7.66699 -0.333008 -15 -1s-11.333 -1 -12 -1s-2 0.333008 -4 1s-3.66699 1 -5 1c-16.667 28.667 -32.167 57 -46.5 85s-21.5 58.333 -21.5 91z
M477 1120l303 -0.00195312c0 -12 -2.33301 -23.5 -7 -34.5l-15 -34c-5.33301 -11.667 -10.5 -23.667 -15.5 -36s-7.5 -25.166 -7.5 -38.499l2 -201v-635c0 -12 2.5 -24.167 7.5 -36.5s10.167 -24.333 15.5 -36l15 -34c4.66699 -11 7 -22.5 7 -34.5h-295
c0 2.66699 0.333008 6.33398 1 11.001s2 7 4 7c1.33301 5.33301 4 10.833 8 16.5s7.33301 11.834 10 18.501c5.33301 16.667 9.33301 27 12 31v893c0 13.333 -1.66699 26.166 -5 38.499s-8.33301 24.333 -15 36s-12.5 23 -17.5 34s-7.5 22.5 -7.5 34.5zM782 591.996
c0 26 3.83105 53.667 11.498 83s17 59.666 28 90.999s24.333 63.333 40 96l47 94l45 83l37.5 65c1.33301 2.66699 4.5 6.33398 9.5 11.001s9.5 7 13.5 7h190c12 0 19 -6 21 -18c0 -8 0.666992 -14.5 2 -19.5s2 -9.5 2 -13.5c0 -32.667 -7.16699 -63 -21.5 -91
s-29.833 -56.333 -46.5 -85c-1.33301 0 -3 -0.333008 -5 -1s-3.66699 -1 -5 -1s-6.16602 0.333008 -14.499 1s-13.833 1 -16.5 1c-13.333 15.333 -21.666 26.333 -24.999 33s-6 10.667 -8 12h-4c-12 0 -23.167 -4.83301 -33.5 -14.5s-19.833 -22 -28.5 -37
s-15.834 -31.667 -21.501 -50s-10.5 -36.333 -14.5 -54s-7.33301 -33.834 -10 -48.501s-4 -26.667 -4 -36c28.667 -10.667 52.5 -24.834 71.5 -42.501s34.667 -38.5 47 -62.5s21.833 -48.667 28.5 -74s11.667 -50.333 15 -75c4 -23.333 7.33301 -47.166 10 -71.499
s4 -49.5 4 -75.5c0 -49.333 1.33301 -93.666 4 -132.999c1.33301 -16.667 5.5 -32.167 12.5 -46.5s14.5 -28 22.5 -41s14.667 -26.333 20 -40s8 -26.5 8 -38.5h-208l-41 43l-37 428c-5.33301 38 -20.666 63.833 -45.999 77.5s-57.333 21.167 -96 22.5
c-1.33301 1.33301 -2.33301 4.83301 -3 10.5s-1 9.16699 -1 10.5z" />
    <glyph glyph-name="afii10073" unicode="&#x437;" horiz-adv-x="673" 
d="M51 889l0.00390625 233.002h520c0 -34 -8.16699 -67.333 -24.5 -100s-35 -65 -56 -97s-43.167 -63.833 -66.5 -95.5s-40.333 -62.5 -51 -92.5c68 -16.667 124.5 -49.834 169.5 -99.501s67.5 -110.5 67.5 -182.5c0 -48 -7.16699 -91.5 -21.5 -130.5
s-33 -74.833 -56 -107.5s-50.667 -64 -83 -94l-99.5 -92c-2.66699 -4 -6.33398 -14.333 -11.001 -31s-7.66699 -28.334 -9 -35.001v-10c0 -18 2.66699 -33.833 8 -47.5s12.5 -26.167 21.5 -37.5l27.5 -35.5c9.33301 -12.333 16.5 -22.333 21.5 -30
s7.83301 -12.834 8.5 -15.501s1 -4.66699 1 -6s-0.666992 -4 -2 -8c-1.33301 -2.66699 -5.16602 -7.5 -11.499 -14.5s-10.166 -10.5 -11.499 -10.5h-235c-10.667 0 -18.834 4.83301 -24.501 14.5s-9.83398 20.667 -12.501 33s-4.66699 25 -6 38s-2 21.5 -2 25.5
c0 53.333 14.667 100 44 140s61.666 80.167 96.999 120.5s67.666 81.666 96.999 123.999s44 91.5 44 147.5c0 16.667 -1.66699 34.5 -5 53.5s-9.83301 37.333 -19.5 55s-21.334 32.667 -35.001 45s-29.834 18.5 -48.501 18.5c-2.66699 0 -8.16699 -1 -16.5 -3
s-17.666 -4 -27.999 -6s-19.5 -4 -27.5 -6s-12.667 -3 -14 -3h-13c-12 0 -20.333 4 -25 12s-7 18.333 -7 31c0 1.33301 0.333008 4.33301 1 9s1 7.66699 1 9c35.333 50.667 73.833 108.834 115.5 174.501s74.834 129.834 99.501 192.501
c-2.66699 2.66699 -9.5 6.66699 -20.5 12s-18.5 8 -22.5 8c-31.333 0 -59.333 -6.83301 -84 -20.5s-47.667 -28.667 -69 -45s-39.5 -31.333 -54.5 -45s-27.833 -20.5 -38.5 -20.5c-2.66699 0 -6.66699 0.666992 -12 2c-2.66699 2.66699 -6.83398 6.5 -12.501 11.5
s-8.5 8.83301 -8.5 11.5z" />
    <glyph glyph-name="afii10074" unicode="&#x438;" horiz-adv-x="827" 
d="M53 1122l194.999 0.00195312c4 0 9.33301 -3.66699 16 -11s13.834 -15.833 21.501 -25.5s13.834 -19.334 18.501 -29.001s7 -16.5 7 -20.5v-735c0 -12 1 -27 3 -45s6.5 -34.833 13.5 -50.5s16 -29.667 27 -42s24.5 -18.5 40.5 -18.5c20.667 0 38.167 4.5 52.5 13.5
s26.666 19.667 36.999 32s18.5 26.333 24.5 42s11 30.167 15 43.5c1.33301 19.333 2.33301 48.5 3 87.5s1 81.833 1 128.5v96c0 30 -0.333008 59 -1 87s-1 53 -1 75v51c0 40.667 -2.33301 75 -7 103s-10 53.667 -16 77s-11.5 45.833 -16.5 67.5s-7.5 46.167 -7.5 73.5h197
c4 0 9.83301 -3.66699 17.5 -11s14.834 -15.833 21.501 -25.5s12.667 -19.334 18 -29.001s8 -16.5 8 -20.5v-932c12 -12 19.5 -27.833 22.5 -47.5s4.5 -38.5 4.5 -56.5h-219c-2.66699 0 -7.16699 2.66699 -13.5 8s-9.5 8.66602 -9.5 9.99902
c0 5.33301 -0.333008 13.5 -1 24.5s-1 22.167 -1 33.5c0 12 0.333008 22.833 1 32.5s1 16.5 1 20.5c-18 -23.333 -34.333 -43.166 -49 -59.499s-29.834 -30 -45.501 -41s-32.834 -18.833 -51.501 -23.5s-41.667 -7 -69 -7c-16.667 0 -37.167 2 -61.5 6
s-48.166 11.167 -71.499 21.5s-42.5 24 -57.5 41s-22.5 37.833 -22.5 62.5v801c0 18 -2.33301 34.833 -7 50.5s-9.66699 31 -15 46s-10.5 30.333 -15.5 46s-7.5 32.167 -7.5 49.5z" />
    <glyph glyph-name="afii10075" unicode="&#x439;" horiz-adv-x="827" 
d="M53 1122l194.999 0.00195312c4 0 9.33301 -3.66699 16 -11s13.834 -15.833 21.501 -25.5s13.834 -19.334 18.501 -29.001s7 -16.5 7 -20.5v-735c0 -12 1 -27 3 -45s6.5 -34.833 13.5 -50.5s16 -29.667 27 -42s24.5 -18.5 40.5 -18.5c20.667 0 38.167 4.5 52.5 13.5
s26.666 19.667 36.999 32s18.5 26.333 24.5 42s11 30.167 15 43.5c1.33301 19.333 2.33301 48.5 3 87.5s1 81.833 1 128.5v96c0 30 -0.333008 59 -1 87s-1 53 -1 75v51c0 40.667 -2.33301 75 -7 103s-10 53.667 -16 77s-11.5 45.833 -16.5 67.5s-7.5 46.167 -7.5 73.5h197
c4 0 9.83301 -3.66699 17.5 -11s14.834 -15.833 21.501 -25.5s12.667 -19.334 18 -29.001s8 -16.5 8 -20.5v-932c12 -12 19.5 -27.833 22.5 -47.5s4.5 -38.5 4.5 -56.5h-219c-2.66699 0 -7.16699 2.66699 -13.5 8s-9.5 8.66602 -9.5 9.99902
c0 5.33301 -0.333008 13.5 -1 24.5s-1 22.167 -1 33.5c0 12 0.333008 22.833 1 32.5s1 16.5 1 20.5c-18 -23.333 -34.333 -43.166 -49 -59.499s-29.834 -30 -45.501 -41s-32.834 -18.833 -51.501 -23.5s-41.667 -7 -69 -7c-16.667 0 -37.167 2 -61.5 6
s-48.166 11.167 -71.499 21.5s-42.5 24 -57.5 41s-22.5 37.833 -22.5 62.5v801c0 18 -2.33301 34.833 -7 50.5s-9.66699 31 -15 46s-10.5 30.333 -15.5 46s-7.5 32.167 -7.5 49.5zM91.999 1470l41.001 40.999l152 -135c16.667 -15.333 35.667 -22.666 57 -21.999
c8 0 15.667 3.33301 23 10l163 129c15.333 8 24 12 26 12s6.33301 -4 13 -12l90 -115c5.33301 -6.66699 8.33301 -10.667 9 -12c0 -2.66699 -2.33301 -4 -7 -4c-2.66699 0 -6 0.666992 -10 2h-16c-22 0 -41.333 -7 -58 -21l-157 -124c-15.333 -9.33301 -27 -14.333 -35 -15
c-6.66699 0 -13.834 1.66699 -21.501 5s-16.167 11.333 -25.5 24z" />
    <glyph glyph-name="afii10076" unicode="&#x43a;" horiz-adv-x="831" 
d="M25 1122l280 -0.00292969v-346v-635c0 -12 2.33301 -24.167 7 -36.5s10.167 -24.333 16.5 -36s11.5 -23 15.5 -34s6 -22.5 6 -34.5h-293c0 2.66699 0.333008 6.33398 1 11.001s1.66699 7 3 7c0 4 1.83301 8.83301 5.5 14.5l11.5 18.5c5.33301 16.667 10 27 14 31l-2 936
c0 12 -3 22.5 -9 31.5s-13.5 16.833 -22.5 23.5s-16.833 13.834 -23.5 21.501s-10 16.834 -10 27.501zM348 591.997c0 -2.66699 0.333008 -6.83496 1 -12.502s1.66699 -9.16699 3 -10.5c40.667 -1.33301 73.334 -8.5 98.001 -21.5s39.334 -38.5 44.001 -76.5l41 -430l40 -41
h209c0 12 -3 24.833 -9 38.5s-13.167 27 -21.5 40s-15.833 26.333 -22.5 40s-10.667 28.834 -12 45.501c-2.66699 40.667 -4 85.667 -4 135c0 26 -1.33301 51.333 -4 76s-5.66699 48.334 -9 71.001c-4 24.667 -9.33301 49.667 -16 75s-16.5 49.666 -29.5 72.999
s-29 43.833 -48 61.5s-41.5 32.5 -67.5 44.5c0 9.33301 1 21.333 3 36s4.66699 30.5 8 47.5s8.5 35 15.5 54s14.5 36 22.5 51s17.167 27.333 27.5 37s20.833 14.5 31.5 14.5c2.66699 0 5.33398 -0.666992 8.00098 -2c1.33301 0 3.16602 -3.33301 5.49902 -10
s10.833 -17.667 25.5 -33c2.66699 -1.33301 8.16699 -2 16.5 -2h14.5c1.33301 0 2.66602 0.333008 3.99902 1s2.66602 1 3.99902 1c16.667 27.333 32.167 55.333 46.5 84s21.5 59.334 21.5 92.001v11.5c0 5 -0.666992 11.5 -2 19.5c-1.33301 13.333 -9 20 -23 20h-190
c-2.66699 0 -6.5 -2.66699 -11.5 -8s-8.16699 -9.33301 -9.5 -12c-9.33301 -18 -21.5 -39.667 -36.5 -65l-47 -82c-16.333 -29.333 -32 -60.333 -47 -93s-28 -65 -39 -97s-20.667 -62.667 -29 -92s-12.5 -56.333 -12.5 -81z" />
    <glyph glyph-name="afii10077" unicode="&#x43b;" horiz-adv-x="835" 
d="M55 0c0 12 3.49805 24.834 10.498 38.501l21.5 40l21.5 40c7 13.667 11.167 28.834 12.5 45.501c1.33301 12 2.33301 25.167 3 39.5s1.33398 32.5 2.00098 54.5s1 48.667 1 80v116.5c0 46.333 0.666992 103 2 170s2.66602 146.833 3.99902 239.5
c0 1.33301 1 3.83301 3 7.5s3.66699 8.16699 5 13.5c0 19.333 6.16699 38.833 18.5 58.5s26.333 38 42 55s33.167 33 52.5 48l53.5 40c16.333 11.667 29.5 20.5 39.5 26.5s17.333 9 22 9h432c0 -1.33301 -1.33301 -6.66602 -4 -15.999s-6.5 -19.166 -11.5 -29.499l-15.5 -33
c-5.33301 -11.667 -10 -20.834 -14 -27.501v-930c9.33301 -16.667 17 -29.667 23 -39l14.5 -22.5c3.66699 -5.66699 5.83398 -10.167 6.50098 -13.5s1 -7 1 -11h-197c-1.33301 0 -4.33301 2.66699 -9 8s-8.33398 8.66602 -11.001 9.99902l-43 86l-13 760
c9.33301 15.333 17.833 27.666 25.5 36.999s17.334 20.5 29.001 33.5s26.5 25.833 44.5 38.5h-258c-10.667 0 -18.5 -7.5 -23.5 -22.5s-10.167 -34.833 -15.5 -59.5s-9.16602 -52.667 -11.499 -84s-3.83301 -63.833 -4.5 -97.5s-1 -67.167 -1 -100.5v-90
c0 -26.667 0.333008 -48.834 1 -66.501s1 -29.167 1 -34.5l-10 -377l-41 -41h-209z" />
    <glyph glyph-name="afii10078" unicode="&#x43c;" horiz-adv-x="1241" 
d="M57 0c0 12 3.49512 24.835 10.4951 38.502l21.5 40l21.5 40c7 13.667 11.167 28.834 12.5 45.501v723c0 16.667 4.5 34.167 13.5 52.5s22 37.333 39 57s35.333 38.334 55 56.001s40.5 33.334 62.5 47.001s42.833 24.667 62.5 33s37.167 12.5 52.5 12.5
c34 0 64.667 -2 92 -6s52.5 -10.833 75.5 -20.5s45.167 -24.834 66.5 -45.501s40 -47.334 56 -80.001c6.66699 15.333 14.5 31.5 23.5 48.5s19.667 33 32 48s26.333 28 42 39s33.834 16.5 54.501 16.5h20c6.66699 0 18.334 -1 35.001 -3s34.834 -3.33301 54.501 -4
s40.167 -2.16699 61.5 -4.5s42.166 -4.16602 62.499 -5.49902s38.333 -2.66602 54 -3.99902s26.834 -2 33.501 -2v-12v-8c-1.33301 -1.33301 -3 -4.5 -5 -9.5s-3.66699 -9.5 -5 -13.5s-3.66602 -9.66699 -6.99902 -17l-11 -23.5c-4 -8.33301 -7.5 -16.666 -10.5 -24.999
s-4.5 -15.166 -4.5 -20.499v-800c0 -16.667 2.83301 -33.167 8.5 -49.5l16.5 -48c5.33301 -15.667 10.5 -32.167 15.5 -49.5s7.5 -34 7.5 -50c-36.667 0 -69.5 1 -98.5 3s-53.667 8.5 -74 19.5s-37.666 26.667 -51.999 47s-26.5 48.5 -36.5 84.5v48.5v86v111
c0 39.667 -0.333008 79.167 -1 118.5s-1 78.166 -1 116.499v103.5v74v36c2.66699 13.333 6.83398 26.833 12.501 40.5s12.5 27 20.5 40s16.5 25.333 25.5 37s18.167 22.167 27.5 31.5c-1.33301 0 -6 0.333008 -14 1s-17.167 1 -27.5 1s-19.5 0.333008 -27.5 1
s-13.667 1 -17 1c-23.333 0 -46.5 -2.33301 -69.5 -7s-43.333 -12.834 -61 -24.501s-32 -27.334 -43 -47.001s-16.5 -44.5 -16.5 -74.5v-744c-4 -6.66699 -7.33301 -15.834 -10 -27.501s-6.5 -23.334 -11.5 -35.001s-10.5 -20.834 -16.5 -27.501
s-14.667 -9.33398 -26 -8.00098h-71c-12 0 -21.167 4.16699 -27.5 12.5s-11.833 18.166 -16.5 29.499s-8.5 23.166 -11.5 35.499s-6.5 22.833 -10.5 31.5l-12 710c-1.33301 20.667 -4.66602 42.334 -9.99902 65.001s-12.833 43.834 -22.5 63.501s-22.334 36 -38.001 49
s-35.167 19.5 -58.5 19.5c-4 0 -9.5 -0.333008 -16.5 -1s-12.833 -2 -17.5 -4s-9.33398 -4.5 -14.001 -7.5s-7 -7.16699 -7 -12.5l-9 -575l5 -377l-39 -41h-226z" />
    <glyph glyph-name="afii10079" unicode="&#x43d;" horiz-adv-x="823" 
d="M57 1122l211.003 0.000976562c1.33301 0 5.16602 -5 11.499 -15s10.833 -18 13.5 -24c1.33301 -4 3.33301 -11 6 -21s5 -20.167 7 -30.5s4.33301 -20.333 7 -30s4 -16.5 4 -20.5l2 -274h195l-2 254c0 1.33301 -1.33301 12.666 -4 33.999
c-2.66699 9.33301 -5 18.166 -7 26.499s-4.33301 15.166 -7 20.499l-23 64v8v8h213c1.33301 0 4.33301 -4.66699 9 -14s8.66699 -17.666 12 -24.999c1.33301 -2.66699 3.66602 -9 6.99902 -19s6.33301 -20.167 9 -30.5s5 -20.666 7 -30.999s3 -17.5 3 -21.5l2 -858
c1.33301 -4 4.16602 -10.833 8.49902 -20.5l13.5 -31c4.66699 -11 8.66699 -21.167 12 -30.5s5.66602 -17 6.99902 -23c2.66699 -9.33301 4 -15.333 4 -18h-209l-51 82l-4 493l-195 -2l7 -473c6.66699 -13.333 12 -28.833 16 -46.5s6 -35.5 6 -53.5h-272
c0 20.667 2.33301 41.834 7 63.501s10.334 41.5 17.001 59.5v838l-8 34c-2.66699 9.33301 -5 18.166 -7 26.499l-5 20.5l-21 62c0 2.66699 -0.333008 6 -1 10s-1 6.66699 -1 8z" />
    <glyph glyph-name="afii10080" unicode="&#x43e;" horiz-adv-x="714" 
d="M59 911c0 2.66699 0.329102 7.5 0.996094 14.5s1 11.833 1 14.5c0 9.33301 2.83301 22.333 8.5 39s10.5 33.834 14.5 51.501l11 48c3.33301 14.333 5.33301 22.833 6 25.5s3.83398 6.33398 9.50098 11.001s9.83398 7 12.501 7h428c16.667 0 31 -5 43 -15
s22.5 -22.5 31.5 -37.5s15.833 -30.5 20.5 -46.5s7 -30 7 -42v-694c0 -20.667 -8.16699 -47.334 -24.5 -80.001s-36 -64.834 -59 -96.501s-47.167 -58 -72.5 -79s-48.333 -31.5 -69 -31.5h-223c-16.667 -0 -33.5 6.83301 -50.5 20.5s-32.333 30 -46 49s-25 39.167 -34 60.5
s-13.5 38.666 -13.5 51.999v553c0 28.667 6.5 56.334 19.5 83.001s30.5 50.667 52.5 72s46.667 38.5 74 51.5s55.333 19.5 84 19.5c0 -19.333 -2.83301 -40 -8.5 -62l-16.5 -63v-590c0 -13.333 3.5 -27.333 10.5 -42s15.167 -28.5 24.5 -41.5s20.833 -23.167 34.5 -30.5
s27.5 -11 41.5 -11c28.667 0 47.834 9.5 57.501 28.5s14.5 44.167 14.5 75.5v695c0 8 -4.5 18.833 -13.5 32.5s-18.167 23.167 -27.5 28.5h-21c-8 0 -17.5 0.333008 -28.5 1s-21.167 1 -30.5 1h-23c-30 0 -55.5 -3.66699 -76.5 -11s-40.5 -15.5 -58.5 -24.5l-51.5 -25
c-16.333 -7.66699 -36.166 -11.5 -59.499 -11.5z" />
    <glyph glyph-name="afii10081" unicode="&#x43f;" horiz-adv-x="833" 
d="M57 1122l207.001 -0.000976562c1.33301 0 4.16602 -5 8.49902 -15s8.5 -18 12.5 -24c1.33301 -4 3 -11 5 -21l6 -30.5l6 -30c2 -9.66699 3 -16.5 3 -20.5l41 82c4 9.33301 11.5 21.5 22.5 36.5s17.167 22.5 18.5 22.5h305l41 -59v-940
c1.33301 -4 4.16602 -10.833 8.49902 -20.5s8.5 -20 12.5 -31s8 -21.167 12 -30.5s6.66699 -17 8 -23c2.66699 -9.33301 4 -15.333 4 -18h-209l-51 82v879c0 6.66699 -3.33301 11.667 -10 15s-14.5 5.33301 -23.5 6s-17.5 1 -25.5 1h-15
c-19.333 0 -36.666 -6.5 -51.999 -19.5s-27.833 -28.667 -37.5 -47s-16.834 -38.5 -21.501 -60.5s-7 -42.333 -7 -61v-695c6.66699 -13.333 12 -28.833 16 -46.5s6 -35.5 6 -53.5h-272c0 20.667 2.33301 41.834 7 63.501s10.334 41.5 17.001 59.5v838
c0 1.33301 -2.66699 12.5 -8 33.5l-12 47.5l-21 62c0 2.66699 -0.333008 6 -1 10s-1 6.66699 -1 8z" />
    <glyph glyph-name="afii10082" unicode="&#x440;" horiz-adv-x="776" 
d="M51 1124h191.003c1.33301 0 4.33301 -2.33301 9 -7l11 -11l13.5 -20.5c6.33301 -9.66699 12.5 -20 18.5 -31s11.333 -21.5 16 -31.5s8.66699 -17.333 12 -22c2.66699 2.66699 7.66699 13.667 15 33s17.833 39.166 31.5 59.499s25.167 30.5 34.5 30.5h228
c6.66699 0 15.167 -2.33301 25.5 -7s19.166 -11.5 26.499 -20.5s14.166 -17.833 20.499 -26.5s9.5 -18 9.5 -28v-753c0 -28.667 -12 -58 -36 -88s-51.333 -58.667 -82 -86s-62.334 -53 -95.001 -77s-57.334 -42.667 -74.001 -56l-10 -5
c-1.33301 0 -5.66602 1.66699 -12.999 5c-2.66699 1.33301 -7.66699 5 -15 11s-15.5 11.667 -24.5 17s-17.167 11.5 -24.5 18.5s-13 11.833 -17 14.5v-23l11 -54l14 -70.5l14.5 -73.5c5 -24.667 7.5 -46.667 7.5 -66h-275c0 18 2 35.833 6 53.5s10.333 34.167 19 49.5v366
c-20.667 9.33301 -33 19.5 -37 30.5s-6 25.5 -6 43.5c0 19.333 2.66699 35.833 8 49.5s17.666 27.167 36.999 40.5v336c0 46.667 -1 94.834 -3 144.501s-8.66699 93.5 -20 131.5c-5.33301 23.333 -10.666 39.5 -15.999 48.5s-10.5 16.5 -15.5 22.5s-8.83301 12.5 -11.5 19.5
s-4 17.833 -4 32.5zM319.003 721c0 -23.333 0.5 -44.833 1.5 -64.5s1.5 -37.167 1.5 -52.5v-51c2.66699 -19.333 5 -44 7 -74l6 -88c2 -28.667 5 -62.667 9 -102c82 -82 123.667 -123.333 125 -124s3.33301 -1 6 -1c1.33301 0 4.66602 0.666992 9.99902 2
c2.66699 1.33301 7.16699 4.33301 13.5 9s9.5 7.66699 9.5 9v777c0 8 -3.5 13.667 -10.5 17s-13.833 5.33301 -20.5 6s-13.334 1 -20.001 1h-15c-27.333 0 -49.166 -8.16699 -65.499 -24.5s-28.166 -37.5 -35.499 -63.5s-12.833 -54.667 -16.5 -86s-5.5 -61.333 -5.5 -90z
" />
    <glyph glyph-name="afii10083" unicode="&#x441;" horiz-adv-x="669" 
d="M53 266l-0.00292969 551.002c0 1.33301 2.83301 10.166 8.5 26.499l12.5 35.5c2.66699 5.33301 6.33398 13.166 11.001 23.499s7.66699 16.166 9 17.499c13.333 15.333 31.333 34.166 54 56.499l68 67l57.5 56c15.667 15 24.167 22.5 25.5 22.5h287
c9.33301 0 15 -4.83301 17 -14.5s3 -17.834 3 -24.501c0 -15.333 -3.66699 -39.166 -11 -71.499s-17.5 -64.666 -30.5 -96.999s-28.833 -60.333 -47.5 -84s-36.667 -35.5 -54 -35.5h-23l-7 33.5c-3.33301 15.667 -6.66602 32.334 -9.99902 50.001s-7.83301 34 -13.5 49
s-9.16699 26.167 -10.5 33.5c-2.66699 10.667 -8 17 -16 19s-17.667 3 -29 3h-24h-2h-23c-9.33301 0 -19.5 -1 -30.5 -3s-16.5 -8.33301 -16.5 -19v-656c0 -53.333 14.667 -97 44 -131s72 -51 128 -51c26 0 46.5 8.16699 61.5 24.5s28.667 34 41 53
s25.666 36.833 39.999 53.5s33.833 25 58.5 25c0 -23.333 -4.16699 -50 -12.5 -80s-19.666 -58.333 -33.999 -85s-31.666 -50.667 -51.999 -72s-43.5 -35.333 -69.5 -42l-115 -4c-40.667 0 -79.167 5.5 -115.5 16.5s-67.833 27.333 -94.5 49s-47.5 49.667 -62.5 84
s-22.5 74.5 -22.5 120.5z" />
    <glyph glyph-name="afii10084" unicode="&#x442;" horiz-adv-x="1245" 
d="M57 1122l208.996 0.00390625c10.667 0 19.834 -6.83301 27.501 -20.5s13.834 -29.334 18.501 -47.001l12.5 -49c3.66699 -15 5.5 -23.167 5.5 -24.5c10.667 27.333 24.167 53.333 40.5 78s36.166 46.334 59.499 65.001h115c28.667 0 52.167 -0.333008 70.5 -1
s34.666 -5.33398 48.999 -14.001s27 -21.667 38 -39s22.5 -40.333 34.5 -69l11.5 23.5c6.33301 13 13.833 26.667 22.5 41s18.834 27.333 30.501 39s23.834 17.5 36.501 17.5h245c18 0 30.833 -3 38.5 -9s13.834 -13.833 18.501 -23.5s7.33398 -20.334 8.00098 -32.001
s1 -21.5 1 -29.5l-27 -366c0 -62.667 -0.333008 -118 -1 -166s-1 -98 -1 -150c0 -34 0.333008 -70.833 1 -110.5s3 -84.834 7 -135.501c1.33301 -1.33301 5.5 -6 12.5 -14s13.167 -16.167 18.5 -24.5s11.166 -16.5 17.499 -24.5s10.166 -14.333 11.499 -19v-8v-10
c-1.33301 -2.66699 -4.83301 -6.33398 -10.5 -11.001s-9.83398 -8.66699 -12.501 -12h-82c-10.667 0 -25.5 0.833008 -44.5 2.5s-36.667 4.83398 -53 9.50098s-31.333 12.834 -45 24.501s-20.5 27.5 -20.5 47.5v879c0 23.333 -5.5 36.666 -16.5 39.999s-24.167 5 -39.5 5h-4
c-20.667 0 -38.5 -5.16699 -53.5 -15.5s-27.167 -23.666 -36.5 -39.999s-17.166 -34.333 -23.499 -54s-9.5 -39.167 -9.5 -58.5v-717c1.33301 -1.33301 4.16602 -6 8.49902 -14l13.5 -24.5c4.66699 -8.33301 8.66699 -16.5 12 -24.5s5.66602 -14.333 6.99902 -19v-8v-10
c-1.33301 -2.66699 -4.33301 -6.33398 -9 -11.001s-8.33398 -8.66699 -11.001 -12h-96h-40c-16 0 -31.5 2.5 -46.5 7.5s-27.667 11.833 -38 20.5s-15.5 20.667 -15.5 36v920c0 4 -2.66699 8 -8 12s-12.166 6.66699 -20.499 8s-15.833 2 -22.5 2h-20h-2h-3
c-23.333 0 -42.666 -10.167 -57.999 -30.5s-27.166 -43.5 -35.499 -69.5s-14.166 -53 -17.499 -81s-5 -50.333 -5 -67v-553c4 -26 12.167 -56 24.5 -90s18.5 -64.667 18.5 -92h-293c0 13.333 1.66699 27.166 5 41.499s9 27.833 17 40.5v919
c-9.33301 15.333 -19.166 34 -29.499 56s-15.5 43.667 -15.5 65z" />
    <glyph glyph-name="afii10085" unicode="&#x443;" horiz-adv-x="827" 
d="M57 1126c2.66699 0 10.4951 -0.335938 23.4951 -1.00293s27 -1.33398 42 -2.00098s29 -1 42 -1h25.5c5.33301 0 13.833 -2 25.5 -6s24.667 -9.33301 39 -16s27 -13.5 38 -20.5s16.5 -13.833 16.5 -20.5v-815c0 -9.33301 5.5 -17.5 16.5 -24.5l36 -22
c13 -7.66699 26.333 -13.167 40 -16.5s23.167 -5 28.5 -5c2.66699 0 9 0.666992 19 2c6.66699 2.66699 13.334 7.5 20.001 14.5s13.834 13.833 21.501 20.5s13.5 12.834 17.5 18.501s6 9.83398 6 12.501v729c-5.33301 19.333 -10.833 42.833 -16.5 70.5
s-8.5 53.834 -8.5 78.501h287c0 -15.333 -1.66699 -30.666 -5 -45.999s-10.333 -28.666 -21 -39.999c-1.33301 -20.667 -2.5 -50.667 -3.5 -90l-3.5 -135c-1.33301 -50.667 -2.66602 -104.334 -3.99902 -161.001s-2.66602 -109.834 -3.99902 -159.501
s-2.66602 -95 -3.99902 -136s-2 -71.167 -2 -90.5c-2.66699 -82 -4.66699 -157.5 -6 -226.5s-13 -128 -35 -177s-58.167 -87.5 -108.5 -115.5s-126.833 -42 -229.5 -42h-35c-13.333 0 -27.166 0.333008 -41.499 1s-28.5 1 -42.5 1h-16c-9.33301 0 -21.5 1 -36.5 3
s-29.333 4.33301 -43 7s-25.334 5.5 -35.001 8.5s-14.5 5.16699 -14.5 6.5v233h61c28.667 -39.333 58.834 -71 90.501 -95s70.5 -36 116.5 -36c32.667 0 59.667 6.5 81 19.5s38.166 29.667 50.499 50s20.5 43.5 24.5 69.5s6 52 6 78c0 6.66699 -0.333008 17.834 -1 33.501
s-1 26.5 -1 32.5c-26 -35.333 -52 -55.5 -78 -60.5s-58 -7.5 -96 -7.5c-35.333 0 -64 3.5 -86 10.5s-41.5 16.833 -58.5 29.5s-33 28.667 -48 48l-51.5 66v815c-26 35.333 -39 72 -39 110z" />
    <glyph glyph-name="afii10086" unicode="&#x444;" horiz-adv-x="1132" 
d="M47 760l-0.00292969 34.998c0 32.667 8.83301 66.667 26.5 102s39.834 69.166 66.501 101.499s55 60.333 85 84s58.667 38.167 86 43.5l152 2v347c0 1.33301 3.33301 4.33301 10 9s13 8.33398 19 11.001h20c8 0 23.333 -0.666992 46 -2l69 -4
c23.333 -1.33301 45.5 -3.66602 66.5 -6.99902l43.5 -7c0 -1.33301 0.333008 -3.16602 1 -5.49902s1 -4.16602 1 -5.49902l-2 -10c-15.333 -24.667 -27.666 -45.5 -36.999 -62.5s-15.666 -35 -18.999 -54s-5.33301 -39.167 -6 -60.5s-1 -46.333 -1 -75v-63l147 -2
c27.333 -6.66699 56.333 -21.667 87 -45s59.334 -51 86.001 -83s48.5 -66.167 65.5 -102.5s25.5 -70.166 25.5 -101.499v-37c0 -13.333 -0.333008 -35.833 -1 -67.5s-1 -67.167 -1 -106.5v-123v-91v-85c0 -26 -0.333008 -49.5 -1 -70.5s-1 -37.167 -1 -48.5
c-20.667 -54.667 -51 -96.334 -91 -125.001s-89.333 -43 -148 -43l-82 6c-18 13.333 -34.167 28.666 -48.5 45.999s-26.833 36.333 -37.5 57v-17l2 -397c2.66699 -5.33301 5 -13.5 7 -24.5s4.33301 -22 7 -33s4.66699 -20.167 6 -27.5s2 -11.666 2 -12.999h-272
c0 18 3 35.833 9 53.5s15.333 32.5 28 44.5l4 248l-6 153c-12 -18 -25.333 -35.667 -40 -53s-30 -33 -46 -47l-82 -4c-57.333 0 -106.833 14.333 -148.5 43s-72.167 70.334 -91.5 125.001c0 9.33301 -0.333008 24.666 -1 45.999s-1.33398 45.333 -2.00098 72s-1 55 -1 85v92
v123c0 38 -0.333008 72.667 -1 104s-1 54.666 -1 69.999zM245.997 349.998c0 -20.667 1.3291 -42.8301 3.99609 -66.4971s7.33398 -46.167 14.001 -67.5s17.5 -38.833 32.5 -52.5s34.833 -20.5 59.5 -20.5c22 0 39.833 10.667 53.5 32s24.667 47.666 33 78.999
s13.5 66.166 15.5 104.499s3 75.166 3 110.499c0 30 -0.333008 58.333 -1 85s-1 47.334 -1 62.001v99c0 22 -0.333008 43.167 -1 63.5s-2 41.333 -4 63s-4.83301 44.167 -8.5 67.5l-11.5 76c-1.33301 10.667 -8.16602 17.167 -20.499 19.5s-23.166 3.5 -32.499 3.5
c-8 0 -15.167 -0.333008 -21.5 -1s-10.166 -1 -11.499 -1h-26c-13.333 0 -27.333 -2.16699 -42 -6.5s-24.667 -16.5 -30 -36.5v-306v-49.5v-62.5c0 -22 -0.333008 -44.333 -1 -67s-1 -42.834 -1 -60.501s-0.333008 -32.667 -1 -45s-1 -19.833 -1 -22.5zM673.993 475.002
c0 -32.667 0.996094 -68.502 2.99609 -107.502s6.66699 -74.167 14 -105.5s17.833 -56.833 31.5 -76.5s31.5 -29.5 53.5 -29.5c24.667 0 44.5 6.83301 59.5 20.5s26.333 30.334 34 50.001s12.834 41.834 15.501 66.501s4 47 4 67v20.5v47.5c0 19.333 -0.333008 39.5 -1 60.5
s-1 43.167 -1 66.5s-0.333008 44.5 -1 63.5s-1 36.167 -1 51.5v305c-5.33301 18 -15.166 29.667 -29.499 35s-29.166 8 -44.499 8h-27h-10h-18c-12 0 -24.333 -1.66699 -37 -5s-19.667 -9.33301 -21 -18l-11 -75.5c-3.33301 -23 -5.66602 -45.5 -6.99902 -67.5
s-2.33301 -43.5 -3 -64.5s-1 -42.5 -1 -64.5v-94c0 -18 -0.333008 -40 -1 -66s-1 -55.333 -1 -88z" />
    <glyph glyph-name="afii10087" unicode="&#x445;" horiz-adv-x="823" 
d="M49 33c0 1.33301 0.664062 4.67188 1.99707 10.0049l43 43c48 65.333 86 137 114 215l79 227c0 5.33301 0.333008 15 1 29s1 23.667 1 29c0 32.667 -4.83301 69.167 -14.5 109.5s-21.667 80.166 -36 119.499s-30.333 77.166 -48 113.499s-35.5 68.166 -53.5 95.499
c-1.33301 1.33301 -5.33301 6.16602 -12 14.499s-13.5 17.5 -20.5 27.5s-13.833 19.167 -20.5 27.5s-10.667 13.833 -12 16.5s-3.16602 5.66699 -5.49902 9s-3.5 6.33301 -3.5 9c162.667 0 245.667 -2.66699 249 -8l13.5 -22.5c5.66699 -9.66699 10.5 -19.5 14.5 -29.5
s7.33301 -18.667 10 -26c2.66699 -4 7.5 -12.833 14.5 -26.5s13.5 -28.334 19.5 -44.001s12.167 -31 18.5 -46s10.833 -25.167 13.5 -30.5h20c2.66699 8 8.16699 22 16.5 42l26 64.5l25.5 64.5l18 44c1.33301 2.66699 4.83301 6.33398 10.5 11.001s9.83398 7 12.501 7h170
c13.333 0 20.666 -6.83301 21.999 -20.5s2 -23.167 2 -28.5c0 -32.667 -7.16699 -64.667 -21.5 -96s-28.833 -60.666 -43.5 -87.999c-1.33301 0 -3.33301 -0.333008 -6 -1s-4.66699 -1 -6 -1s-5 0.666992 -11 2c-28.667 28.667 -44.667 43.334 -48 44.001
s-5.66602 1 -6.99902 1c-18 0 -33.167 -10.167 -45.5 -30.5s-22.166 -44.5 -29.499 -72.5s-12.666 -54.667 -15.999 -80s-5 -44.333 -5 -57c0 -2.66699 0.333008 -9.33398 1 -20.001s1 -18.334 1 -23.001c16.667 -57.333 35.5 -111.166 56.5 -161.499l64 -151.5
c21.667 -50.667 44.167 -100.167 67.5 -148.5s46 -99.166 68 -152.499c1.33301 -2.66699 3 -9.83398 5 -21.501s3 -18.834 3 -21.501h-221c-1.33301 0 -7.5 8.16699 -18.5 24.5l-24.5 36.5c-2.66699 5.33301 -6.83398 13.166 -12.501 23.499s-9.16699 16.833 -10.5 19.5
c-4 10.667 -11.5 29.5 -22.5 56.5s-21.833 55.5 -32.5 85.5l-30.5 85l-20.5 56c-19.333 -6.66699 -34.833 -20.667 -46.5 -42s-20.5 -44.166 -26.5 -68.499s-10 -49.5 -12 -75.5s-3 -49.333 -3 -70c0 -26 4.33301 -48.167 13 -66.5s13 -39.833 13 -64.5h-239
c-1.33301 0 -4.5 2.66699 -9.5 8s-8.16699 8.33301 -9.5 9s-2.33301 3.16699 -3 7.5s-1 7.16602 -1 8.49902z" />
    <glyph glyph-name="afii10088" unicode="&#x446;" horiz-adv-x="888" 
d="M53 1122l195 0.000976562c4 0 9.33301 -3.66699 16 -11s13.834 -15.833 21.501 -25.5s13.834 -19.334 18.501 -29.001s7 -16.5 7 -20.5v-735c0 -10.667 1 -25.334 3 -44.001s6.5 -36.167 13.5 -52.5s16 -30.333 27 -42s24.5 -17.5 40.5 -17.5
c40.667 0 70.334 14.333 89.001 43s32 58 40 88c1.33301 19.333 2.33301 48.5 3 87.5s1 81.833 1 128.5v96c0 31.333 -0.333008 60.666 -1 87.999s-1 52 -1 74v51c0 39.333 -2.33301 73.333 -7 102s-10 54.667 -16 78l-16.5 66.5c-5 21 -7.5 45.833 -7.5 74.5h197
c4 0 9.33301 -3.66699 16 -11l22.5 -25.5c8.33301 -9.66699 14.833 -19.334 19.5 -29.001s7 -16.5 7 -20.5l7 -874c24.667 0 41.667 8.5 51 25.5s16.666 35 21.999 54s12.5 35 21.5 48s24.5 14.833 46.5 5.5c12 -5.33301 14.333 -23.666 7 -54.999l-26.5 -116
c-10.333 -46 -17.5 -96.667 -21.5 -152s3.33301 -111 22 -167c4 -9.33301 8.16699 -22.5 12.5 -39.5s-12.667 -36.833 -51 -59.5s-70.166 -40.5 -95.499 -53.5s-51.666 -27.5 -78.999 -43.5c-20.667 56 -25.667 116.333 -15 181s47.334 150.334 110.001 257.001
c-12 1.33301 -19.5 0.333008 -22.5 -3s-6.5 -8.16602 -10.5 -14.499s-11.167 -12.5 -21.5 -18.5s-29.166 -9.66699 -56.499 -11c-36.667 -2.66699 -61.834 1.5 -75.501 12.5s-21.834 24 -24.501 39s-3.33398 30 -2.00098 45s-3 25.833 -13 32.5
c-18 -23.333 -34.333 -43.166 -49 -59.499s-29.834 -30 -45.501 -41s-32.834 -18.833 -51.501 -23.5s-41.667 -7 -69 -7c-16.667 0 -37.167 2 -61.5 6s-47.833 11.167 -70.5 21.5s-41.834 23.666 -57.501 39.999s-23.5 37.5 -23.5 63.5v801c0 35.333 -7.5 68 -22.5 98
s-22.5 61.333 -22.5 94z" />
    <glyph glyph-name="afii10089" unicode="&#x447;" horiz-adv-x="827" 
d="M53 1122l194.998 0.00195312c4 0 9.33301 -3.66699 16 -11s13.834 -15.833 21.501 -25.5s13.834 -19.334 18.501 -29.001s7 -16.5 7 -20.5l2 -356c0 -12 1.5 -27 4.5 -45s7.83301 -35.167 14.5 -51.5s15.5 -30.333 26.5 -42s23.833 -17.5 38.5 -17.5
c20.667 0 38.167 4.5 52.5 13.5s27 20 38 33s19.167 27 24.5 42s10 29.833 14 44.5v144c0 40.667 -2.33301 75 -7 103s-10 53.667 -16 77s-11.5 45.833 -16.5 67.5s-7.5 46.167 -7.5 73.5h197c4 0 9.83301 -3.66699 17.5 -11s14.834 -15.833 21.501 -25.5
s12.667 -19.334 18 -29.001s8 -16.5 8 -20.5v-932c12 -12 19.5 -27.833 22.5 -47.5s4.5 -38.5 4.5 -56.5h-219c-2.66699 0 -7.16699 2.66699 -13.5 8s-9.5 8.66602 -9.5 9.99902c0 5.33301 -0.333008 13.5 -1 24.5s-1 22.167 -1 33.5v38.5c0 21.667 0.333008 49 1 82
s1 66.833 1 101.5s0.333008 67.334 1 98.001s1 57 1 79v35c-16.667 -26 -32.334 -46.833 -47.001 -62.5s-29.5 -29.334 -44.5 -41.001s-32.5 -19.167 -52.5 -22.5s-43.667 -5 -71 -5c-15.333 0 -35.5 1.66699 -60.5 5s-49.167 10.5 -72.5 21.5s-42.5 24.667 -57.5 41
s-22.5 37.5 -22.5 63.5l-2 420c0 18 -2.33301 34.833 -7 50.5s-9.66699 31.334 -15 47.001l-15.5 46c-5 15 -7.5 31.167 -7.5 48.5z" />
    </font>
</defs>
</svg>
